M48
;DRILL file {KiCad 4.0.6} date Mon Oct 23 01:37:41 2017
;FORMAT={2:4/ absolute / inch / suppress leading zeros}
FMAT,2
INCH,TZ
T1C0.016
T2C0.020
T3C0.039
%
G90
G05
M72
T1
X48913Y-17896
X50950Y-14750
X52732Y-15921
X56341Y-16287
X56948Y-16714
X58603Y-18686
X64160Y-9500
X67150Y-11094
X68900Y-9500
T3
X11130Y-12173
X11130Y-13173
X11130Y-14173
X11130Y-15173
X11130Y-16173
X12008Y-8374
X12008Y-19972
X13008Y-8374
X13008Y-19972
X13130Y-12173
X13130Y-13173
X13130Y-14173
X13130Y-15173
X13130Y-16173
X20850Y-8374
X20850Y-19972
X21850Y-8374
X21850Y-19972
X22728Y-12173
X22728Y-13173
X22728Y-14173
X22728Y-15173
X22728Y-16173
X23728Y-12173
X23728Y-13173
X23728Y-14173
X23728Y-15173
X23728Y-16173
X24606Y-8374
X24606Y-19972
X25606Y-8374
X25606Y-19972
X33449Y-8374
X33449Y-19972
X34449Y-8374
X34449Y-19972
X35327Y-12173
X35327Y-13173
X35327Y-14173
X35327Y-15173
X35327Y-16173
X36325Y-12173
X36325Y-13173
X36325Y-14173
X36325Y-15173
X36325Y-16173
X37203Y-8374
X37203Y-19972
X38203Y-8374
X38203Y-19972
X46046Y-8374
X46046Y-19972
X47046Y-8374
X47046Y-19972
X47924Y-12173
X47924Y-13173
X47924Y-14173
X47924Y-15173
X47924Y-16173
X48925Y-12173
X48925Y-13173
X48925Y-14173
X48925Y-15173
X48925Y-16173
X49803Y-8374
X49803Y-19972
X50803Y-8374
X50803Y-19972
X58646Y-8374
X58646Y-19972
X59646Y-8374
X59646Y-19972
X60524Y-12173
X60524Y-13173
X60524Y-14173
X60524Y-15173
X60524Y-16173
X61524Y-12173
X61524Y-13173
X61524Y-14173
X61524Y-15173
X61524Y-16173
X62402Y-8374
X62402Y-19972
X63402Y-8374
X63402Y-19972
X64770Y-18740
X65770Y-18740
X66770Y-18740
X67770Y-18740
X68770Y-18740
X69770Y-18740
X71110Y-12173
X71110Y-13173
X71110Y-14173
X71110Y-15173
X71110Y-16173
X71244Y-8374
X71244Y-19972
X72244Y-8374
X72244Y-19972
X73122Y-12173
X73122Y-13173
X73122Y-14173
X73122Y-15173
X73122Y-16173
T2
X38222Y-18052G85X38497Y-18052
G05
X39245Y-18898G85X39678Y-18898
G05
X40426Y-18052G85X40702Y-18052
G05
T0
M30
