G04 #@! TF.FileFunction,Legend,Top*
%FSLAX46Y46*%
G04 Gerber Fmt 4.6, Leading zero omitted, Abs format (unit mm)*
G04 Created by KiCad (PCBNEW 4.0.6) date Mon Oct 23 01:37:39 2017*
%MOMM*%
%LPD*%
G01*
G04 APERTURE LIST*
%ADD10C,0.100000*%
%ADD11C,0.150000*%
%ADD12C,0.300000*%
%ADD13C,0.203200*%
%ADD14C,0.200000*%
%ADD15C,0.254000*%
%ADD16C,0.120000*%
%ADD17C,0.152400*%
%ADD18R,1.400000X1.400000*%
%ADD19R,0.800000X0.800000*%
%ADD20R,2.100000X2.100000*%
%ADD21O,2.100000X2.100000*%
%ADD22R,1.950000X1.700000*%
%ADD23R,1.900000X1.700000*%
%ADD24R,1.200000X1.300000*%
%ADD25R,1.400000X1.650000*%
%ADD26R,0.850000X1.900000*%
%ADD27O,2.200000X1.500000*%
%ADD28O,2.600000X1.500000*%
%ADD29R,3.900000X2.000000*%
%ADD30R,0.900000X0.750000*%
%ADD31R,1.500000X1.000000*%
%ADD32R,1.500000X1.100000*%
%ADD33R,4.200000X2.400000*%
%ADD34R,1.900000X2.400000*%
%ADD35R,2.900000X1.500000*%
%ADD36R,1.500000X2.900000*%
%ADD37R,1.700000X1.900000*%
%ADD38C,2.100000*%
%ADD39R,1.600000X1.300000*%
%ADD40R,1.650000X1.400000*%
G04 APERTURE END LIST*
D10*
D11*
X167219738Y-49553881D02*
X167838786Y-49553881D01*
X167505452Y-49934833D01*
X167648310Y-49934833D01*
X167743548Y-49982452D01*
X167791167Y-50030071D01*
X167838786Y-50125310D01*
X167838786Y-50363405D01*
X167791167Y-50458643D01*
X167743548Y-50506262D01*
X167648310Y-50553881D01*
X167362595Y-50553881D01*
X167267357Y-50506262D01*
X167219738Y-50458643D01*
X168267357Y-50458643D02*
X168314976Y-50506262D01*
X168267357Y-50553881D01*
X168219738Y-50506262D01*
X168267357Y-50458643D01*
X168267357Y-50553881D01*
X168648309Y-49553881D02*
X169267357Y-49553881D01*
X168934023Y-49934833D01*
X169076881Y-49934833D01*
X169172119Y-49982452D01*
X169219738Y-50030071D01*
X169267357Y-50125310D01*
X169267357Y-50363405D01*
X169219738Y-50458643D01*
X169172119Y-50506262D01*
X169076881Y-50553881D01*
X168791166Y-50553881D01*
X168695928Y-50506262D01*
X168648309Y-50458643D01*
X169553071Y-49553881D02*
X169886404Y-50553881D01*
X170219738Y-49553881D01*
X171648310Y-50030071D02*
X171314976Y-50030071D01*
X171314976Y-50553881D02*
X171314976Y-49553881D01*
X171791167Y-49553881D01*
X172172119Y-50553881D02*
X172172119Y-49553881D01*
X172410214Y-49553881D01*
X172553072Y-49601500D01*
X172648310Y-49696738D01*
X172695929Y-49791976D01*
X172743548Y-49982452D01*
X172743548Y-50125310D01*
X172695929Y-50315786D01*
X172648310Y-50411024D01*
X172553072Y-50506262D01*
X172410214Y-50553881D01*
X172172119Y-50553881D01*
X173029262Y-49553881D02*
X173600691Y-49553881D01*
X173314976Y-50553881D02*
X173314976Y-49553881D01*
X173934024Y-50553881D02*
X173934024Y-49553881D01*
D12*
X36348943Y-25001771D02*
X36348943Y-23501771D01*
X36848943Y-24573200D01*
X37348943Y-23501771D01*
X37348943Y-25001771D01*
X38706086Y-25001771D02*
X38706086Y-24216057D01*
X38634657Y-24073200D01*
X38491800Y-24001771D01*
X38206086Y-24001771D01*
X38063229Y-24073200D01*
X38706086Y-24930343D02*
X38563229Y-25001771D01*
X38206086Y-25001771D01*
X38063229Y-24930343D01*
X37991800Y-24787486D01*
X37991800Y-24644629D01*
X38063229Y-24501771D01*
X38206086Y-24430343D01*
X38563229Y-24430343D01*
X38706086Y-24358914D01*
X39277515Y-25001771D02*
X40063229Y-24001771D01*
X39277515Y-24001771D02*
X40063229Y-25001771D01*
X40420372Y-24001771D02*
X40991801Y-24001771D01*
X40634658Y-23501771D02*
X40634658Y-24787486D01*
X40706086Y-24930343D01*
X40848944Y-25001771D01*
X40991801Y-25001771D01*
X41491801Y-25001771D02*
X41491801Y-24001771D01*
X41491801Y-24287486D02*
X41563229Y-24144629D01*
X41634658Y-24073200D01*
X41777515Y-24001771D01*
X41920372Y-24001771D01*
X42420372Y-25001771D02*
X42420372Y-24001771D01*
X42420372Y-23501771D02*
X42348943Y-23573200D01*
X42420372Y-23644629D01*
X42491800Y-23573200D01*
X42420372Y-23501771D01*
X42420372Y-23644629D01*
X42991801Y-25001771D02*
X43777515Y-24001771D01*
X42991801Y-24001771D02*
X43777515Y-25001771D01*
X45206087Y-24858914D02*
X45134658Y-24930343D01*
X44920372Y-25001771D01*
X44777515Y-25001771D01*
X44563230Y-24930343D01*
X44420372Y-24787486D01*
X44348944Y-24644629D01*
X44277515Y-24358914D01*
X44277515Y-24144629D01*
X44348944Y-23858914D01*
X44420372Y-23716057D01*
X44563230Y-23573200D01*
X44777515Y-23501771D01*
X44920372Y-23501771D01*
X45134658Y-23573200D01*
X45206087Y-23644629D01*
X46063230Y-25001771D02*
X45920372Y-24930343D01*
X45848944Y-24787486D01*
X45848944Y-23501771D01*
X46848944Y-25001771D02*
X46706086Y-24930343D01*
X46634658Y-24858914D01*
X46563229Y-24716057D01*
X46563229Y-24287486D01*
X46634658Y-24144629D01*
X46706086Y-24073200D01*
X46848944Y-24001771D01*
X47063229Y-24001771D01*
X47206086Y-24073200D01*
X47277515Y-24144629D01*
X47348944Y-24287486D01*
X47348944Y-24716057D01*
X47277515Y-24858914D01*
X47206086Y-24930343D01*
X47063229Y-25001771D01*
X46848944Y-25001771D01*
X48634658Y-24930343D02*
X48491801Y-25001771D01*
X48206087Y-25001771D01*
X48063229Y-24930343D01*
X47991801Y-24858914D01*
X47920372Y-24716057D01*
X47920372Y-24287486D01*
X47991801Y-24144629D01*
X48063229Y-24073200D01*
X48206087Y-24001771D01*
X48491801Y-24001771D01*
X48634658Y-24073200D01*
X49277515Y-25001771D02*
X49277515Y-23501771D01*
X49420372Y-24430343D02*
X49848943Y-25001771D01*
X49848943Y-24001771D02*
X49277515Y-24573200D01*
X36277514Y-26194629D02*
X36348943Y-26123200D01*
X36491800Y-26051771D01*
X36848943Y-26051771D01*
X36991800Y-26123200D01*
X37063229Y-26194629D01*
X37134657Y-26337486D01*
X37134657Y-26480343D01*
X37063229Y-26694629D01*
X36206086Y-27551771D01*
X37134657Y-27551771D01*
X38063228Y-26051771D02*
X38206085Y-26051771D01*
X38348942Y-26123200D01*
X38420371Y-26194629D01*
X38491800Y-26337486D01*
X38563228Y-26623200D01*
X38563228Y-26980343D01*
X38491800Y-27266057D01*
X38420371Y-27408914D01*
X38348942Y-27480343D01*
X38206085Y-27551771D01*
X38063228Y-27551771D01*
X37920371Y-27480343D01*
X37848942Y-27408914D01*
X37777514Y-27266057D01*
X37706085Y-26980343D01*
X37706085Y-26623200D01*
X37777514Y-26337486D01*
X37848942Y-26194629D01*
X37920371Y-26123200D01*
X38063228Y-26051771D01*
X39991799Y-27551771D02*
X39134656Y-27551771D01*
X39563228Y-27551771D02*
X39563228Y-26051771D01*
X39420371Y-26266057D01*
X39277513Y-26408914D01*
X39134656Y-26480343D01*
X40491799Y-26051771D02*
X41491799Y-26051771D01*
X40848942Y-27551771D01*
X42848941Y-27551771D02*
X41991798Y-27551771D01*
X42420370Y-27551771D02*
X42420370Y-26051771D01*
X42277513Y-26266057D01*
X42134655Y-26408914D01*
X41991798Y-26480343D01*
X43777512Y-26051771D02*
X43920369Y-26051771D01*
X44063226Y-26123200D01*
X44134655Y-26194629D01*
X44206084Y-26337486D01*
X44277512Y-26623200D01*
X44277512Y-26980343D01*
X44206084Y-27266057D01*
X44134655Y-27408914D01*
X44063226Y-27480343D01*
X43920369Y-27551771D01*
X43777512Y-27551771D01*
X43634655Y-27480343D01*
X43563226Y-27408914D01*
X43491798Y-27266057D01*
X43420369Y-26980343D01*
X43420369Y-26623200D01*
X43491798Y-26337486D01*
X43563226Y-26194629D01*
X43634655Y-26123200D01*
X43777512Y-26051771D01*
X44848940Y-26194629D02*
X44920369Y-26123200D01*
X45063226Y-26051771D01*
X45420369Y-26051771D01*
X45563226Y-26123200D01*
X45634655Y-26194629D01*
X45706083Y-26337486D01*
X45706083Y-26480343D01*
X45634655Y-26694629D01*
X44777512Y-27551771D01*
X45706083Y-27551771D01*
X46277511Y-26194629D02*
X46348940Y-26123200D01*
X46491797Y-26051771D01*
X46848940Y-26051771D01*
X46991797Y-26123200D01*
X47063226Y-26194629D01*
X47134654Y-26337486D01*
X47134654Y-26480343D01*
X47063226Y-26694629D01*
X46206083Y-27551771D01*
X47134654Y-27551771D01*
X36348943Y-30101771D02*
X36348943Y-29101771D01*
X36348943Y-29387486D02*
X36420371Y-29244629D01*
X36491800Y-29173200D01*
X36634657Y-29101771D01*
X36777514Y-29101771D01*
X37848942Y-30030343D02*
X37706085Y-30101771D01*
X37420371Y-30101771D01*
X37277514Y-30030343D01*
X37206085Y-29887486D01*
X37206085Y-29316057D01*
X37277514Y-29173200D01*
X37420371Y-29101771D01*
X37706085Y-29101771D01*
X37848942Y-29173200D01*
X37920371Y-29316057D01*
X37920371Y-29458914D01*
X37206085Y-29601771D01*
X38420371Y-29101771D02*
X38777514Y-30101771D01*
X39134656Y-29101771D01*
X41134656Y-28601771D02*
X41277513Y-28601771D01*
X41420370Y-28673200D01*
X41491799Y-28744629D01*
X41563228Y-28887486D01*
X41634656Y-29173200D01*
X41634656Y-29530343D01*
X41563228Y-29816057D01*
X41491799Y-29958914D01*
X41420370Y-30030343D01*
X41277513Y-30101771D01*
X41134656Y-30101771D01*
X40991799Y-30030343D01*
X40920370Y-29958914D01*
X40848942Y-29816057D01*
X40777513Y-29530343D01*
X40777513Y-29173200D01*
X40848942Y-28887486D01*
X40920370Y-28744629D01*
X40991799Y-28673200D01*
X41134656Y-28601771D01*
X42277513Y-29958914D02*
X42348941Y-30030343D01*
X42277513Y-30101771D01*
X42206084Y-30030343D01*
X42277513Y-29958914D01*
X42277513Y-30101771D01*
X43634656Y-29101771D02*
X43634656Y-30101771D01*
X43277513Y-28530343D02*
X42920370Y-29601771D01*
X43848942Y-29601771D01*
D13*
X95748600Y-41526400D02*
X97748600Y-41526400D01*
X97748600Y-41526400D02*
X97748600Y-40726400D01*
X97748600Y-40726400D02*
X95748600Y-40726400D01*
X95748600Y-40726400D02*
X95748600Y-41526400D01*
X97764600Y-40172400D02*
X95732600Y-40172400D01*
X95732600Y-42080400D02*
X97764600Y-42080400D01*
X97764600Y-40172400D02*
G75*
G03X96748600Y-39156400I-1016000J0D01*
G01*
X96748600Y-39156400D02*
G75*
G03X95732600Y-40172400I0J-1016000D01*
G01*
X95732600Y-42080400D02*
G75*
G03X96748600Y-43096400I1016000J0D01*
G01*
X96748600Y-43096400D02*
G75*
G03X97764600Y-42080400I0J1016000D01*
G01*
D14*
X177738000Y-28678000D02*
X176338000Y-28678000D01*
X177738000Y-25678000D02*
X176338000Y-25678000D01*
D15*
X178930000Y-25992000D02*
G75*
G03X178930000Y-25992000I-29000J0D01*
G01*
D16*
X34740000Y-39810000D02*
X34740000Y-29530000D01*
X34740000Y-29530000D02*
X31960000Y-29530000D01*
X31960000Y-29530000D02*
X31960000Y-39810000D01*
X31960000Y-39810000D02*
X34740000Y-39810000D01*
X34740000Y-41080000D02*
X34740000Y-42470000D01*
X34740000Y-42470000D02*
X33350000Y-42470000D01*
X113847000Y-42426500D02*
X113847000Y-42456500D01*
X113847000Y-48886500D02*
X113847000Y-48856500D01*
X107387000Y-48886500D02*
X107387000Y-48856500D01*
X107387000Y-42456500D02*
X107387000Y-42426500D01*
X113847000Y-44356500D02*
X113847000Y-46956500D01*
X107387000Y-42426500D02*
X113847000Y-42426500D01*
X107387000Y-44356500D02*
X107387000Y-46956500D01*
X107387000Y-48886500D02*
X113847000Y-48886500D01*
X169690000Y-42871500D02*
X170890000Y-42871500D01*
X170890000Y-44631500D02*
X169690000Y-44631500D01*
X162948000Y-44511500D02*
X163878000Y-44511500D01*
X166108000Y-44511500D02*
X165178000Y-44511500D01*
X166108000Y-44511500D02*
X166108000Y-42351500D01*
X162948000Y-44511500D02*
X162948000Y-43051500D01*
X175696000Y-44601500D02*
X176696000Y-44601500D01*
X176696000Y-42901500D02*
X175696000Y-42901500D01*
X98533000Y-45851000D02*
X98533000Y-45101000D01*
X98533000Y-45101000D02*
X99133000Y-45101000D01*
X98233000Y-45101000D02*
X96083000Y-45101000D01*
X104383000Y-45101000D02*
X104383000Y-48651000D01*
X96083000Y-48651000D02*
X98983000Y-48651000D01*
X96083000Y-45101000D02*
X96083000Y-48651000D01*
X104383000Y-48651000D02*
X101483000Y-48651000D01*
X102233000Y-45101000D02*
X104383000Y-45101000D01*
X114831000Y-29847000D02*
X114831000Y-32027000D01*
X114831000Y-36447000D02*
X114831000Y-34267000D01*
X108231000Y-35687000D02*
X108231000Y-34267000D01*
X108231000Y-30607000D02*
X108231000Y-32027000D01*
X114831000Y-36447000D02*
X108991000Y-36447000D01*
X108991000Y-36447000D02*
X108231000Y-35687000D01*
X108231000Y-30607000D02*
X108991000Y-29847000D01*
X108991000Y-29847000D02*
X114831000Y-29847000D01*
D15*
X174253890Y-25376000D02*
G75*
G03X174253890Y-25376000I-203890J0D01*
G01*
D11*
X167259000Y-28702000D02*
X163449000Y-28702000D01*
X163449000Y-28702000D02*
X163449000Y-25654000D01*
X163449000Y-25654000D02*
X167259000Y-25654000D01*
X167259000Y-25654000D02*
X167259000Y-28702000D01*
D16*
X104629000Y-31262400D02*
X103369000Y-31262400D01*
X97809000Y-31262400D02*
X99069000Y-31262400D01*
X104629000Y-35022400D02*
X104629000Y-31262400D01*
X97809000Y-37272400D02*
X97809000Y-31262400D01*
D17*
X130962000Y-48317400D02*
X130962000Y-49079400D01*
X130962000Y-49079400D02*
X146964000Y-49079400D01*
X146964000Y-49079400D02*
X146964000Y-48317400D01*
D16*
X149564000Y-41624800D02*
X149564000Y-40424800D01*
X151324000Y-40424800D02*
X151324000Y-41624800D01*
X149513000Y-30292600D02*
X149513000Y-29092600D01*
X151273000Y-29092600D02*
X151273000Y-30292600D01*
X155000000Y-20000000D02*
X155000000Y-52000000D01*
X155000000Y-52000000D02*
X123000000Y-52000000D01*
X123000000Y-52000000D02*
X123000000Y-20000000D01*
X123000000Y-20000000D02*
X155000000Y-20000000D01*
X91000000Y-20000000D02*
X91000000Y-52000000D01*
X91000000Y-52000000D02*
X59000000Y-52000000D01*
X59000000Y-52000000D02*
X59000000Y-20000000D01*
X59000000Y-20000000D02*
X91000000Y-20000000D01*
X59000000Y-20000000D02*
X59000000Y-52000000D01*
X59000000Y-52000000D02*
X27000000Y-52000000D01*
X27000000Y-52000000D02*
X27000000Y-20000000D01*
X27000000Y-20000000D02*
X59000000Y-20000000D01*
X165786000Y-48989600D02*
X178606000Y-48989600D01*
X178606000Y-48989600D02*
X178606000Y-46209600D01*
X178606000Y-46209600D02*
X165786000Y-46209600D01*
X165786000Y-46209600D02*
X165786000Y-48989600D01*
X164516000Y-48989600D02*
X163126000Y-48989600D01*
X163126000Y-48989600D02*
X163126000Y-47599600D01*
X128762000Y-27442600D02*
X126762000Y-27442600D01*
X126762000Y-27442600D02*
X126762000Y-31342600D01*
X128762000Y-27442600D02*
X128762000Y-31342600D01*
X101424000Y-41796600D02*
X100424000Y-41796600D01*
X100424000Y-43496600D02*
X101424000Y-43496600D01*
X172093000Y-24980000D02*
X173093000Y-24980000D01*
X173093000Y-23280000D02*
X172093000Y-23280000D01*
X168314000Y-26678000D02*
X168314000Y-27678000D01*
X170014000Y-27678000D02*
X170014000Y-26678000D01*
X126963000Y-45956600D02*
X126963000Y-46956600D01*
X128663000Y-46956600D02*
X128663000Y-45956600D01*
X165854000Y-23280000D02*
X164854000Y-23280000D01*
X164854000Y-24980000D02*
X165854000Y-24980000D01*
X118452000Y-41330500D02*
X118452000Y-40330500D01*
X116752000Y-40330500D02*
X116752000Y-41330500D01*
X119745000Y-47183600D02*
X119745000Y-45983600D01*
X121505000Y-45983600D02*
X121505000Y-47183600D01*
X151324000Y-34883800D02*
X151324000Y-36083800D01*
X149564000Y-36083800D02*
X149564000Y-34883800D01*
X149539000Y-47031200D02*
X149539000Y-45831200D01*
X151299000Y-45831200D02*
X151299000Y-47031200D01*
X128642000Y-34198000D02*
X128642000Y-35398000D01*
X126882000Y-35398000D02*
X126882000Y-34198000D01*
X116722000Y-47154400D02*
X116722000Y-45954400D01*
X118482000Y-45954400D02*
X118482000Y-47154400D01*
X128642000Y-39227200D02*
X128642000Y-40427200D01*
X126882000Y-40427200D02*
X126882000Y-39227200D01*
X152180000Y-47031200D02*
X152180000Y-45831200D01*
X153940000Y-45831200D02*
X153940000Y-47031200D01*
X182010000Y-39810000D02*
X182010000Y-29530000D01*
X182010000Y-29530000D02*
X179230000Y-29530000D01*
X179230000Y-29530000D02*
X179230000Y-39810000D01*
X179230000Y-39810000D02*
X182010000Y-39810000D01*
X182010000Y-41080000D02*
X182010000Y-42470000D01*
X182010000Y-42470000D02*
X180620000Y-42470000D01*
X187000000Y-20000000D02*
X187000000Y-52000000D01*
X187000000Y-52000000D02*
X155000000Y-52000000D01*
X155000000Y-52000000D02*
X155000000Y-20000000D01*
X155000000Y-20000000D02*
X187000000Y-20000000D01*
X122996000Y-20000000D02*
X122996000Y-52000000D01*
X122996000Y-52000000D02*
X90996000Y-52000000D01*
X90996000Y-52000000D02*
X90996000Y-20000000D01*
X90996000Y-20000000D02*
X122996000Y-20000000D01*
D11*
X177038095Y-29043381D02*
X177038095Y-29852905D01*
X177085714Y-29948143D01*
X177133333Y-29995762D01*
X177228571Y-30043381D01*
X177419048Y-30043381D01*
X177514286Y-29995762D01*
X177561905Y-29948143D01*
X177609524Y-29852905D01*
X177609524Y-29043381D01*
X178561905Y-29043381D02*
X178085714Y-29043381D01*
X178038095Y-29519571D01*
X178085714Y-29471952D01*
X178180952Y-29424333D01*
X178419048Y-29424333D01*
X178514286Y-29471952D01*
X178561905Y-29519571D01*
X178609524Y-29614810D01*
X178609524Y-29852905D01*
X178561905Y-29948143D01*
X178514286Y-29995762D01*
X178419048Y-30043381D01*
X178180952Y-30043381D01*
X178085714Y-29995762D01*
X178038095Y-29948143D01*
X33016667Y-42922381D02*
X33016667Y-43636667D01*
X32969047Y-43779524D01*
X32873809Y-43874762D01*
X32730952Y-43922381D01*
X32635714Y-43922381D01*
X33921429Y-43255714D02*
X33921429Y-43922381D01*
X33683333Y-42874762D02*
X33445238Y-43589048D01*
X34064286Y-43589048D01*
X109283667Y-42011262D02*
X109426524Y-42058881D01*
X109664620Y-42058881D01*
X109759858Y-42011262D01*
X109807477Y-41963643D01*
X109855096Y-41868405D01*
X109855096Y-41773167D01*
X109807477Y-41677929D01*
X109759858Y-41630310D01*
X109664620Y-41582690D01*
X109474143Y-41535071D01*
X109378905Y-41487452D01*
X109331286Y-41439833D01*
X109283667Y-41344595D01*
X109283667Y-41249357D01*
X109331286Y-41154119D01*
X109378905Y-41106500D01*
X109474143Y-41058881D01*
X109712239Y-41058881D01*
X109855096Y-41106500D01*
X110188429Y-41058881D02*
X110426524Y-42058881D01*
X110617001Y-41344595D01*
X110807477Y-42058881D01*
X111045572Y-41058881D01*
X111950334Y-42058881D02*
X111378905Y-42058881D01*
X111664619Y-42058881D02*
X111664619Y-41058881D01*
X111569381Y-41201738D01*
X111474143Y-41296976D01*
X111378905Y-41344595D01*
X169664143Y-42616381D02*
X169330809Y-42140190D01*
X169092714Y-42616381D02*
X169092714Y-41616381D01*
X169473667Y-41616381D01*
X169568905Y-41664000D01*
X169616524Y-41711619D01*
X169664143Y-41806857D01*
X169664143Y-41949714D01*
X169616524Y-42044952D01*
X169568905Y-42092571D01*
X169473667Y-42140190D01*
X169092714Y-42140190D01*
X170616524Y-42616381D02*
X170045095Y-42616381D01*
X170330809Y-42616381D02*
X170330809Y-41616381D01*
X170235571Y-41759238D01*
X170140333Y-41854476D01*
X170045095Y-41902095D01*
X171235571Y-41616381D02*
X171330810Y-41616381D01*
X171426048Y-41664000D01*
X171473667Y-41711619D01*
X171521286Y-41806857D01*
X171568905Y-41997333D01*
X171568905Y-42235429D01*
X171521286Y-42425905D01*
X171473667Y-42521143D01*
X171426048Y-42568762D01*
X171330810Y-42616381D01*
X171235571Y-42616381D01*
X171140333Y-42568762D01*
X171092714Y-42521143D01*
X171045095Y-42425905D01*
X170997476Y-42235429D01*
X170997476Y-41997333D01*
X171045095Y-41806857D01*
X171092714Y-41711619D01*
X171140333Y-41664000D01*
X171235571Y-41616381D01*
X164496762Y-41822619D02*
X164401524Y-41775000D01*
X164306286Y-41679762D01*
X164163429Y-41536905D01*
X164068190Y-41489286D01*
X163972952Y-41489286D01*
X164020571Y-41727381D02*
X163925333Y-41679762D01*
X163830095Y-41584524D01*
X163782476Y-41394048D01*
X163782476Y-41060714D01*
X163830095Y-40870238D01*
X163925333Y-40775000D01*
X164020571Y-40727381D01*
X164211048Y-40727381D01*
X164306286Y-40775000D01*
X164401524Y-40870238D01*
X164449143Y-41060714D01*
X164449143Y-41394048D01*
X164401524Y-41584524D01*
X164306286Y-41679762D01*
X164211048Y-41727381D01*
X164020571Y-41727381D01*
X165401524Y-41727381D02*
X164830095Y-41727381D01*
X165115809Y-41727381D02*
X165115809Y-40727381D01*
X165020571Y-40870238D01*
X164925333Y-40965476D01*
X164830095Y-41013095D01*
X175982334Y-42521143D02*
X175934715Y-42568762D01*
X175791858Y-42616381D01*
X175696620Y-42616381D01*
X175553762Y-42568762D01*
X175458524Y-42473524D01*
X175410905Y-42378286D01*
X175363286Y-42187810D01*
X175363286Y-42044952D01*
X175410905Y-41854476D01*
X175458524Y-41759238D01*
X175553762Y-41664000D01*
X175696620Y-41616381D01*
X175791858Y-41616381D01*
X175934715Y-41664000D01*
X175982334Y-41711619D01*
X176553762Y-42044952D02*
X176458524Y-41997333D01*
X176410905Y-41949714D01*
X176363286Y-41854476D01*
X176363286Y-41806857D01*
X176410905Y-41711619D01*
X176458524Y-41664000D01*
X176553762Y-41616381D01*
X176744239Y-41616381D01*
X176839477Y-41664000D01*
X176887096Y-41711619D01*
X176934715Y-41806857D01*
X176934715Y-41854476D01*
X176887096Y-41949714D01*
X176839477Y-41997333D01*
X176744239Y-42044952D01*
X176553762Y-42044952D01*
X176458524Y-42092571D01*
X176410905Y-42140190D01*
X176363286Y-42235429D01*
X176363286Y-42425905D01*
X176410905Y-42521143D01*
X176458524Y-42568762D01*
X176553762Y-42616381D01*
X176744239Y-42616381D01*
X176839477Y-42568762D01*
X176887096Y-42521143D01*
X176934715Y-42425905D01*
X176934715Y-42235429D01*
X176887096Y-42140190D01*
X176839477Y-42092571D01*
X176744239Y-42044952D01*
X94281667Y-46378881D02*
X94281667Y-47093167D01*
X94234047Y-47236024D01*
X94138809Y-47331262D01*
X93995952Y-47378881D01*
X93900714Y-47378881D01*
X94710238Y-46474119D02*
X94757857Y-46426500D01*
X94853095Y-46378881D01*
X95091191Y-46378881D01*
X95186429Y-46426500D01*
X95234048Y-46474119D01*
X95281667Y-46569357D01*
X95281667Y-46664595D01*
X95234048Y-46807452D01*
X94662619Y-47378881D01*
X95281667Y-47378881D01*
X111339334Y-29313143D02*
X111291715Y-29360762D01*
X111148858Y-29408381D01*
X111053620Y-29408381D01*
X110910762Y-29360762D01*
X110815524Y-29265524D01*
X110767905Y-29170286D01*
X110720286Y-28979810D01*
X110720286Y-28836952D01*
X110767905Y-28646476D01*
X110815524Y-28551238D01*
X110910762Y-28456000D01*
X111053620Y-28408381D01*
X111148858Y-28408381D01*
X111291715Y-28456000D01*
X111339334Y-28503619D01*
X111672667Y-28408381D02*
X112339334Y-28408381D01*
X111910762Y-29408381D01*
X106807048Y-30170429D02*
X107568953Y-30170429D01*
X107188001Y-30551381D02*
X107188001Y-29789476D01*
X172593095Y-28916381D02*
X172593095Y-29725905D01*
X172640714Y-29821143D01*
X172688333Y-29868762D01*
X172783571Y-29916381D01*
X172974048Y-29916381D01*
X173069286Y-29868762D01*
X173116905Y-29821143D01*
X173164524Y-29725905D01*
X173164524Y-28916381D01*
X174164524Y-29916381D02*
X173593095Y-29916381D01*
X173878809Y-29916381D02*
X173878809Y-28916381D01*
X173783571Y-29059238D01*
X173688333Y-29154476D01*
X173593095Y-29202095D01*
X165735095Y-28916381D02*
X165735095Y-29725905D01*
X165782714Y-29821143D01*
X165830333Y-29868762D01*
X165925571Y-29916381D01*
X166116048Y-29916381D01*
X166211286Y-29868762D01*
X166258905Y-29821143D01*
X166306524Y-29725905D01*
X166306524Y-28916381D01*
X166735095Y-29011619D02*
X166782714Y-28964000D01*
X166877952Y-28916381D01*
X167116048Y-28916381D01*
X167211286Y-28964000D01*
X167258905Y-29011619D01*
X167306524Y-29106857D01*
X167306524Y-29202095D01*
X167258905Y-29344952D01*
X166687476Y-29916381D01*
X167306524Y-29916381D01*
X104140095Y-28852881D02*
X104140095Y-29662405D01*
X104187714Y-29757643D01*
X104235333Y-29805262D01*
X104330571Y-29852881D01*
X104521048Y-29852881D01*
X104616286Y-29805262D01*
X104663905Y-29757643D01*
X104711524Y-29662405D01*
X104711524Y-28852881D01*
X105616286Y-29186214D02*
X105616286Y-29852881D01*
X105378190Y-28805262D02*
X105140095Y-29519548D01*
X105759143Y-29519548D01*
X147320095Y-25106381D02*
X147320095Y-25915905D01*
X147367714Y-26011143D01*
X147415333Y-26058762D01*
X147510571Y-26106381D01*
X147701048Y-26106381D01*
X147796286Y-26058762D01*
X147843905Y-26011143D01*
X147891524Y-25915905D01*
X147891524Y-25106381D01*
X148272476Y-25106381D02*
X148891524Y-25106381D01*
X148558190Y-25487333D01*
X148701048Y-25487333D01*
X148796286Y-25534952D01*
X148843905Y-25582571D01*
X148891524Y-25677810D01*
X148891524Y-25915905D01*
X148843905Y-26011143D01*
X148796286Y-26058762D01*
X148701048Y-26106381D01*
X148415333Y-26106381D01*
X148320095Y-26058762D01*
X148272476Y-26011143D01*
X152471381Y-41187666D02*
X151995190Y-41521000D01*
X152471381Y-41759095D02*
X151471381Y-41759095D01*
X151471381Y-41378142D01*
X151519000Y-41282904D01*
X151566619Y-41235285D01*
X151661857Y-41187666D01*
X151804714Y-41187666D01*
X151899952Y-41235285D01*
X151947571Y-41282904D01*
X151995190Y-41378142D01*
X151995190Y-41759095D01*
X151899952Y-40616238D02*
X151852333Y-40711476D01*
X151804714Y-40759095D01*
X151709476Y-40806714D01*
X151661857Y-40806714D01*
X151566619Y-40759095D01*
X151519000Y-40711476D01*
X151471381Y-40616238D01*
X151471381Y-40425761D01*
X151519000Y-40330523D01*
X151566619Y-40282904D01*
X151661857Y-40235285D01*
X151709476Y-40235285D01*
X151804714Y-40282904D01*
X151852333Y-40330523D01*
X151899952Y-40425761D01*
X151899952Y-40616238D01*
X151947571Y-40711476D01*
X151995190Y-40759095D01*
X152090429Y-40806714D01*
X152280905Y-40806714D01*
X152376143Y-40759095D01*
X152423762Y-40711476D01*
X152471381Y-40616238D01*
X152471381Y-40425761D01*
X152423762Y-40330523D01*
X152376143Y-40282904D01*
X152280905Y-40235285D01*
X152090429Y-40235285D01*
X151995190Y-40282904D01*
X151947571Y-40330523D01*
X151899952Y-40425761D01*
X152471381Y-29859266D02*
X151995190Y-30192600D01*
X152471381Y-30430695D02*
X151471381Y-30430695D01*
X151471381Y-30049742D01*
X151519000Y-29954504D01*
X151566619Y-29906885D01*
X151661857Y-29859266D01*
X151804714Y-29859266D01*
X151899952Y-29906885D01*
X151947571Y-29954504D01*
X151995190Y-30049742D01*
X151995190Y-30430695D01*
X151471381Y-29525933D02*
X151471381Y-28859266D01*
X152471381Y-29287838D01*
X138636476Y-36710881D02*
X138636476Y-35710881D01*
X138969810Y-36425167D01*
X139303143Y-35710881D01*
X139303143Y-36710881D01*
X140207905Y-36044214D02*
X140207905Y-36710881D01*
X139969809Y-35663262D02*
X139731714Y-36377548D01*
X140350762Y-36377548D01*
X73167976Y-36583881D02*
X73167976Y-35583881D01*
X73501310Y-36298167D01*
X73834643Y-35583881D01*
X73834643Y-36583881D01*
X74263214Y-35679119D02*
X74310833Y-35631500D01*
X74406071Y-35583881D01*
X74644167Y-35583881D01*
X74739405Y-35631500D01*
X74787024Y-35679119D01*
X74834643Y-35774357D01*
X74834643Y-35869595D01*
X74787024Y-36012452D01*
X74215595Y-36583881D01*
X74834643Y-36583881D01*
X41735476Y-36583881D02*
X41735476Y-35583881D01*
X42068810Y-36298167D01*
X42402143Y-35583881D01*
X42402143Y-36583881D01*
X43402143Y-36583881D02*
X42830714Y-36583881D01*
X43116428Y-36583881D02*
X43116428Y-35583881D01*
X43021190Y-35726738D01*
X42925952Y-35821976D01*
X42830714Y-35869595D01*
X161792667Y-47051981D02*
X161792667Y-47766267D01*
X161745047Y-47909124D01*
X161649809Y-48004362D01*
X161506952Y-48051981D01*
X161411714Y-48051981D01*
X162792667Y-48051981D02*
X162221238Y-48051981D01*
X162506952Y-48051981D02*
X162506952Y-47051981D01*
X162411714Y-47194838D01*
X162316476Y-47290076D01*
X162221238Y-47337695D01*
X130055881Y-30430695D02*
X129055881Y-30430695D01*
X129055881Y-30192600D01*
X129103500Y-30049742D01*
X129198738Y-29954504D01*
X129293976Y-29906885D01*
X129484452Y-29859266D01*
X129627310Y-29859266D01*
X129817786Y-29906885D01*
X129913024Y-29954504D01*
X130008262Y-30049742D01*
X130055881Y-30192600D01*
X130055881Y-30430695D01*
X130055881Y-28906885D02*
X130055881Y-29478314D01*
X130055881Y-29192600D02*
X129055881Y-29192600D01*
X129198738Y-29287838D01*
X129293976Y-29383076D01*
X129341595Y-29478314D01*
X100757334Y-41503743D02*
X100709715Y-41551362D01*
X100566858Y-41598981D01*
X100471620Y-41598981D01*
X100328762Y-41551362D01*
X100233524Y-41456124D01*
X100185905Y-41360886D01*
X100138286Y-41170410D01*
X100138286Y-41027552D01*
X100185905Y-40837076D01*
X100233524Y-40741838D01*
X100328762Y-40646600D01*
X100471620Y-40598981D01*
X100566858Y-40598981D01*
X100709715Y-40646600D01*
X100757334Y-40694219D01*
X101614477Y-40598981D02*
X101424000Y-40598981D01*
X101328762Y-40646600D01*
X101281143Y-40694219D01*
X101185905Y-40837076D01*
X101138286Y-41027552D01*
X101138286Y-41408505D01*
X101185905Y-41503743D01*
X101233524Y-41551362D01*
X101328762Y-41598981D01*
X101519239Y-41598981D01*
X101614477Y-41551362D01*
X101662096Y-41503743D01*
X101709715Y-41408505D01*
X101709715Y-41170410D01*
X101662096Y-41075171D01*
X101614477Y-41027552D01*
X101519239Y-40979933D01*
X101328762Y-40979933D01*
X101233524Y-41027552D01*
X101185905Y-41075171D01*
X101138286Y-41170410D01*
X172426334Y-22963143D02*
X172378715Y-23010762D01*
X172235858Y-23058381D01*
X172140620Y-23058381D01*
X171997762Y-23010762D01*
X171902524Y-22915524D01*
X171854905Y-22820286D01*
X171807286Y-22629810D01*
X171807286Y-22486952D01*
X171854905Y-22296476D01*
X171902524Y-22201238D01*
X171997762Y-22106000D01*
X172140620Y-22058381D01*
X172235858Y-22058381D01*
X172378715Y-22106000D01*
X172426334Y-22153619D01*
X173331096Y-22058381D02*
X172854905Y-22058381D01*
X172807286Y-22534571D01*
X172854905Y-22486952D01*
X172950143Y-22439333D01*
X173188239Y-22439333D01*
X173283477Y-22486952D01*
X173331096Y-22534571D01*
X173378715Y-22629810D01*
X173378715Y-22867905D01*
X173331096Y-22963143D01*
X173283477Y-23010762D01*
X173188239Y-23058381D01*
X172950143Y-23058381D01*
X172854905Y-23010762D01*
X172807286Y-22963143D01*
X168997334Y-25122143D02*
X168949715Y-25169762D01*
X168806858Y-25217381D01*
X168711620Y-25217381D01*
X168568762Y-25169762D01*
X168473524Y-25074524D01*
X168425905Y-24979286D01*
X168378286Y-24788810D01*
X168378286Y-24645952D01*
X168425905Y-24455476D01*
X168473524Y-24360238D01*
X168568762Y-24265000D01*
X168711620Y-24217381D01*
X168806858Y-24217381D01*
X168949715Y-24265000D01*
X168997334Y-24312619D01*
X169854477Y-24550714D02*
X169854477Y-25217381D01*
X169616381Y-24169762D02*
X169378286Y-24884048D01*
X169997334Y-24884048D01*
X127658834Y-44362643D02*
X127611215Y-44410262D01*
X127468358Y-44457881D01*
X127373120Y-44457881D01*
X127230262Y-44410262D01*
X127135024Y-44315024D01*
X127087405Y-44219786D01*
X127039786Y-44029310D01*
X127039786Y-43886452D01*
X127087405Y-43695976D01*
X127135024Y-43600738D01*
X127230262Y-43505500D01*
X127373120Y-43457881D01*
X127468358Y-43457881D01*
X127611215Y-43505500D01*
X127658834Y-43553119D01*
X127992167Y-43457881D02*
X128611215Y-43457881D01*
X128277881Y-43838833D01*
X128420739Y-43838833D01*
X128515977Y-43886452D01*
X128563596Y-43934071D01*
X128611215Y-44029310D01*
X128611215Y-44267405D01*
X128563596Y-44362643D01*
X128515977Y-44410262D01*
X128420739Y-44457881D01*
X128135024Y-44457881D01*
X128039786Y-44410262D01*
X127992167Y-44362643D01*
X165187334Y-22987143D02*
X165139715Y-23034762D01*
X164996858Y-23082381D01*
X164901620Y-23082381D01*
X164758762Y-23034762D01*
X164663524Y-22939524D01*
X164615905Y-22844286D01*
X164568286Y-22653810D01*
X164568286Y-22510952D01*
X164615905Y-22320476D01*
X164663524Y-22225238D01*
X164758762Y-22130000D01*
X164901620Y-22082381D01*
X164996858Y-22082381D01*
X165139715Y-22130000D01*
X165187334Y-22177619D01*
X165568286Y-22177619D02*
X165615905Y-22130000D01*
X165711143Y-22082381D01*
X165949239Y-22082381D01*
X166044477Y-22130000D01*
X166092096Y-22177619D01*
X166139715Y-22272857D01*
X166139715Y-22368095D01*
X166092096Y-22510952D01*
X165520667Y-23082381D01*
X166139715Y-23082381D01*
X117435334Y-38647643D02*
X117387715Y-38695262D01*
X117244858Y-38742881D01*
X117149620Y-38742881D01*
X117006762Y-38695262D01*
X116911524Y-38600024D01*
X116863905Y-38504786D01*
X116816286Y-38314310D01*
X116816286Y-38171452D01*
X116863905Y-37980976D01*
X116911524Y-37885738D01*
X117006762Y-37790500D01*
X117149620Y-37742881D01*
X117244858Y-37742881D01*
X117387715Y-37790500D01*
X117435334Y-37838119D01*
X118387715Y-38742881D02*
X117816286Y-38742881D01*
X118102000Y-38742881D02*
X118102000Y-37742881D01*
X118006762Y-37885738D01*
X117911524Y-37980976D01*
X117816286Y-38028595D01*
X120419834Y-43886381D02*
X120086500Y-43410190D01*
X119848405Y-43886381D02*
X119848405Y-42886381D01*
X120229358Y-42886381D01*
X120324596Y-42934000D01*
X120372215Y-42981619D01*
X120419834Y-43076857D01*
X120419834Y-43219714D01*
X120372215Y-43314952D01*
X120324596Y-43362571D01*
X120229358Y-43410190D01*
X119848405Y-43410190D01*
X121372215Y-43886381D02*
X120800786Y-43886381D01*
X121086500Y-43886381D02*
X121086500Y-42886381D01*
X120991262Y-43029238D01*
X120896024Y-43124476D01*
X120800786Y-43172095D01*
X152471381Y-35650466D02*
X151995190Y-35983800D01*
X152471381Y-36221895D02*
X151471381Y-36221895D01*
X151471381Y-35840942D01*
X151519000Y-35745704D01*
X151566619Y-35698085D01*
X151661857Y-35650466D01*
X151804714Y-35650466D01*
X151899952Y-35698085D01*
X151947571Y-35745704D01*
X151995190Y-35840942D01*
X151995190Y-36221895D01*
X151471381Y-34793323D02*
X151471381Y-34983800D01*
X151519000Y-35079038D01*
X151566619Y-35126657D01*
X151709476Y-35221895D01*
X151899952Y-35269514D01*
X152280905Y-35269514D01*
X152376143Y-35221895D01*
X152423762Y-35174276D01*
X152471381Y-35079038D01*
X152471381Y-34888561D01*
X152423762Y-34793323D01*
X152376143Y-34745704D01*
X152280905Y-34698085D01*
X152042810Y-34698085D01*
X151947571Y-34745704D01*
X151899952Y-34793323D01*
X151852333Y-34888561D01*
X151852333Y-35079038D01*
X151899952Y-35174276D01*
X151947571Y-35221895D01*
X152042810Y-35269514D01*
X149296381Y-46597866D02*
X148820190Y-46931200D01*
X149296381Y-47169295D02*
X148296381Y-47169295D01*
X148296381Y-46788342D01*
X148344000Y-46693104D01*
X148391619Y-46645485D01*
X148486857Y-46597866D01*
X148629714Y-46597866D01*
X148724952Y-46645485D01*
X148772571Y-46693104D01*
X148820190Y-46788342D01*
X148820190Y-47169295D01*
X148296381Y-45693104D02*
X148296381Y-46169295D01*
X148772571Y-46216914D01*
X148724952Y-46169295D01*
X148677333Y-46074057D01*
X148677333Y-45835961D01*
X148724952Y-45740723D01*
X148772571Y-45693104D01*
X148867810Y-45645485D01*
X149105905Y-45645485D01*
X149201143Y-45693104D01*
X149248762Y-45740723D01*
X149296381Y-45835961D01*
X149296381Y-46074057D01*
X149248762Y-46169295D01*
X149201143Y-46216914D01*
X129801881Y-34964666D02*
X129325690Y-35298000D01*
X129801881Y-35536095D02*
X128801881Y-35536095D01*
X128801881Y-35155142D01*
X128849500Y-35059904D01*
X128897119Y-35012285D01*
X128992357Y-34964666D01*
X129135214Y-34964666D01*
X129230452Y-35012285D01*
X129278071Y-35059904D01*
X129325690Y-35155142D01*
X129325690Y-35536095D01*
X128801881Y-34631333D02*
X128801881Y-34012285D01*
X129182833Y-34345619D01*
X129182833Y-34202761D01*
X129230452Y-34107523D01*
X129278071Y-34059904D01*
X129373310Y-34012285D01*
X129611405Y-34012285D01*
X129706643Y-34059904D01*
X129754262Y-34107523D01*
X129801881Y-34202761D01*
X129801881Y-34488476D01*
X129754262Y-34583714D01*
X129706643Y-34631333D01*
X117435334Y-43886381D02*
X117102000Y-43410190D01*
X116863905Y-43886381D02*
X116863905Y-42886381D01*
X117244858Y-42886381D01*
X117340096Y-42934000D01*
X117387715Y-42981619D01*
X117435334Y-43076857D01*
X117435334Y-43219714D01*
X117387715Y-43314952D01*
X117340096Y-43362571D01*
X117244858Y-43410190D01*
X116863905Y-43410190D01*
X117816286Y-42981619D02*
X117863905Y-42934000D01*
X117959143Y-42886381D01*
X118197239Y-42886381D01*
X118292477Y-42934000D01*
X118340096Y-42981619D01*
X118387715Y-43076857D01*
X118387715Y-43172095D01*
X118340096Y-43314952D01*
X117768667Y-43886381D01*
X118387715Y-43886381D01*
X129865381Y-39993866D02*
X129389190Y-40327200D01*
X129865381Y-40565295D02*
X128865381Y-40565295D01*
X128865381Y-40184342D01*
X128913000Y-40089104D01*
X128960619Y-40041485D01*
X129055857Y-39993866D01*
X129198714Y-39993866D01*
X129293952Y-40041485D01*
X129341571Y-40089104D01*
X129389190Y-40184342D01*
X129389190Y-40565295D01*
X129198714Y-39136723D02*
X129865381Y-39136723D01*
X128817762Y-39374819D02*
X129532048Y-39612914D01*
X129532048Y-38993866D01*
X155138381Y-46597866D02*
X154662190Y-46931200D01*
X155138381Y-47169295D02*
X154138381Y-47169295D01*
X154138381Y-46788342D01*
X154186000Y-46693104D01*
X154233619Y-46645485D01*
X154328857Y-46597866D01*
X154471714Y-46597866D01*
X154566952Y-46645485D01*
X154614571Y-46693104D01*
X154662190Y-46788342D01*
X154662190Y-47169295D01*
X155138381Y-46121676D02*
X155138381Y-45931200D01*
X155090762Y-45835961D01*
X155043143Y-45788342D01*
X154900286Y-45693104D01*
X154709810Y-45645485D01*
X154328857Y-45645485D01*
X154233619Y-45693104D01*
X154186000Y-45740723D01*
X154138381Y-45835961D01*
X154138381Y-46026438D01*
X154186000Y-46121676D01*
X154233619Y-46169295D01*
X154328857Y-46216914D01*
X154566952Y-46216914D01*
X154662190Y-46169295D01*
X154709810Y-46121676D01*
X154757429Y-46026438D01*
X154757429Y-45835961D01*
X154709810Y-45740723D01*
X154662190Y-45693104D01*
X154566952Y-45645485D01*
X180286667Y-42922381D02*
X180286667Y-43636667D01*
X180239047Y-43779524D01*
X180143809Y-43874762D01*
X180000952Y-43922381D01*
X179905714Y-43922381D01*
X180667619Y-42922381D02*
X181286667Y-42922381D01*
X180953333Y-43303333D01*
X181096191Y-43303333D01*
X181191429Y-43350952D01*
X181239048Y-43398571D01*
X181286667Y-43493810D01*
X181286667Y-43731905D01*
X181239048Y-43827143D01*
X181191429Y-43874762D01*
X181096191Y-43922381D01*
X180810476Y-43922381D01*
X180715238Y-43874762D01*
X180667619Y-43827143D01*
X170513476Y-36393381D02*
X170513476Y-35393381D01*
X170846810Y-36107667D01*
X171180143Y-35393381D01*
X171180143Y-36393381D01*
X172132524Y-35393381D02*
X171656333Y-35393381D01*
X171608714Y-35869571D01*
X171656333Y-35821952D01*
X171751571Y-35774333D01*
X171989667Y-35774333D01*
X172084905Y-35821952D01*
X172132524Y-35869571D01*
X172180143Y-35964810D01*
X172180143Y-36202905D01*
X172132524Y-36298143D01*
X172084905Y-36345762D01*
X171989667Y-36393381D01*
X171751571Y-36393381D01*
X171656333Y-36345762D01*
X171608714Y-36298143D01*
X105870476Y-36456881D02*
X105870476Y-35456881D01*
X106203810Y-36171167D01*
X106537143Y-35456881D01*
X106537143Y-36456881D01*
X106918095Y-35456881D02*
X107537143Y-35456881D01*
X107203809Y-35837833D01*
X107346667Y-35837833D01*
X107441905Y-35885452D01*
X107489524Y-35933071D01*
X107537143Y-36028310D01*
X107537143Y-36266405D01*
X107489524Y-36361643D01*
X107441905Y-36409262D01*
X107346667Y-36456881D01*
X107060952Y-36456881D01*
X106965714Y-36409262D01*
X106918095Y-36361643D01*
%LPC*%
D18*
X96748600Y-42476400D03*
X96748600Y-39776400D03*
X96748600Y-41126400D03*
D19*
X178238000Y-25978000D03*
X178238000Y-26778000D03*
X178238000Y-27578000D03*
X178238000Y-28378000D03*
X175838000Y-28378000D03*
X175838000Y-27578000D03*
X175838000Y-26778000D03*
X175838000Y-25978000D03*
D20*
X33350000Y-41080000D03*
D21*
X33350000Y-38540000D03*
X33350000Y-36000000D03*
X33350000Y-33460000D03*
X33350000Y-30920000D03*
D22*
X106637000Y-47906500D03*
X106637000Y-43406500D03*
X114597000Y-43406500D03*
X114597000Y-47906500D03*
D23*
X171640000Y-43751500D03*
X168940000Y-43751500D03*
D24*
X165478000Y-42751500D03*
X163578000Y-42751500D03*
X164528000Y-44751500D03*
D25*
X177196000Y-43751500D03*
X175196000Y-43751500D03*
D26*
X100233000Y-46101000D03*
X100883000Y-46101000D03*
X99583000Y-46101000D03*
X101533000Y-46101000D03*
X98933000Y-46101000D03*
D27*
X97433000Y-45851000D03*
X103033000Y-45851000D03*
D28*
X100233000Y-48001000D03*
D29*
X108831000Y-33147000D03*
X114231000Y-33147000D03*
D30*
X173645000Y-26203000D03*
X173645000Y-26853000D03*
X173645000Y-27503000D03*
X173645000Y-28153000D03*
X171595000Y-28153000D03*
X171595000Y-27503000D03*
X171595000Y-26853000D03*
X171595000Y-26203000D03*
D31*
X166454000Y-28178000D03*
D32*
X166454000Y-27178000D03*
D31*
X166454000Y-26178000D03*
X164254000Y-26178000D03*
D32*
X164254000Y-27178000D03*
D31*
X164254000Y-28178000D03*
D33*
X101219000Y-30022400D03*
D34*
X101219000Y-36322400D03*
X103519000Y-36322400D03*
X98919000Y-36322400D03*
D35*
X131278000Y-33458400D03*
X131278000Y-35458400D03*
X131278000Y-37458400D03*
X131278000Y-39458400D03*
X131278000Y-41458400D03*
X131278000Y-43458400D03*
X131278000Y-45458400D03*
X131278000Y-47458400D03*
X146678000Y-47458400D03*
X146678000Y-45458400D03*
X146678000Y-43458400D03*
X146678000Y-41458400D03*
X146678000Y-39458400D03*
X146678000Y-37458400D03*
X146678000Y-35458400D03*
X146678000Y-33458400D03*
D36*
X133968000Y-49158400D03*
X135968000Y-49158400D03*
X137968000Y-49158400D03*
X139968000Y-49158400D03*
X141968000Y-49158400D03*
X143968000Y-49158400D03*
D37*
X150444000Y-39674800D03*
X150444000Y-42374800D03*
X150393000Y-28342600D03*
X150393000Y-31042600D03*
D38*
X151500000Y-21270000D03*
X148960000Y-21270000D03*
X129040000Y-21270000D03*
X126500000Y-21270000D03*
X151500000Y-50730000D03*
X148960000Y-50730000D03*
X129040000Y-50730000D03*
X126500000Y-50730000D03*
X153730000Y-30920000D03*
X153730000Y-33460000D03*
X153730000Y-36000000D03*
X153730000Y-38540000D03*
X153730000Y-41080000D03*
X124270000Y-30920000D03*
X124270000Y-33460000D03*
X124270000Y-36000000D03*
X124270000Y-38540000D03*
X124270000Y-41080000D03*
X87500000Y-21270000D03*
X84960000Y-21270000D03*
X65040000Y-21270000D03*
X62500000Y-21270000D03*
X87500000Y-50730000D03*
X84960000Y-50730000D03*
X65040000Y-50730000D03*
X62500000Y-50730000D03*
X89730000Y-30920000D03*
X89730000Y-33460000D03*
X89730000Y-36000000D03*
X89730000Y-38540000D03*
X89730000Y-41080000D03*
X60270000Y-30920000D03*
X60270000Y-33460000D03*
X60270000Y-36000000D03*
X60270000Y-38540000D03*
X60270000Y-41080000D03*
X55500000Y-21270000D03*
X52960000Y-21270000D03*
X33040000Y-21270000D03*
X30500000Y-21270000D03*
X55500000Y-50730000D03*
X52960000Y-50730000D03*
X33040000Y-50730000D03*
X30500000Y-50730000D03*
X57730000Y-30920000D03*
X57730000Y-33460000D03*
X57730000Y-36000000D03*
X57730000Y-38540000D03*
X57730000Y-41080000D03*
X28270000Y-30920000D03*
X28270000Y-33460000D03*
X28270000Y-36000000D03*
X28270000Y-38540000D03*
X28270000Y-41080000D03*
D20*
X164516000Y-47599600D03*
D21*
X167056000Y-47599600D03*
X169596000Y-47599600D03*
X172136000Y-47599600D03*
X174676000Y-47599600D03*
X177216000Y-47599600D03*
D39*
X127762000Y-28042600D03*
X127762000Y-31342600D03*
D25*
X99924000Y-42646600D03*
X101924000Y-42646600D03*
X173593000Y-24130000D03*
X171593000Y-24130000D03*
D40*
X169164000Y-28178000D03*
X169164000Y-26178000D03*
X127813000Y-47456600D03*
X127813000Y-45456600D03*
D25*
X164354000Y-24130000D03*
X166354000Y-24130000D03*
D40*
X117602000Y-39830500D03*
X117602000Y-41830500D03*
D37*
X120625000Y-45233600D03*
X120625000Y-47933600D03*
X150444000Y-36833800D03*
X150444000Y-34133800D03*
X150419000Y-45081200D03*
X150419000Y-47781200D03*
X127762000Y-36148000D03*
X127762000Y-33448000D03*
X117602000Y-45204400D03*
X117602000Y-47904400D03*
X127762000Y-41177200D03*
X127762000Y-38477200D03*
X153060000Y-45081200D03*
X153060000Y-47781200D03*
D20*
X180620000Y-41080000D03*
D21*
X180620000Y-38540000D03*
X180620000Y-36000000D03*
X180620000Y-33460000D03*
X180620000Y-30920000D03*
D38*
X183500000Y-21270000D03*
X180960000Y-21270000D03*
X161040000Y-21270000D03*
X158500000Y-21270000D03*
X183500000Y-50730000D03*
X180960000Y-50730000D03*
X161040000Y-50730000D03*
X158500000Y-50730000D03*
X185730000Y-30920000D03*
X185730000Y-33460000D03*
X185730000Y-36000000D03*
X185730000Y-38540000D03*
X185730000Y-41080000D03*
X156270000Y-30920000D03*
X156270000Y-33460000D03*
X156270000Y-36000000D03*
X156270000Y-38540000D03*
X156270000Y-41080000D03*
X119496000Y-21270000D03*
X116956000Y-21270000D03*
X97036000Y-21270000D03*
X94496000Y-21270000D03*
X119496000Y-50730000D03*
X116956000Y-50730000D03*
X97036000Y-50730000D03*
X94496000Y-50730000D03*
X121726000Y-30920000D03*
X121726000Y-33460000D03*
X121726000Y-36000000D03*
X121726000Y-38540000D03*
X121726000Y-41080000D03*
X92266000Y-30920000D03*
X92266000Y-33460000D03*
X92266000Y-36000000D03*
X92266000Y-38540000D03*
X92266000Y-41080000D03*
M02*
