G04 #@! TF.FileFunction,Copper,L2,Bot,Signal*
%FSLAX46Y46*%
G04 Gerber Fmt 4.6, Leading zero omitted, Abs format (unit mm)*
G04 Created by KiCad (PCBNEW 4.0.6) date Thu Nov 23 19:04:47 2017*
%MOMM*%
%LPD*%
G01*
G04 APERTURE LIST*
%ADD10C,0.100000*%
%ADD11C,0.600000*%
%ADD12R,1.700000X1.700000*%
%ADD13O,1.700000X1.700000*%
%ADD14O,1.800000X1.100000*%
%ADD15O,2.200000X1.100000*%
%ADD16C,1.700000*%
%ADD17C,0.200000*%
%ADD18C,0.400000*%
%ADD19C,0.254000*%
G04 APERTURE END LIST*
D10*
D11*
X85598000Y-45574000D03*
D12*
X162738000Y-44932600D03*
D13*
X165278000Y-44932600D03*
X167818000Y-44932600D03*
X170358000Y-44932600D03*
X172898000Y-44932600D03*
X175438000Y-44932600D03*
D11*
X119300000Y-32321500D03*
X114363500Y-37084000D03*
X119380000Y-37147500D03*
X124300000Y-26670000D03*
X114300000Y-26670000D03*
X106837500Y-24193500D03*
X96837500Y-24193500D03*
X137985500Y-46482000D03*
X137985500Y-44513500D03*
X142113000Y-35750500D03*
X135890000Y-35750500D03*
X164465000Y-35877500D03*
X182816500Y-24130000D03*
X182816500Y-27559000D03*
X164465000Y-32258000D03*
X184023000Y-47625000D03*
X79659500Y-37034500D03*
X69659500Y-37034500D03*
X69850000Y-26289000D03*
X79850000Y-26289000D03*
X49814500Y-45574000D03*
X49814500Y-36971000D03*
X39814500Y-45574000D03*
X39814500Y-36971000D03*
X44754800Y-32156400D03*
X50005000Y-26225500D03*
X40005000Y-26225500D03*
X74676000Y-32156400D03*
D12*
X33350000Y-41080000D03*
D13*
X33350000Y-38540000D03*
X33350000Y-36000000D03*
X33350000Y-33460000D03*
X33350000Y-30920000D03*
D14*
X97433000Y-45851000D03*
X103033000Y-45851000D03*
D15*
X100233000Y-48001000D03*
D12*
X180620000Y-41080000D03*
D13*
X180620000Y-38540000D03*
X180620000Y-36000000D03*
X180620000Y-33460000D03*
X180620000Y-30920000D03*
D16*
X55140000Y-21270000D03*
X52600000Y-21270000D03*
X33400000Y-21270000D03*
X30860000Y-21270000D03*
X55140000Y-50730000D03*
X52600000Y-50730000D03*
X33400000Y-50730000D03*
X30860000Y-50730000D03*
X57730000Y-30920000D03*
X57730000Y-33460000D03*
X57730000Y-36000000D03*
X57730000Y-38540000D03*
X57730000Y-41080000D03*
X28270000Y-30920000D03*
X28270000Y-33460000D03*
X28270000Y-36000000D03*
X28270000Y-38540000D03*
X28270000Y-41080000D03*
X151140000Y-21270000D03*
X148600000Y-21270000D03*
X129400000Y-21270000D03*
X126860000Y-21270000D03*
X151140000Y-50730000D03*
X148600000Y-50730000D03*
X129400000Y-50730000D03*
X126860000Y-50730000D03*
X153730000Y-30920000D03*
X153730000Y-33460000D03*
X153730000Y-36000000D03*
X153730000Y-38540000D03*
X153730000Y-41080000D03*
X124270000Y-30920000D03*
X124270000Y-33460000D03*
X124270000Y-36000000D03*
X124270000Y-38540000D03*
X124270000Y-41080000D03*
X87140000Y-21270000D03*
X84600000Y-21270000D03*
X65400000Y-21270000D03*
X62860000Y-21270000D03*
X87140000Y-50730000D03*
X84600000Y-50730000D03*
X65400000Y-50730000D03*
X62860000Y-50730000D03*
X89730000Y-30920000D03*
X89730000Y-33460000D03*
X89730000Y-36000000D03*
X89730000Y-38540000D03*
X89730000Y-41080000D03*
X60270000Y-30920000D03*
X60270000Y-33460000D03*
X60270000Y-36000000D03*
X60270000Y-38540000D03*
X60270000Y-41080000D03*
X119136000Y-21270000D03*
X116596000Y-21270000D03*
X97396000Y-21270000D03*
X94856000Y-21270000D03*
X119136000Y-50730000D03*
X116596000Y-50730000D03*
X97396000Y-50730000D03*
X94856000Y-50730000D03*
X121726000Y-30920000D03*
X121726000Y-33460000D03*
X121726000Y-36000000D03*
X121726000Y-38540000D03*
X121726000Y-41080000D03*
X92266000Y-30920000D03*
X92266000Y-33460000D03*
X92266000Y-36000000D03*
X92266000Y-38540000D03*
X92266000Y-41080000D03*
X183140000Y-21270000D03*
X180600000Y-21270000D03*
X161400000Y-21270000D03*
X158860000Y-21270000D03*
X183140000Y-50730000D03*
X180600000Y-50730000D03*
X161400000Y-50730000D03*
X158860000Y-50730000D03*
X185730000Y-30920000D03*
X185730000Y-33460000D03*
X185730000Y-36000000D03*
X185730000Y-38540000D03*
X185730000Y-41080000D03*
X156270000Y-30920000D03*
X156270000Y-33460000D03*
X156270000Y-36000000D03*
X156270000Y-38540000D03*
X156270000Y-41080000D03*
D11*
X162966000Y-24130000D03*
X170561000Y-28178000D03*
X175006000Y-24130000D03*
X148851000Y-47462300D03*
X124240000Y-45456000D03*
X101142800Y-27889200D03*
X144647000Y-42454600D03*
X133940000Y-40438900D03*
X144780000Y-32299210D03*
X143764000Y-32308800D03*
X129413000Y-37465000D03*
X143107000Y-41369200D03*
X161848790Y-29006800D03*
X158343604Y-24993600D03*
D17*
X121730000Y-33460000D02*
X121728000Y-33462200D01*
X92270000Y-33460000D02*
X92266000Y-33460000D01*
X92274500Y-33464500D02*
X92270000Y-33460000D01*
X121726000Y-33464500D02*
X92274500Y-33464500D01*
X121728000Y-33462200D02*
X121726000Y-33464500D01*
X121728000Y-33462000D02*
X121728000Y-33462200D01*
X121726000Y-33460000D02*
X121728000Y-33462000D01*
X144735000Y-42454600D02*
X144647000Y-42454600D01*
X153730000Y-33460000D02*
X144735000Y-42454600D01*
X133265000Y-42454600D02*
X144647000Y-42454600D01*
X124270000Y-33460000D02*
X133265000Y-42454600D01*
X121730000Y-30920000D02*
X121726000Y-30920000D01*
X121726000Y-30920000D02*
X92266000Y-30920000D01*
X144211000Y-40438900D02*
X133940000Y-40438900D01*
X153730000Y-30920000D02*
X144211000Y-40438900D01*
X133789000Y-40438900D02*
X133940000Y-40438900D01*
X124270000Y-30920000D02*
X133789000Y-40438900D01*
X129413000Y-37465000D02*
X133317000Y-41369200D01*
X133317000Y-41369200D02*
X143107000Y-41369200D01*
D18*
X121726000Y-41080000D02*
X121730000Y-41080000D01*
X121726000Y-41080000D02*
X92266000Y-41080000D01*
X151373000Y-43437000D02*
X153730000Y-41080000D01*
X126627000Y-43437000D02*
X151373000Y-43437000D01*
X124270000Y-41080000D02*
X126627000Y-43437000D01*
X181874000Y-41075900D02*
X185726000Y-41075900D01*
X181870000Y-41080000D02*
X181874000Y-41075900D01*
X180620000Y-41080000D02*
X181870000Y-41080000D01*
X180620000Y-41080000D02*
X156270000Y-41080000D01*
X185722000Y-41071800D02*
X185726000Y-41075900D01*
X185726000Y-41075900D02*
X185730000Y-41080000D01*
D17*
X158343604Y-24993600D02*
X158343604Y-27127204D01*
X158343604Y-27127204D02*
X158648400Y-27432000D01*
X158648400Y-27432000D02*
X161594800Y-27432000D01*
X161594800Y-27432000D02*
X161848790Y-27685990D01*
X161848790Y-27685990D02*
X161848790Y-29006800D01*
D19*
G36*
X29375258Y-20973319D02*
X29374743Y-21564089D01*
X29600344Y-22110086D01*
X30017717Y-22528188D01*
X30563319Y-22754742D01*
X31154089Y-22755257D01*
X31700086Y-22529656D01*
X32118188Y-22112283D01*
X32129748Y-22084443D01*
X32140344Y-22110086D01*
X32557717Y-22528188D01*
X33103319Y-22754742D01*
X33694089Y-22755257D01*
X34240086Y-22529656D01*
X34658188Y-22112283D01*
X34884742Y-21566681D01*
X34885257Y-20975911D01*
X34775385Y-20710000D01*
X51224598Y-20710000D01*
X51115258Y-20973319D01*
X51114743Y-21564089D01*
X51340344Y-22110086D01*
X51757717Y-22528188D01*
X52303319Y-22754742D01*
X52894089Y-22755257D01*
X53440086Y-22529656D01*
X53858188Y-22112283D01*
X53869748Y-22084443D01*
X53880344Y-22110086D01*
X54297717Y-22528188D01*
X54843319Y-22754742D01*
X55434089Y-22755257D01*
X55980086Y-22529656D01*
X56398188Y-22112283D01*
X56624742Y-21566681D01*
X56625257Y-20975911D01*
X56515385Y-20710000D01*
X61484598Y-20710000D01*
X61375258Y-20973319D01*
X61374743Y-21564089D01*
X61600344Y-22110086D01*
X62017717Y-22528188D01*
X62563319Y-22754742D01*
X63154089Y-22755257D01*
X63700086Y-22529656D01*
X64118188Y-22112283D01*
X64129748Y-22084443D01*
X64140344Y-22110086D01*
X64557717Y-22528188D01*
X65103319Y-22754742D01*
X65694089Y-22755257D01*
X66240086Y-22529656D01*
X66658188Y-22112283D01*
X66884742Y-21566681D01*
X66885257Y-20975911D01*
X66775385Y-20710000D01*
X83224598Y-20710000D01*
X83115258Y-20973319D01*
X83114743Y-21564089D01*
X83340344Y-22110086D01*
X83757717Y-22528188D01*
X84303319Y-22754742D01*
X84894089Y-22755257D01*
X85440086Y-22529656D01*
X85858188Y-22112283D01*
X85869748Y-22084443D01*
X85880344Y-22110086D01*
X86297717Y-22528188D01*
X86843319Y-22754742D01*
X87434089Y-22755257D01*
X87980086Y-22529656D01*
X88398188Y-22112283D01*
X88624742Y-21566681D01*
X88625257Y-20975911D01*
X88515385Y-20710000D01*
X93480598Y-20710000D01*
X93371258Y-20973319D01*
X93370743Y-21564089D01*
X93596344Y-22110086D01*
X94013717Y-22528188D01*
X94559319Y-22754742D01*
X95150089Y-22755257D01*
X95696086Y-22529656D01*
X96114188Y-22112283D01*
X96125748Y-22084443D01*
X96136344Y-22110086D01*
X96553717Y-22528188D01*
X97099319Y-22754742D01*
X97690089Y-22755257D01*
X98236086Y-22529656D01*
X98654188Y-22112283D01*
X98880742Y-21566681D01*
X98881257Y-20975911D01*
X98771385Y-20710000D01*
X115220598Y-20710000D01*
X115111258Y-20973319D01*
X115110743Y-21564089D01*
X115336344Y-22110086D01*
X115753717Y-22528188D01*
X116299319Y-22754742D01*
X116890089Y-22755257D01*
X117436086Y-22529656D01*
X117854188Y-22112283D01*
X117865748Y-22084443D01*
X117876344Y-22110086D01*
X118293717Y-22528188D01*
X118839319Y-22754742D01*
X119430089Y-22755257D01*
X119976086Y-22529656D01*
X120394188Y-22112283D01*
X120620742Y-21566681D01*
X120621257Y-20975911D01*
X120511385Y-20710000D01*
X125484598Y-20710000D01*
X125375258Y-20973319D01*
X125374743Y-21564089D01*
X125600344Y-22110086D01*
X126017717Y-22528188D01*
X126563319Y-22754742D01*
X127154089Y-22755257D01*
X127700086Y-22529656D01*
X128118188Y-22112283D01*
X128129748Y-22084443D01*
X128140344Y-22110086D01*
X128557717Y-22528188D01*
X129103319Y-22754742D01*
X129694089Y-22755257D01*
X130240086Y-22529656D01*
X130658188Y-22112283D01*
X130884742Y-21566681D01*
X130885257Y-20975911D01*
X130775385Y-20710000D01*
X147224598Y-20710000D01*
X147115258Y-20973319D01*
X147114743Y-21564089D01*
X147340344Y-22110086D01*
X147757717Y-22528188D01*
X148303319Y-22754742D01*
X148894089Y-22755257D01*
X149440086Y-22529656D01*
X149858188Y-22112283D01*
X149869748Y-22084443D01*
X149880344Y-22110086D01*
X150297717Y-22528188D01*
X150843319Y-22754742D01*
X151434089Y-22755257D01*
X151980086Y-22529656D01*
X152398188Y-22112283D01*
X152624742Y-21566681D01*
X152625257Y-20975911D01*
X152515385Y-20710000D01*
X157484598Y-20710000D01*
X157375258Y-20973319D01*
X157374743Y-21564089D01*
X157600344Y-22110086D01*
X158017717Y-22528188D01*
X158563319Y-22754742D01*
X159154089Y-22755257D01*
X159700086Y-22529656D01*
X160118188Y-22112283D01*
X160129748Y-22084443D01*
X160140344Y-22110086D01*
X160557717Y-22528188D01*
X161103319Y-22754742D01*
X161694089Y-22755257D01*
X162240086Y-22529656D01*
X162658188Y-22112283D01*
X162884742Y-21566681D01*
X162885257Y-20975911D01*
X162775385Y-20710000D01*
X179224598Y-20710000D01*
X179115258Y-20973319D01*
X179114743Y-21564089D01*
X179340344Y-22110086D01*
X179757717Y-22528188D01*
X180303319Y-22754742D01*
X180894089Y-22755257D01*
X181440086Y-22529656D01*
X181858188Y-22112283D01*
X181869748Y-22084443D01*
X181880344Y-22110086D01*
X182297717Y-22528188D01*
X182843319Y-22754742D01*
X183434089Y-22755257D01*
X183980086Y-22529656D01*
X184398188Y-22112283D01*
X184624742Y-21566681D01*
X184625257Y-20975911D01*
X184515385Y-20710000D01*
X186290000Y-20710000D01*
X186290000Y-29544598D01*
X186026681Y-29435258D01*
X185435911Y-29434743D01*
X184889914Y-29660344D01*
X184471812Y-30077717D01*
X184245258Y-30623319D01*
X184244743Y-31214089D01*
X184470344Y-31760086D01*
X184887717Y-32178188D01*
X184915557Y-32189748D01*
X184889914Y-32200344D01*
X184471812Y-32617717D01*
X184245258Y-33163319D01*
X184244743Y-33754089D01*
X184470344Y-34300086D01*
X184887717Y-34718188D01*
X184915557Y-34729748D01*
X184889914Y-34740344D01*
X184471812Y-35157717D01*
X184245258Y-35703319D01*
X184244743Y-36294089D01*
X184470344Y-36840086D01*
X184887717Y-37258188D01*
X185433319Y-37484742D01*
X186024089Y-37485257D01*
X186290000Y-37375385D01*
X186290000Y-39704598D01*
X186026681Y-39595258D01*
X185435911Y-39594743D01*
X184889914Y-39820344D01*
X184471812Y-40237717D01*
X184470490Y-40240900D01*
X182117440Y-40240900D01*
X182117440Y-40230000D01*
X182073162Y-39994683D01*
X181934090Y-39778559D01*
X181721890Y-39633569D01*
X181470000Y-39582560D01*
X179770000Y-39582560D01*
X179534683Y-39626838D01*
X179318559Y-39765910D01*
X179173569Y-39978110D01*
X179122560Y-40230000D01*
X179122560Y-40245000D01*
X157531757Y-40245000D01*
X157529656Y-40239914D01*
X157112283Y-39821812D01*
X156566681Y-39595258D01*
X155975911Y-39594743D01*
X155429914Y-39820344D01*
X155011812Y-40237717D01*
X155000252Y-40265557D01*
X154989656Y-40239914D01*
X154572283Y-39821812D01*
X154026681Y-39595258D01*
X153435911Y-39594743D01*
X152889914Y-39820344D01*
X152471812Y-40237717D01*
X152245258Y-40783319D01*
X152244743Y-41374089D01*
X152247755Y-41381377D01*
X151027132Y-42602000D01*
X145627064Y-42602000D01*
X152245013Y-35984345D01*
X152244743Y-36294089D01*
X152470344Y-36840086D01*
X152887717Y-37258188D01*
X153433319Y-37484742D01*
X154024089Y-37485257D01*
X154570086Y-37259656D01*
X154988188Y-36842283D01*
X154999748Y-36814443D01*
X155010344Y-36840086D01*
X155427717Y-37258188D01*
X155973319Y-37484742D01*
X156564089Y-37485257D01*
X157110086Y-37259656D01*
X157528188Y-36842283D01*
X157754742Y-36296681D01*
X157755257Y-35705911D01*
X157529656Y-35159914D01*
X157112283Y-34741812D01*
X157084443Y-34730252D01*
X157110086Y-34719656D01*
X157528188Y-34302283D01*
X157754742Y-33756681D01*
X157755257Y-33165911D01*
X157529656Y-32619914D01*
X157112283Y-32201812D01*
X157084443Y-32190252D01*
X157110086Y-32179656D01*
X157528188Y-31762283D01*
X157754742Y-31216681D01*
X157755000Y-30920000D01*
X179105907Y-30920000D01*
X179218946Y-31488285D01*
X179540853Y-31970054D01*
X179870026Y-32190000D01*
X179540853Y-32409946D01*
X179218946Y-32891715D01*
X179105907Y-33460000D01*
X179218946Y-34028285D01*
X179540853Y-34510054D01*
X179870026Y-34730000D01*
X179540853Y-34949946D01*
X179218946Y-35431715D01*
X179105907Y-36000000D01*
X179218946Y-36568285D01*
X179540853Y-37050054D01*
X180022622Y-37371961D01*
X180590907Y-37485000D01*
X180649093Y-37485000D01*
X181217378Y-37371961D01*
X181699147Y-37050054D01*
X182021054Y-36568285D01*
X182134093Y-36000000D01*
X182021054Y-35431715D01*
X181699147Y-34949946D01*
X181369974Y-34730000D01*
X181699147Y-34510054D01*
X182021054Y-34028285D01*
X182134093Y-33460000D01*
X182021054Y-32891715D01*
X181699147Y-32409946D01*
X181369974Y-32190000D01*
X181699147Y-31970054D01*
X182021054Y-31488285D01*
X182134093Y-30920000D01*
X182021054Y-30351715D01*
X181699147Y-29869946D01*
X181217378Y-29548039D01*
X180649093Y-29435000D01*
X180590907Y-29435000D01*
X180022622Y-29548039D01*
X179540853Y-29869946D01*
X179218946Y-30351715D01*
X179105907Y-30920000D01*
X157755000Y-30920000D01*
X157755257Y-30625911D01*
X157529656Y-30079914D01*
X157112283Y-29661812D01*
X156566681Y-29435258D01*
X155975911Y-29434743D01*
X155429914Y-29660344D01*
X155011812Y-30077717D01*
X155000252Y-30105557D01*
X154989656Y-30079914D01*
X154572283Y-29661812D01*
X154026681Y-29435258D01*
X153435911Y-29434743D01*
X152889914Y-29660344D01*
X152471812Y-30077717D01*
X152245258Y-30623319D01*
X152244743Y-31214089D01*
X152289101Y-31321443D01*
X143906555Y-39703900D01*
X134527419Y-39703900D01*
X134470327Y-39646708D01*
X134126799Y-39504062D01*
X133893401Y-39503859D01*
X125711141Y-31321684D01*
X125754742Y-31216681D01*
X125755257Y-30625911D01*
X125529656Y-30079914D01*
X125112283Y-29661812D01*
X124566681Y-29435258D01*
X123975911Y-29434743D01*
X123429914Y-29660344D01*
X123011812Y-30077717D01*
X122998247Y-30110386D01*
X122985656Y-30079914D01*
X122568283Y-29661812D01*
X122022681Y-29435258D01*
X121431911Y-29434743D01*
X120885914Y-29660344D01*
X120467812Y-30077717D01*
X120423264Y-30185000D01*
X93569077Y-30185000D01*
X93525656Y-30079914D01*
X93108283Y-29661812D01*
X92562681Y-29435258D01*
X91971911Y-29434743D01*
X91425914Y-29660344D01*
X91007812Y-30077717D01*
X90998257Y-30100729D01*
X90989656Y-30079914D01*
X90572283Y-29661812D01*
X90026681Y-29435258D01*
X89435911Y-29434743D01*
X88889914Y-29660344D01*
X88471812Y-30077717D01*
X88245258Y-30623319D01*
X88244743Y-31214089D01*
X88470344Y-31760086D01*
X88887717Y-32178188D01*
X88915557Y-32189748D01*
X88889914Y-32200344D01*
X88471812Y-32617717D01*
X88245258Y-33163319D01*
X88244743Y-33754089D01*
X88470344Y-34300086D01*
X88887717Y-34718188D01*
X88915557Y-34729748D01*
X88889914Y-34740344D01*
X88471812Y-35157717D01*
X88245258Y-35703319D01*
X88244743Y-36294089D01*
X88470344Y-36840086D01*
X88887717Y-37258188D01*
X89433319Y-37484742D01*
X90024089Y-37485257D01*
X90570086Y-37259656D01*
X90988188Y-36842283D01*
X90997743Y-36819271D01*
X91006344Y-36840086D01*
X91423717Y-37258188D01*
X91969319Y-37484742D01*
X92560089Y-37485257D01*
X93106086Y-37259656D01*
X93524188Y-36842283D01*
X93750742Y-36296681D01*
X93751257Y-35705911D01*
X93525656Y-35159914D01*
X93108283Y-34741812D01*
X93080443Y-34730252D01*
X93106086Y-34719656D01*
X93524188Y-34302283D01*
X93566867Y-34199500D01*
X120424783Y-34199500D01*
X120466344Y-34300086D01*
X120883717Y-34718188D01*
X120911557Y-34729748D01*
X120885914Y-34740344D01*
X120467812Y-35157717D01*
X120241258Y-35703319D01*
X120240743Y-36294089D01*
X120466344Y-36840086D01*
X120883717Y-37258188D01*
X121429319Y-37484742D01*
X122020089Y-37485257D01*
X122566086Y-37259656D01*
X122984188Y-36842283D01*
X122997753Y-36809614D01*
X123010344Y-36840086D01*
X123427717Y-37258188D01*
X123973319Y-37484742D01*
X124564089Y-37485257D01*
X125110086Y-37259656D01*
X125528188Y-36842283D01*
X125754742Y-36296681D01*
X125755014Y-35984372D01*
X132372936Y-42602000D01*
X126972868Y-42602000D01*
X125752632Y-41381764D01*
X125754742Y-41376681D01*
X125755257Y-40785911D01*
X125529656Y-40239914D01*
X125112283Y-39821812D01*
X124566681Y-39595258D01*
X123975911Y-39594743D01*
X123429914Y-39820344D01*
X123011812Y-40237717D01*
X122998247Y-40270386D01*
X122985656Y-40239914D01*
X122568283Y-39821812D01*
X122022681Y-39595258D01*
X121431911Y-39594743D01*
X120885914Y-39820344D01*
X120467812Y-40237717D01*
X120464788Y-40245000D01*
X93527757Y-40245000D01*
X93525656Y-40239914D01*
X93108283Y-39821812D01*
X92562681Y-39595258D01*
X91971911Y-39594743D01*
X91425914Y-39820344D01*
X91007812Y-40237717D01*
X90998257Y-40260729D01*
X90989656Y-40239914D01*
X90572283Y-39821812D01*
X90026681Y-39595258D01*
X89435911Y-39594743D01*
X88889914Y-39820344D01*
X88471812Y-40237717D01*
X88245258Y-40783319D01*
X88244743Y-41374089D01*
X88470344Y-41920086D01*
X88887717Y-42338188D01*
X89433319Y-42564742D01*
X90024089Y-42565257D01*
X90570086Y-42339656D01*
X90988188Y-41922283D01*
X90997743Y-41899271D01*
X91006344Y-41920086D01*
X91423717Y-42338188D01*
X91969319Y-42564742D01*
X92560089Y-42565257D01*
X93106086Y-42339656D01*
X93524188Y-41922283D01*
X93527212Y-41915000D01*
X120464243Y-41915000D01*
X120466344Y-41920086D01*
X120883717Y-42338188D01*
X121429319Y-42564742D01*
X122020089Y-42565257D01*
X122566086Y-42339656D01*
X122984188Y-41922283D01*
X122997753Y-41889614D01*
X123010344Y-41920086D01*
X123427717Y-42338188D01*
X123973319Y-42564742D01*
X124564089Y-42565257D01*
X124571377Y-42562245D01*
X126036566Y-44027434D01*
X126307459Y-44208439D01*
X126627000Y-44272000D01*
X151373000Y-44272000D01*
X151692541Y-44208439D01*
X151963434Y-44027434D01*
X153428236Y-42562632D01*
X153433319Y-42564742D01*
X154024089Y-42565257D01*
X154570086Y-42339656D01*
X154988188Y-41922283D01*
X154999748Y-41894443D01*
X155010344Y-41920086D01*
X155427717Y-42338188D01*
X155973319Y-42564742D01*
X156564089Y-42565257D01*
X157110086Y-42339656D01*
X157528188Y-41922283D01*
X157531212Y-41915000D01*
X179122560Y-41915000D01*
X179122560Y-41930000D01*
X179166838Y-42165317D01*
X179305910Y-42381441D01*
X179518110Y-42526431D01*
X179770000Y-42577440D01*
X181470000Y-42577440D01*
X181705317Y-42533162D01*
X181921441Y-42394090D01*
X182066431Y-42181890D01*
X182117440Y-41930000D01*
X182117440Y-41910900D01*
X184466548Y-41910900D01*
X184470344Y-41920086D01*
X184887717Y-42338188D01*
X185433319Y-42564742D01*
X186024089Y-42565257D01*
X186290000Y-42455385D01*
X186290000Y-51290000D01*
X184515402Y-51290000D01*
X184624742Y-51026681D01*
X184625257Y-50435911D01*
X184399656Y-49889914D01*
X183982283Y-49471812D01*
X183436681Y-49245258D01*
X182845911Y-49244743D01*
X182299914Y-49470344D01*
X181881812Y-49887717D01*
X181870252Y-49915557D01*
X181859656Y-49889914D01*
X181442283Y-49471812D01*
X180896681Y-49245258D01*
X180305911Y-49244743D01*
X179759914Y-49470344D01*
X179341812Y-49887717D01*
X179115258Y-50433319D01*
X179114743Y-51024089D01*
X179224615Y-51290000D01*
X162775402Y-51290000D01*
X162884742Y-51026681D01*
X162885257Y-50435911D01*
X162659656Y-49889914D01*
X162242283Y-49471812D01*
X161696681Y-49245258D01*
X161105911Y-49244743D01*
X160559914Y-49470344D01*
X160141812Y-49887717D01*
X160130252Y-49915557D01*
X160119656Y-49889914D01*
X159702283Y-49471812D01*
X159156681Y-49245258D01*
X158565911Y-49244743D01*
X158019914Y-49470344D01*
X157601812Y-49887717D01*
X157375258Y-50433319D01*
X157374743Y-51024089D01*
X157484615Y-51290000D01*
X152515402Y-51290000D01*
X152624742Y-51026681D01*
X152625257Y-50435911D01*
X152399656Y-49889914D01*
X151982283Y-49471812D01*
X151436681Y-49245258D01*
X150845911Y-49244743D01*
X150299914Y-49470344D01*
X149881812Y-49887717D01*
X149870252Y-49915557D01*
X149859656Y-49889914D01*
X149442283Y-49471812D01*
X148896681Y-49245258D01*
X148305911Y-49244743D01*
X147759914Y-49470344D01*
X147341812Y-49887717D01*
X147115258Y-50433319D01*
X147114743Y-51024089D01*
X147224615Y-51290000D01*
X130775402Y-51290000D01*
X130884742Y-51026681D01*
X130885257Y-50435911D01*
X130659656Y-49889914D01*
X130242283Y-49471812D01*
X129696681Y-49245258D01*
X129105911Y-49244743D01*
X128559914Y-49470344D01*
X128141812Y-49887717D01*
X128130252Y-49915557D01*
X128119656Y-49889914D01*
X127702283Y-49471812D01*
X127156681Y-49245258D01*
X126565911Y-49244743D01*
X126019914Y-49470344D01*
X125601812Y-49887717D01*
X125375258Y-50433319D01*
X125374743Y-51024089D01*
X125484615Y-51290000D01*
X120511402Y-51290000D01*
X120620742Y-51026681D01*
X120621257Y-50435911D01*
X120395656Y-49889914D01*
X119978283Y-49471812D01*
X119432681Y-49245258D01*
X118841911Y-49244743D01*
X118295914Y-49470344D01*
X117877812Y-49887717D01*
X117866252Y-49915557D01*
X117855656Y-49889914D01*
X117438283Y-49471812D01*
X116892681Y-49245258D01*
X116301911Y-49244743D01*
X115755914Y-49470344D01*
X115337812Y-49887717D01*
X115111258Y-50433319D01*
X115110743Y-51024089D01*
X115220615Y-51290000D01*
X98771402Y-51290000D01*
X98880742Y-51026681D01*
X98881257Y-50435911D01*
X98655656Y-49889914D01*
X98238283Y-49471812D01*
X97692681Y-49245258D01*
X97101911Y-49244743D01*
X96555914Y-49470344D01*
X96137812Y-49887717D01*
X96126252Y-49915557D01*
X96115656Y-49889914D01*
X95698283Y-49471812D01*
X95152681Y-49245258D01*
X94561911Y-49244743D01*
X94015914Y-49470344D01*
X93597812Y-49887717D01*
X93371258Y-50433319D01*
X93370743Y-51024089D01*
X93480615Y-51290000D01*
X88515402Y-51290000D01*
X88624742Y-51026681D01*
X88625257Y-50435911D01*
X88399656Y-49889914D01*
X87982283Y-49471812D01*
X87436681Y-49245258D01*
X86845911Y-49244743D01*
X86299914Y-49470344D01*
X85881812Y-49887717D01*
X85870252Y-49915557D01*
X85859656Y-49889914D01*
X85442283Y-49471812D01*
X84896681Y-49245258D01*
X84305911Y-49244743D01*
X83759914Y-49470344D01*
X83341812Y-49887717D01*
X83115258Y-50433319D01*
X83114743Y-51024089D01*
X83224615Y-51290000D01*
X66775402Y-51290000D01*
X66884742Y-51026681D01*
X66885257Y-50435911D01*
X66659656Y-49889914D01*
X66242283Y-49471812D01*
X65696681Y-49245258D01*
X65105911Y-49244743D01*
X64559914Y-49470344D01*
X64141812Y-49887717D01*
X64130252Y-49915557D01*
X64119656Y-49889914D01*
X63702283Y-49471812D01*
X63156681Y-49245258D01*
X62565911Y-49244743D01*
X62019914Y-49470344D01*
X61601812Y-49887717D01*
X61375258Y-50433319D01*
X61374743Y-51024089D01*
X61484615Y-51290000D01*
X56515402Y-51290000D01*
X56624742Y-51026681D01*
X56625257Y-50435911D01*
X56399656Y-49889914D01*
X55982283Y-49471812D01*
X55436681Y-49245258D01*
X54845911Y-49244743D01*
X54299914Y-49470344D01*
X53881812Y-49887717D01*
X53870252Y-49915557D01*
X53859656Y-49889914D01*
X53442283Y-49471812D01*
X52896681Y-49245258D01*
X52305911Y-49244743D01*
X51759914Y-49470344D01*
X51341812Y-49887717D01*
X51115258Y-50433319D01*
X51114743Y-51024089D01*
X51224615Y-51290000D01*
X34775402Y-51290000D01*
X34884742Y-51026681D01*
X34885257Y-50435911D01*
X34659656Y-49889914D01*
X34242283Y-49471812D01*
X33696681Y-49245258D01*
X33105911Y-49244743D01*
X32559914Y-49470344D01*
X32141812Y-49887717D01*
X32130252Y-49915557D01*
X32119656Y-49889914D01*
X31702283Y-49471812D01*
X31156681Y-49245258D01*
X30565911Y-49244743D01*
X30019914Y-49470344D01*
X29601812Y-49887717D01*
X29375258Y-50433319D01*
X29374743Y-51024089D01*
X29484615Y-51290000D01*
X27710000Y-51290000D01*
X27710000Y-44903507D01*
X163793000Y-44903507D01*
X163793000Y-44961693D01*
X163906039Y-45529978D01*
X164227946Y-46011747D01*
X164709715Y-46333654D01*
X165278000Y-46446693D01*
X165846285Y-46333654D01*
X166328054Y-46011747D01*
X166548000Y-45682574D01*
X166767946Y-46011747D01*
X167249715Y-46333654D01*
X167818000Y-46446693D01*
X168386285Y-46333654D01*
X168868054Y-46011747D01*
X169088000Y-45682574D01*
X169307946Y-46011747D01*
X169789715Y-46333654D01*
X170358000Y-46446693D01*
X170926285Y-46333654D01*
X171408054Y-46011747D01*
X171628000Y-45682574D01*
X171847946Y-46011747D01*
X172329715Y-46333654D01*
X172898000Y-46446693D01*
X173466285Y-46333654D01*
X173948054Y-46011747D01*
X174168000Y-45682574D01*
X174387946Y-46011747D01*
X174869715Y-46333654D01*
X175438000Y-46446693D01*
X176006285Y-46333654D01*
X176488054Y-46011747D01*
X176809961Y-45529978D01*
X176923000Y-44961693D01*
X176923000Y-44903507D01*
X176809961Y-44335222D01*
X176488054Y-43853453D01*
X176006285Y-43531546D01*
X175438000Y-43418507D01*
X174869715Y-43531546D01*
X174387946Y-43853453D01*
X174168000Y-44182626D01*
X173948054Y-43853453D01*
X173466285Y-43531546D01*
X172898000Y-43418507D01*
X172329715Y-43531546D01*
X171847946Y-43853453D01*
X171628000Y-44182626D01*
X171408054Y-43853453D01*
X170926285Y-43531546D01*
X170358000Y-43418507D01*
X169789715Y-43531546D01*
X169307946Y-43853453D01*
X169088000Y-44182626D01*
X168868054Y-43853453D01*
X168386285Y-43531546D01*
X167818000Y-43418507D01*
X167249715Y-43531546D01*
X166767946Y-43853453D01*
X166548000Y-44182626D01*
X166328054Y-43853453D01*
X165846285Y-43531546D01*
X165278000Y-43418507D01*
X164709715Y-43531546D01*
X164227946Y-43853453D01*
X163906039Y-44335222D01*
X163793000Y-44903507D01*
X27710000Y-44903507D01*
X27710000Y-42455402D01*
X27973319Y-42564742D01*
X28564089Y-42565257D01*
X29110086Y-42339656D01*
X29528188Y-41922283D01*
X29754742Y-41376681D01*
X29755257Y-40785911D01*
X29529656Y-40239914D01*
X29519760Y-40230000D01*
X31852560Y-40230000D01*
X31852560Y-41930000D01*
X31896838Y-42165317D01*
X32035910Y-42381441D01*
X32248110Y-42526431D01*
X32500000Y-42577440D01*
X34200000Y-42577440D01*
X34435317Y-42533162D01*
X34651441Y-42394090D01*
X34796431Y-42181890D01*
X34847440Y-41930000D01*
X34847440Y-41374089D01*
X56244743Y-41374089D01*
X56470344Y-41920086D01*
X56887717Y-42338188D01*
X57433319Y-42564742D01*
X58024089Y-42565257D01*
X58570086Y-42339656D01*
X58988188Y-41922283D01*
X58999748Y-41894443D01*
X59010344Y-41920086D01*
X59427717Y-42338188D01*
X59973319Y-42564742D01*
X60564089Y-42565257D01*
X61110086Y-42339656D01*
X61528188Y-41922283D01*
X61754742Y-41376681D01*
X61755257Y-40785911D01*
X61529656Y-40239914D01*
X61112283Y-39821812D01*
X60566681Y-39595258D01*
X59975911Y-39594743D01*
X59429914Y-39820344D01*
X59011812Y-40237717D01*
X59000252Y-40265557D01*
X58989656Y-40239914D01*
X58572283Y-39821812D01*
X58026681Y-39595258D01*
X57435911Y-39594743D01*
X56889914Y-39820344D01*
X56471812Y-40237717D01*
X56245258Y-40783319D01*
X56244743Y-41374089D01*
X34847440Y-41374089D01*
X34847440Y-40230000D01*
X34803162Y-39994683D01*
X34664090Y-39778559D01*
X34451890Y-39633569D01*
X34200000Y-39582560D01*
X32500000Y-39582560D01*
X32264683Y-39626838D01*
X32048559Y-39765910D01*
X31903569Y-39978110D01*
X31852560Y-40230000D01*
X29519760Y-40230000D01*
X29112283Y-39821812D01*
X28566681Y-39595258D01*
X27975911Y-39594743D01*
X27710000Y-39704615D01*
X27710000Y-37375402D01*
X27973319Y-37484742D01*
X28564089Y-37485257D01*
X29110086Y-37259656D01*
X29528188Y-36842283D01*
X29754742Y-36296681D01*
X29755257Y-35705911D01*
X29529656Y-35159914D01*
X29112283Y-34741812D01*
X29084443Y-34730252D01*
X29110086Y-34719656D01*
X29528188Y-34302283D01*
X29754742Y-33756681D01*
X29755257Y-33165911D01*
X29529656Y-32619914D01*
X29112283Y-32201812D01*
X29084443Y-32190252D01*
X29110086Y-32179656D01*
X29528188Y-31762283D01*
X29754742Y-31216681D01*
X29755000Y-30920000D01*
X31835907Y-30920000D01*
X31948946Y-31488285D01*
X32270853Y-31970054D01*
X32600026Y-32190000D01*
X32270853Y-32409946D01*
X31948946Y-32891715D01*
X31835907Y-33460000D01*
X31948946Y-34028285D01*
X32270853Y-34510054D01*
X32600026Y-34730000D01*
X32270853Y-34949946D01*
X31948946Y-35431715D01*
X31835907Y-36000000D01*
X31948946Y-36568285D01*
X32270853Y-37050054D01*
X32752622Y-37371961D01*
X33320907Y-37485000D01*
X33379093Y-37485000D01*
X33947378Y-37371961D01*
X34429147Y-37050054D01*
X34751054Y-36568285D01*
X34864093Y-36000000D01*
X34751054Y-35431715D01*
X34429147Y-34949946D01*
X34099974Y-34730000D01*
X34429147Y-34510054D01*
X34751054Y-34028285D01*
X34864093Y-33460000D01*
X34751054Y-32891715D01*
X34429147Y-32409946D01*
X34099974Y-32190000D01*
X34429147Y-31970054D01*
X34751054Y-31488285D01*
X34805595Y-31214089D01*
X56244743Y-31214089D01*
X56470344Y-31760086D01*
X56887717Y-32178188D01*
X56915557Y-32189748D01*
X56889914Y-32200344D01*
X56471812Y-32617717D01*
X56245258Y-33163319D01*
X56244743Y-33754089D01*
X56470344Y-34300086D01*
X56887717Y-34718188D01*
X56915557Y-34729748D01*
X56889914Y-34740344D01*
X56471812Y-35157717D01*
X56245258Y-35703319D01*
X56244743Y-36294089D01*
X56470344Y-36840086D01*
X56887717Y-37258188D01*
X57433319Y-37484742D01*
X58024089Y-37485257D01*
X58570086Y-37259656D01*
X58988188Y-36842283D01*
X58999748Y-36814443D01*
X59010344Y-36840086D01*
X59427717Y-37258188D01*
X59973319Y-37484742D01*
X60564089Y-37485257D01*
X61110086Y-37259656D01*
X61528188Y-36842283D01*
X61754742Y-36296681D01*
X61755257Y-35705911D01*
X61529656Y-35159914D01*
X61112283Y-34741812D01*
X61084443Y-34730252D01*
X61110086Y-34719656D01*
X61528188Y-34302283D01*
X61754742Y-33756681D01*
X61755257Y-33165911D01*
X61529656Y-32619914D01*
X61112283Y-32201812D01*
X61084443Y-32190252D01*
X61110086Y-32179656D01*
X61528188Y-31762283D01*
X61754742Y-31216681D01*
X61755257Y-30625911D01*
X61529656Y-30079914D01*
X61112283Y-29661812D01*
X60566681Y-29435258D01*
X59975911Y-29434743D01*
X59429914Y-29660344D01*
X59011812Y-30077717D01*
X59000252Y-30105557D01*
X58989656Y-30079914D01*
X58572283Y-29661812D01*
X58026681Y-29435258D01*
X57435911Y-29434743D01*
X56889914Y-29660344D01*
X56471812Y-30077717D01*
X56245258Y-30623319D01*
X56244743Y-31214089D01*
X34805595Y-31214089D01*
X34864093Y-30920000D01*
X34751054Y-30351715D01*
X34429147Y-29869946D01*
X33947378Y-29548039D01*
X33379093Y-29435000D01*
X33320907Y-29435000D01*
X32752622Y-29548039D01*
X32270853Y-29869946D01*
X31948946Y-30351715D01*
X31835907Y-30920000D01*
X29755000Y-30920000D01*
X29755257Y-30625911D01*
X29529656Y-30079914D01*
X29112283Y-29661812D01*
X28566681Y-29435258D01*
X27975911Y-29434743D01*
X27710000Y-29544615D01*
X27710000Y-28074367D01*
X100207638Y-28074367D01*
X100349683Y-28418143D01*
X100612473Y-28681392D01*
X100956001Y-28824038D01*
X101327967Y-28824362D01*
X101671743Y-28682317D01*
X101934992Y-28419527D01*
X102077638Y-28075999D01*
X102077962Y-27704033D01*
X101935917Y-27360257D01*
X101673127Y-27097008D01*
X101329599Y-26954362D01*
X100957633Y-26954038D01*
X100613857Y-27096083D01*
X100350608Y-27358873D01*
X100207962Y-27702401D01*
X100207638Y-28074367D01*
X27710000Y-28074367D01*
X27710000Y-23403700D01*
X129603500Y-23403700D01*
X129603500Y-31445200D01*
X129612185Y-31491359D01*
X129639465Y-31533753D01*
X129681090Y-31562194D01*
X129730500Y-31572200D01*
X143178441Y-31572200D01*
X142971808Y-31778473D01*
X142829162Y-32122001D01*
X142828838Y-32493967D01*
X142970883Y-32837743D01*
X143233673Y-33100992D01*
X143577201Y-33243638D01*
X143949167Y-33243962D01*
X144283947Y-33105634D01*
X144593201Y-33234048D01*
X144965167Y-33234372D01*
X145308943Y-33092327D01*
X145572192Y-32829537D01*
X145714838Y-32486009D01*
X145715162Y-32114043D01*
X145573117Y-31770267D01*
X145375395Y-31572200D01*
X148255500Y-31572200D01*
X148301659Y-31563515D01*
X148344053Y-31536235D01*
X148372494Y-31494610D01*
X148382500Y-31445200D01*
X148382500Y-25178767D01*
X157408442Y-25178767D01*
X157550487Y-25522543D01*
X157608604Y-25580762D01*
X157608604Y-27127204D01*
X157654686Y-27358873D01*
X157664553Y-27408476D01*
X157823881Y-27646927D01*
X158128677Y-27951724D01*
X158314669Y-28075999D01*
X158367128Y-28111051D01*
X158648400Y-28167000D01*
X161113790Y-28167000D01*
X161113790Y-28419381D01*
X161056598Y-28476473D01*
X160913952Y-28820001D01*
X160913628Y-29191967D01*
X161055673Y-29535743D01*
X161318463Y-29798992D01*
X161661991Y-29941638D01*
X162033957Y-29941962D01*
X162377733Y-29799917D01*
X162640982Y-29537127D01*
X162783628Y-29193599D01*
X162783952Y-28821633D01*
X162641907Y-28477857D01*
X162583790Y-28419638D01*
X162583790Y-27685990D01*
X162527841Y-27404718D01*
X162497208Y-27358873D01*
X162368513Y-27166266D01*
X162114523Y-26912277D01*
X161876072Y-26752949D01*
X161594800Y-26697000D01*
X159078604Y-26697000D01*
X159078604Y-25581019D01*
X159135796Y-25523927D01*
X159278442Y-25180399D01*
X159278766Y-24808433D01*
X159136721Y-24464657D01*
X158873931Y-24201408D01*
X158530403Y-24058762D01*
X158158437Y-24058438D01*
X157814661Y-24200483D01*
X157551412Y-24463273D01*
X157408766Y-24806801D01*
X157408442Y-25178767D01*
X148382500Y-25178767D01*
X148382500Y-23403700D01*
X148373815Y-23357541D01*
X148346535Y-23315147D01*
X148304910Y-23286706D01*
X148255500Y-23276700D01*
X129730500Y-23276700D01*
X129684341Y-23285385D01*
X129641947Y-23312665D01*
X129613506Y-23354290D01*
X129603500Y-23403700D01*
X27710000Y-23403700D01*
X27710000Y-20710000D01*
X29484598Y-20710000D01*
X29375258Y-20973319D01*
X29375258Y-20973319D01*
G37*
X29375258Y-20973319D02*
X29374743Y-21564089D01*
X29600344Y-22110086D01*
X30017717Y-22528188D01*
X30563319Y-22754742D01*
X31154089Y-22755257D01*
X31700086Y-22529656D01*
X32118188Y-22112283D01*
X32129748Y-22084443D01*
X32140344Y-22110086D01*
X32557717Y-22528188D01*
X33103319Y-22754742D01*
X33694089Y-22755257D01*
X34240086Y-22529656D01*
X34658188Y-22112283D01*
X34884742Y-21566681D01*
X34885257Y-20975911D01*
X34775385Y-20710000D01*
X51224598Y-20710000D01*
X51115258Y-20973319D01*
X51114743Y-21564089D01*
X51340344Y-22110086D01*
X51757717Y-22528188D01*
X52303319Y-22754742D01*
X52894089Y-22755257D01*
X53440086Y-22529656D01*
X53858188Y-22112283D01*
X53869748Y-22084443D01*
X53880344Y-22110086D01*
X54297717Y-22528188D01*
X54843319Y-22754742D01*
X55434089Y-22755257D01*
X55980086Y-22529656D01*
X56398188Y-22112283D01*
X56624742Y-21566681D01*
X56625257Y-20975911D01*
X56515385Y-20710000D01*
X61484598Y-20710000D01*
X61375258Y-20973319D01*
X61374743Y-21564089D01*
X61600344Y-22110086D01*
X62017717Y-22528188D01*
X62563319Y-22754742D01*
X63154089Y-22755257D01*
X63700086Y-22529656D01*
X64118188Y-22112283D01*
X64129748Y-22084443D01*
X64140344Y-22110086D01*
X64557717Y-22528188D01*
X65103319Y-22754742D01*
X65694089Y-22755257D01*
X66240086Y-22529656D01*
X66658188Y-22112283D01*
X66884742Y-21566681D01*
X66885257Y-20975911D01*
X66775385Y-20710000D01*
X83224598Y-20710000D01*
X83115258Y-20973319D01*
X83114743Y-21564089D01*
X83340344Y-22110086D01*
X83757717Y-22528188D01*
X84303319Y-22754742D01*
X84894089Y-22755257D01*
X85440086Y-22529656D01*
X85858188Y-22112283D01*
X85869748Y-22084443D01*
X85880344Y-22110086D01*
X86297717Y-22528188D01*
X86843319Y-22754742D01*
X87434089Y-22755257D01*
X87980086Y-22529656D01*
X88398188Y-22112283D01*
X88624742Y-21566681D01*
X88625257Y-20975911D01*
X88515385Y-20710000D01*
X93480598Y-20710000D01*
X93371258Y-20973319D01*
X93370743Y-21564089D01*
X93596344Y-22110086D01*
X94013717Y-22528188D01*
X94559319Y-22754742D01*
X95150089Y-22755257D01*
X95696086Y-22529656D01*
X96114188Y-22112283D01*
X96125748Y-22084443D01*
X96136344Y-22110086D01*
X96553717Y-22528188D01*
X97099319Y-22754742D01*
X97690089Y-22755257D01*
X98236086Y-22529656D01*
X98654188Y-22112283D01*
X98880742Y-21566681D01*
X98881257Y-20975911D01*
X98771385Y-20710000D01*
X115220598Y-20710000D01*
X115111258Y-20973319D01*
X115110743Y-21564089D01*
X115336344Y-22110086D01*
X115753717Y-22528188D01*
X116299319Y-22754742D01*
X116890089Y-22755257D01*
X117436086Y-22529656D01*
X117854188Y-22112283D01*
X117865748Y-22084443D01*
X117876344Y-22110086D01*
X118293717Y-22528188D01*
X118839319Y-22754742D01*
X119430089Y-22755257D01*
X119976086Y-22529656D01*
X120394188Y-22112283D01*
X120620742Y-21566681D01*
X120621257Y-20975911D01*
X120511385Y-20710000D01*
X125484598Y-20710000D01*
X125375258Y-20973319D01*
X125374743Y-21564089D01*
X125600344Y-22110086D01*
X126017717Y-22528188D01*
X126563319Y-22754742D01*
X127154089Y-22755257D01*
X127700086Y-22529656D01*
X128118188Y-22112283D01*
X128129748Y-22084443D01*
X128140344Y-22110086D01*
X128557717Y-22528188D01*
X129103319Y-22754742D01*
X129694089Y-22755257D01*
X130240086Y-22529656D01*
X130658188Y-22112283D01*
X130884742Y-21566681D01*
X130885257Y-20975911D01*
X130775385Y-20710000D01*
X147224598Y-20710000D01*
X147115258Y-20973319D01*
X147114743Y-21564089D01*
X147340344Y-22110086D01*
X147757717Y-22528188D01*
X148303319Y-22754742D01*
X148894089Y-22755257D01*
X149440086Y-22529656D01*
X149858188Y-22112283D01*
X149869748Y-22084443D01*
X149880344Y-22110086D01*
X150297717Y-22528188D01*
X150843319Y-22754742D01*
X151434089Y-22755257D01*
X151980086Y-22529656D01*
X152398188Y-22112283D01*
X152624742Y-21566681D01*
X152625257Y-20975911D01*
X152515385Y-20710000D01*
X157484598Y-20710000D01*
X157375258Y-20973319D01*
X157374743Y-21564089D01*
X157600344Y-22110086D01*
X158017717Y-22528188D01*
X158563319Y-22754742D01*
X159154089Y-22755257D01*
X159700086Y-22529656D01*
X160118188Y-22112283D01*
X160129748Y-22084443D01*
X160140344Y-22110086D01*
X160557717Y-22528188D01*
X161103319Y-22754742D01*
X161694089Y-22755257D01*
X162240086Y-22529656D01*
X162658188Y-22112283D01*
X162884742Y-21566681D01*
X162885257Y-20975911D01*
X162775385Y-20710000D01*
X179224598Y-20710000D01*
X179115258Y-20973319D01*
X179114743Y-21564089D01*
X179340344Y-22110086D01*
X179757717Y-22528188D01*
X180303319Y-22754742D01*
X180894089Y-22755257D01*
X181440086Y-22529656D01*
X181858188Y-22112283D01*
X181869748Y-22084443D01*
X181880344Y-22110086D01*
X182297717Y-22528188D01*
X182843319Y-22754742D01*
X183434089Y-22755257D01*
X183980086Y-22529656D01*
X184398188Y-22112283D01*
X184624742Y-21566681D01*
X184625257Y-20975911D01*
X184515385Y-20710000D01*
X186290000Y-20710000D01*
X186290000Y-29544598D01*
X186026681Y-29435258D01*
X185435911Y-29434743D01*
X184889914Y-29660344D01*
X184471812Y-30077717D01*
X184245258Y-30623319D01*
X184244743Y-31214089D01*
X184470344Y-31760086D01*
X184887717Y-32178188D01*
X184915557Y-32189748D01*
X184889914Y-32200344D01*
X184471812Y-32617717D01*
X184245258Y-33163319D01*
X184244743Y-33754089D01*
X184470344Y-34300086D01*
X184887717Y-34718188D01*
X184915557Y-34729748D01*
X184889914Y-34740344D01*
X184471812Y-35157717D01*
X184245258Y-35703319D01*
X184244743Y-36294089D01*
X184470344Y-36840086D01*
X184887717Y-37258188D01*
X185433319Y-37484742D01*
X186024089Y-37485257D01*
X186290000Y-37375385D01*
X186290000Y-39704598D01*
X186026681Y-39595258D01*
X185435911Y-39594743D01*
X184889914Y-39820344D01*
X184471812Y-40237717D01*
X184470490Y-40240900D01*
X182117440Y-40240900D01*
X182117440Y-40230000D01*
X182073162Y-39994683D01*
X181934090Y-39778559D01*
X181721890Y-39633569D01*
X181470000Y-39582560D01*
X179770000Y-39582560D01*
X179534683Y-39626838D01*
X179318559Y-39765910D01*
X179173569Y-39978110D01*
X179122560Y-40230000D01*
X179122560Y-40245000D01*
X157531757Y-40245000D01*
X157529656Y-40239914D01*
X157112283Y-39821812D01*
X156566681Y-39595258D01*
X155975911Y-39594743D01*
X155429914Y-39820344D01*
X155011812Y-40237717D01*
X155000252Y-40265557D01*
X154989656Y-40239914D01*
X154572283Y-39821812D01*
X154026681Y-39595258D01*
X153435911Y-39594743D01*
X152889914Y-39820344D01*
X152471812Y-40237717D01*
X152245258Y-40783319D01*
X152244743Y-41374089D01*
X152247755Y-41381377D01*
X151027132Y-42602000D01*
X145627064Y-42602000D01*
X152245013Y-35984345D01*
X152244743Y-36294089D01*
X152470344Y-36840086D01*
X152887717Y-37258188D01*
X153433319Y-37484742D01*
X154024089Y-37485257D01*
X154570086Y-37259656D01*
X154988188Y-36842283D01*
X154999748Y-36814443D01*
X155010344Y-36840086D01*
X155427717Y-37258188D01*
X155973319Y-37484742D01*
X156564089Y-37485257D01*
X157110086Y-37259656D01*
X157528188Y-36842283D01*
X157754742Y-36296681D01*
X157755257Y-35705911D01*
X157529656Y-35159914D01*
X157112283Y-34741812D01*
X157084443Y-34730252D01*
X157110086Y-34719656D01*
X157528188Y-34302283D01*
X157754742Y-33756681D01*
X157755257Y-33165911D01*
X157529656Y-32619914D01*
X157112283Y-32201812D01*
X157084443Y-32190252D01*
X157110086Y-32179656D01*
X157528188Y-31762283D01*
X157754742Y-31216681D01*
X157755000Y-30920000D01*
X179105907Y-30920000D01*
X179218946Y-31488285D01*
X179540853Y-31970054D01*
X179870026Y-32190000D01*
X179540853Y-32409946D01*
X179218946Y-32891715D01*
X179105907Y-33460000D01*
X179218946Y-34028285D01*
X179540853Y-34510054D01*
X179870026Y-34730000D01*
X179540853Y-34949946D01*
X179218946Y-35431715D01*
X179105907Y-36000000D01*
X179218946Y-36568285D01*
X179540853Y-37050054D01*
X180022622Y-37371961D01*
X180590907Y-37485000D01*
X180649093Y-37485000D01*
X181217378Y-37371961D01*
X181699147Y-37050054D01*
X182021054Y-36568285D01*
X182134093Y-36000000D01*
X182021054Y-35431715D01*
X181699147Y-34949946D01*
X181369974Y-34730000D01*
X181699147Y-34510054D01*
X182021054Y-34028285D01*
X182134093Y-33460000D01*
X182021054Y-32891715D01*
X181699147Y-32409946D01*
X181369974Y-32190000D01*
X181699147Y-31970054D01*
X182021054Y-31488285D01*
X182134093Y-30920000D01*
X182021054Y-30351715D01*
X181699147Y-29869946D01*
X181217378Y-29548039D01*
X180649093Y-29435000D01*
X180590907Y-29435000D01*
X180022622Y-29548039D01*
X179540853Y-29869946D01*
X179218946Y-30351715D01*
X179105907Y-30920000D01*
X157755000Y-30920000D01*
X157755257Y-30625911D01*
X157529656Y-30079914D01*
X157112283Y-29661812D01*
X156566681Y-29435258D01*
X155975911Y-29434743D01*
X155429914Y-29660344D01*
X155011812Y-30077717D01*
X155000252Y-30105557D01*
X154989656Y-30079914D01*
X154572283Y-29661812D01*
X154026681Y-29435258D01*
X153435911Y-29434743D01*
X152889914Y-29660344D01*
X152471812Y-30077717D01*
X152245258Y-30623319D01*
X152244743Y-31214089D01*
X152289101Y-31321443D01*
X143906555Y-39703900D01*
X134527419Y-39703900D01*
X134470327Y-39646708D01*
X134126799Y-39504062D01*
X133893401Y-39503859D01*
X125711141Y-31321684D01*
X125754742Y-31216681D01*
X125755257Y-30625911D01*
X125529656Y-30079914D01*
X125112283Y-29661812D01*
X124566681Y-29435258D01*
X123975911Y-29434743D01*
X123429914Y-29660344D01*
X123011812Y-30077717D01*
X122998247Y-30110386D01*
X122985656Y-30079914D01*
X122568283Y-29661812D01*
X122022681Y-29435258D01*
X121431911Y-29434743D01*
X120885914Y-29660344D01*
X120467812Y-30077717D01*
X120423264Y-30185000D01*
X93569077Y-30185000D01*
X93525656Y-30079914D01*
X93108283Y-29661812D01*
X92562681Y-29435258D01*
X91971911Y-29434743D01*
X91425914Y-29660344D01*
X91007812Y-30077717D01*
X90998257Y-30100729D01*
X90989656Y-30079914D01*
X90572283Y-29661812D01*
X90026681Y-29435258D01*
X89435911Y-29434743D01*
X88889914Y-29660344D01*
X88471812Y-30077717D01*
X88245258Y-30623319D01*
X88244743Y-31214089D01*
X88470344Y-31760086D01*
X88887717Y-32178188D01*
X88915557Y-32189748D01*
X88889914Y-32200344D01*
X88471812Y-32617717D01*
X88245258Y-33163319D01*
X88244743Y-33754089D01*
X88470344Y-34300086D01*
X88887717Y-34718188D01*
X88915557Y-34729748D01*
X88889914Y-34740344D01*
X88471812Y-35157717D01*
X88245258Y-35703319D01*
X88244743Y-36294089D01*
X88470344Y-36840086D01*
X88887717Y-37258188D01*
X89433319Y-37484742D01*
X90024089Y-37485257D01*
X90570086Y-37259656D01*
X90988188Y-36842283D01*
X90997743Y-36819271D01*
X91006344Y-36840086D01*
X91423717Y-37258188D01*
X91969319Y-37484742D01*
X92560089Y-37485257D01*
X93106086Y-37259656D01*
X93524188Y-36842283D01*
X93750742Y-36296681D01*
X93751257Y-35705911D01*
X93525656Y-35159914D01*
X93108283Y-34741812D01*
X93080443Y-34730252D01*
X93106086Y-34719656D01*
X93524188Y-34302283D01*
X93566867Y-34199500D01*
X120424783Y-34199500D01*
X120466344Y-34300086D01*
X120883717Y-34718188D01*
X120911557Y-34729748D01*
X120885914Y-34740344D01*
X120467812Y-35157717D01*
X120241258Y-35703319D01*
X120240743Y-36294089D01*
X120466344Y-36840086D01*
X120883717Y-37258188D01*
X121429319Y-37484742D01*
X122020089Y-37485257D01*
X122566086Y-37259656D01*
X122984188Y-36842283D01*
X122997753Y-36809614D01*
X123010344Y-36840086D01*
X123427717Y-37258188D01*
X123973319Y-37484742D01*
X124564089Y-37485257D01*
X125110086Y-37259656D01*
X125528188Y-36842283D01*
X125754742Y-36296681D01*
X125755014Y-35984372D01*
X132372936Y-42602000D01*
X126972868Y-42602000D01*
X125752632Y-41381764D01*
X125754742Y-41376681D01*
X125755257Y-40785911D01*
X125529656Y-40239914D01*
X125112283Y-39821812D01*
X124566681Y-39595258D01*
X123975911Y-39594743D01*
X123429914Y-39820344D01*
X123011812Y-40237717D01*
X122998247Y-40270386D01*
X122985656Y-40239914D01*
X122568283Y-39821812D01*
X122022681Y-39595258D01*
X121431911Y-39594743D01*
X120885914Y-39820344D01*
X120467812Y-40237717D01*
X120464788Y-40245000D01*
X93527757Y-40245000D01*
X93525656Y-40239914D01*
X93108283Y-39821812D01*
X92562681Y-39595258D01*
X91971911Y-39594743D01*
X91425914Y-39820344D01*
X91007812Y-40237717D01*
X90998257Y-40260729D01*
X90989656Y-40239914D01*
X90572283Y-39821812D01*
X90026681Y-39595258D01*
X89435911Y-39594743D01*
X88889914Y-39820344D01*
X88471812Y-40237717D01*
X88245258Y-40783319D01*
X88244743Y-41374089D01*
X88470344Y-41920086D01*
X88887717Y-42338188D01*
X89433319Y-42564742D01*
X90024089Y-42565257D01*
X90570086Y-42339656D01*
X90988188Y-41922283D01*
X90997743Y-41899271D01*
X91006344Y-41920086D01*
X91423717Y-42338188D01*
X91969319Y-42564742D01*
X92560089Y-42565257D01*
X93106086Y-42339656D01*
X93524188Y-41922283D01*
X93527212Y-41915000D01*
X120464243Y-41915000D01*
X120466344Y-41920086D01*
X120883717Y-42338188D01*
X121429319Y-42564742D01*
X122020089Y-42565257D01*
X122566086Y-42339656D01*
X122984188Y-41922283D01*
X122997753Y-41889614D01*
X123010344Y-41920086D01*
X123427717Y-42338188D01*
X123973319Y-42564742D01*
X124564089Y-42565257D01*
X124571377Y-42562245D01*
X126036566Y-44027434D01*
X126307459Y-44208439D01*
X126627000Y-44272000D01*
X151373000Y-44272000D01*
X151692541Y-44208439D01*
X151963434Y-44027434D01*
X153428236Y-42562632D01*
X153433319Y-42564742D01*
X154024089Y-42565257D01*
X154570086Y-42339656D01*
X154988188Y-41922283D01*
X154999748Y-41894443D01*
X155010344Y-41920086D01*
X155427717Y-42338188D01*
X155973319Y-42564742D01*
X156564089Y-42565257D01*
X157110086Y-42339656D01*
X157528188Y-41922283D01*
X157531212Y-41915000D01*
X179122560Y-41915000D01*
X179122560Y-41930000D01*
X179166838Y-42165317D01*
X179305910Y-42381441D01*
X179518110Y-42526431D01*
X179770000Y-42577440D01*
X181470000Y-42577440D01*
X181705317Y-42533162D01*
X181921441Y-42394090D01*
X182066431Y-42181890D01*
X182117440Y-41930000D01*
X182117440Y-41910900D01*
X184466548Y-41910900D01*
X184470344Y-41920086D01*
X184887717Y-42338188D01*
X185433319Y-42564742D01*
X186024089Y-42565257D01*
X186290000Y-42455385D01*
X186290000Y-51290000D01*
X184515402Y-51290000D01*
X184624742Y-51026681D01*
X184625257Y-50435911D01*
X184399656Y-49889914D01*
X183982283Y-49471812D01*
X183436681Y-49245258D01*
X182845911Y-49244743D01*
X182299914Y-49470344D01*
X181881812Y-49887717D01*
X181870252Y-49915557D01*
X181859656Y-49889914D01*
X181442283Y-49471812D01*
X180896681Y-49245258D01*
X180305911Y-49244743D01*
X179759914Y-49470344D01*
X179341812Y-49887717D01*
X179115258Y-50433319D01*
X179114743Y-51024089D01*
X179224615Y-51290000D01*
X162775402Y-51290000D01*
X162884742Y-51026681D01*
X162885257Y-50435911D01*
X162659656Y-49889914D01*
X162242283Y-49471812D01*
X161696681Y-49245258D01*
X161105911Y-49244743D01*
X160559914Y-49470344D01*
X160141812Y-49887717D01*
X160130252Y-49915557D01*
X160119656Y-49889914D01*
X159702283Y-49471812D01*
X159156681Y-49245258D01*
X158565911Y-49244743D01*
X158019914Y-49470344D01*
X157601812Y-49887717D01*
X157375258Y-50433319D01*
X157374743Y-51024089D01*
X157484615Y-51290000D01*
X152515402Y-51290000D01*
X152624742Y-51026681D01*
X152625257Y-50435911D01*
X152399656Y-49889914D01*
X151982283Y-49471812D01*
X151436681Y-49245258D01*
X150845911Y-49244743D01*
X150299914Y-49470344D01*
X149881812Y-49887717D01*
X149870252Y-49915557D01*
X149859656Y-49889914D01*
X149442283Y-49471812D01*
X148896681Y-49245258D01*
X148305911Y-49244743D01*
X147759914Y-49470344D01*
X147341812Y-49887717D01*
X147115258Y-50433319D01*
X147114743Y-51024089D01*
X147224615Y-51290000D01*
X130775402Y-51290000D01*
X130884742Y-51026681D01*
X130885257Y-50435911D01*
X130659656Y-49889914D01*
X130242283Y-49471812D01*
X129696681Y-49245258D01*
X129105911Y-49244743D01*
X128559914Y-49470344D01*
X128141812Y-49887717D01*
X128130252Y-49915557D01*
X128119656Y-49889914D01*
X127702283Y-49471812D01*
X127156681Y-49245258D01*
X126565911Y-49244743D01*
X126019914Y-49470344D01*
X125601812Y-49887717D01*
X125375258Y-50433319D01*
X125374743Y-51024089D01*
X125484615Y-51290000D01*
X120511402Y-51290000D01*
X120620742Y-51026681D01*
X120621257Y-50435911D01*
X120395656Y-49889914D01*
X119978283Y-49471812D01*
X119432681Y-49245258D01*
X118841911Y-49244743D01*
X118295914Y-49470344D01*
X117877812Y-49887717D01*
X117866252Y-49915557D01*
X117855656Y-49889914D01*
X117438283Y-49471812D01*
X116892681Y-49245258D01*
X116301911Y-49244743D01*
X115755914Y-49470344D01*
X115337812Y-49887717D01*
X115111258Y-50433319D01*
X115110743Y-51024089D01*
X115220615Y-51290000D01*
X98771402Y-51290000D01*
X98880742Y-51026681D01*
X98881257Y-50435911D01*
X98655656Y-49889914D01*
X98238283Y-49471812D01*
X97692681Y-49245258D01*
X97101911Y-49244743D01*
X96555914Y-49470344D01*
X96137812Y-49887717D01*
X96126252Y-49915557D01*
X96115656Y-49889914D01*
X95698283Y-49471812D01*
X95152681Y-49245258D01*
X94561911Y-49244743D01*
X94015914Y-49470344D01*
X93597812Y-49887717D01*
X93371258Y-50433319D01*
X93370743Y-51024089D01*
X93480615Y-51290000D01*
X88515402Y-51290000D01*
X88624742Y-51026681D01*
X88625257Y-50435911D01*
X88399656Y-49889914D01*
X87982283Y-49471812D01*
X87436681Y-49245258D01*
X86845911Y-49244743D01*
X86299914Y-49470344D01*
X85881812Y-49887717D01*
X85870252Y-49915557D01*
X85859656Y-49889914D01*
X85442283Y-49471812D01*
X84896681Y-49245258D01*
X84305911Y-49244743D01*
X83759914Y-49470344D01*
X83341812Y-49887717D01*
X83115258Y-50433319D01*
X83114743Y-51024089D01*
X83224615Y-51290000D01*
X66775402Y-51290000D01*
X66884742Y-51026681D01*
X66885257Y-50435911D01*
X66659656Y-49889914D01*
X66242283Y-49471812D01*
X65696681Y-49245258D01*
X65105911Y-49244743D01*
X64559914Y-49470344D01*
X64141812Y-49887717D01*
X64130252Y-49915557D01*
X64119656Y-49889914D01*
X63702283Y-49471812D01*
X63156681Y-49245258D01*
X62565911Y-49244743D01*
X62019914Y-49470344D01*
X61601812Y-49887717D01*
X61375258Y-50433319D01*
X61374743Y-51024089D01*
X61484615Y-51290000D01*
X56515402Y-51290000D01*
X56624742Y-51026681D01*
X56625257Y-50435911D01*
X56399656Y-49889914D01*
X55982283Y-49471812D01*
X55436681Y-49245258D01*
X54845911Y-49244743D01*
X54299914Y-49470344D01*
X53881812Y-49887717D01*
X53870252Y-49915557D01*
X53859656Y-49889914D01*
X53442283Y-49471812D01*
X52896681Y-49245258D01*
X52305911Y-49244743D01*
X51759914Y-49470344D01*
X51341812Y-49887717D01*
X51115258Y-50433319D01*
X51114743Y-51024089D01*
X51224615Y-51290000D01*
X34775402Y-51290000D01*
X34884742Y-51026681D01*
X34885257Y-50435911D01*
X34659656Y-49889914D01*
X34242283Y-49471812D01*
X33696681Y-49245258D01*
X33105911Y-49244743D01*
X32559914Y-49470344D01*
X32141812Y-49887717D01*
X32130252Y-49915557D01*
X32119656Y-49889914D01*
X31702283Y-49471812D01*
X31156681Y-49245258D01*
X30565911Y-49244743D01*
X30019914Y-49470344D01*
X29601812Y-49887717D01*
X29375258Y-50433319D01*
X29374743Y-51024089D01*
X29484615Y-51290000D01*
X27710000Y-51290000D01*
X27710000Y-44903507D01*
X163793000Y-44903507D01*
X163793000Y-44961693D01*
X163906039Y-45529978D01*
X164227946Y-46011747D01*
X164709715Y-46333654D01*
X165278000Y-46446693D01*
X165846285Y-46333654D01*
X166328054Y-46011747D01*
X166548000Y-45682574D01*
X166767946Y-46011747D01*
X167249715Y-46333654D01*
X167818000Y-46446693D01*
X168386285Y-46333654D01*
X168868054Y-46011747D01*
X169088000Y-45682574D01*
X169307946Y-46011747D01*
X169789715Y-46333654D01*
X170358000Y-46446693D01*
X170926285Y-46333654D01*
X171408054Y-46011747D01*
X171628000Y-45682574D01*
X171847946Y-46011747D01*
X172329715Y-46333654D01*
X172898000Y-46446693D01*
X173466285Y-46333654D01*
X173948054Y-46011747D01*
X174168000Y-45682574D01*
X174387946Y-46011747D01*
X174869715Y-46333654D01*
X175438000Y-46446693D01*
X176006285Y-46333654D01*
X176488054Y-46011747D01*
X176809961Y-45529978D01*
X176923000Y-44961693D01*
X176923000Y-44903507D01*
X176809961Y-44335222D01*
X176488054Y-43853453D01*
X176006285Y-43531546D01*
X175438000Y-43418507D01*
X174869715Y-43531546D01*
X174387946Y-43853453D01*
X174168000Y-44182626D01*
X173948054Y-43853453D01*
X173466285Y-43531546D01*
X172898000Y-43418507D01*
X172329715Y-43531546D01*
X171847946Y-43853453D01*
X171628000Y-44182626D01*
X171408054Y-43853453D01*
X170926285Y-43531546D01*
X170358000Y-43418507D01*
X169789715Y-43531546D01*
X169307946Y-43853453D01*
X169088000Y-44182626D01*
X168868054Y-43853453D01*
X168386285Y-43531546D01*
X167818000Y-43418507D01*
X167249715Y-43531546D01*
X166767946Y-43853453D01*
X166548000Y-44182626D01*
X166328054Y-43853453D01*
X165846285Y-43531546D01*
X165278000Y-43418507D01*
X164709715Y-43531546D01*
X164227946Y-43853453D01*
X163906039Y-44335222D01*
X163793000Y-44903507D01*
X27710000Y-44903507D01*
X27710000Y-42455402D01*
X27973319Y-42564742D01*
X28564089Y-42565257D01*
X29110086Y-42339656D01*
X29528188Y-41922283D01*
X29754742Y-41376681D01*
X29755257Y-40785911D01*
X29529656Y-40239914D01*
X29519760Y-40230000D01*
X31852560Y-40230000D01*
X31852560Y-41930000D01*
X31896838Y-42165317D01*
X32035910Y-42381441D01*
X32248110Y-42526431D01*
X32500000Y-42577440D01*
X34200000Y-42577440D01*
X34435317Y-42533162D01*
X34651441Y-42394090D01*
X34796431Y-42181890D01*
X34847440Y-41930000D01*
X34847440Y-41374089D01*
X56244743Y-41374089D01*
X56470344Y-41920086D01*
X56887717Y-42338188D01*
X57433319Y-42564742D01*
X58024089Y-42565257D01*
X58570086Y-42339656D01*
X58988188Y-41922283D01*
X58999748Y-41894443D01*
X59010344Y-41920086D01*
X59427717Y-42338188D01*
X59973319Y-42564742D01*
X60564089Y-42565257D01*
X61110086Y-42339656D01*
X61528188Y-41922283D01*
X61754742Y-41376681D01*
X61755257Y-40785911D01*
X61529656Y-40239914D01*
X61112283Y-39821812D01*
X60566681Y-39595258D01*
X59975911Y-39594743D01*
X59429914Y-39820344D01*
X59011812Y-40237717D01*
X59000252Y-40265557D01*
X58989656Y-40239914D01*
X58572283Y-39821812D01*
X58026681Y-39595258D01*
X57435911Y-39594743D01*
X56889914Y-39820344D01*
X56471812Y-40237717D01*
X56245258Y-40783319D01*
X56244743Y-41374089D01*
X34847440Y-41374089D01*
X34847440Y-40230000D01*
X34803162Y-39994683D01*
X34664090Y-39778559D01*
X34451890Y-39633569D01*
X34200000Y-39582560D01*
X32500000Y-39582560D01*
X32264683Y-39626838D01*
X32048559Y-39765910D01*
X31903569Y-39978110D01*
X31852560Y-40230000D01*
X29519760Y-40230000D01*
X29112283Y-39821812D01*
X28566681Y-39595258D01*
X27975911Y-39594743D01*
X27710000Y-39704615D01*
X27710000Y-37375402D01*
X27973319Y-37484742D01*
X28564089Y-37485257D01*
X29110086Y-37259656D01*
X29528188Y-36842283D01*
X29754742Y-36296681D01*
X29755257Y-35705911D01*
X29529656Y-35159914D01*
X29112283Y-34741812D01*
X29084443Y-34730252D01*
X29110086Y-34719656D01*
X29528188Y-34302283D01*
X29754742Y-33756681D01*
X29755257Y-33165911D01*
X29529656Y-32619914D01*
X29112283Y-32201812D01*
X29084443Y-32190252D01*
X29110086Y-32179656D01*
X29528188Y-31762283D01*
X29754742Y-31216681D01*
X29755000Y-30920000D01*
X31835907Y-30920000D01*
X31948946Y-31488285D01*
X32270853Y-31970054D01*
X32600026Y-32190000D01*
X32270853Y-32409946D01*
X31948946Y-32891715D01*
X31835907Y-33460000D01*
X31948946Y-34028285D01*
X32270853Y-34510054D01*
X32600026Y-34730000D01*
X32270853Y-34949946D01*
X31948946Y-35431715D01*
X31835907Y-36000000D01*
X31948946Y-36568285D01*
X32270853Y-37050054D01*
X32752622Y-37371961D01*
X33320907Y-37485000D01*
X33379093Y-37485000D01*
X33947378Y-37371961D01*
X34429147Y-37050054D01*
X34751054Y-36568285D01*
X34864093Y-36000000D01*
X34751054Y-35431715D01*
X34429147Y-34949946D01*
X34099974Y-34730000D01*
X34429147Y-34510054D01*
X34751054Y-34028285D01*
X34864093Y-33460000D01*
X34751054Y-32891715D01*
X34429147Y-32409946D01*
X34099974Y-32190000D01*
X34429147Y-31970054D01*
X34751054Y-31488285D01*
X34805595Y-31214089D01*
X56244743Y-31214089D01*
X56470344Y-31760086D01*
X56887717Y-32178188D01*
X56915557Y-32189748D01*
X56889914Y-32200344D01*
X56471812Y-32617717D01*
X56245258Y-33163319D01*
X56244743Y-33754089D01*
X56470344Y-34300086D01*
X56887717Y-34718188D01*
X56915557Y-34729748D01*
X56889914Y-34740344D01*
X56471812Y-35157717D01*
X56245258Y-35703319D01*
X56244743Y-36294089D01*
X56470344Y-36840086D01*
X56887717Y-37258188D01*
X57433319Y-37484742D01*
X58024089Y-37485257D01*
X58570086Y-37259656D01*
X58988188Y-36842283D01*
X58999748Y-36814443D01*
X59010344Y-36840086D01*
X59427717Y-37258188D01*
X59973319Y-37484742D01*
X60564089Y-37485257D01*
X61110086Y-37259656D01*
X61528188Y-36842283D01*
X61754742Y-36296681D01*
X61755257Y-35705911D01*
X61529656Y-35159914D01*
X61112283Y-34741812D01*
X61084443Y-34730252D01*
X61110086Y-34719656D01*
X61528188Y-34302283D01*
X61754742Y-33756681D01*
X61755257Y-33165911D01*
X61529656Y-32619914D01*
X61112283Y-32201812D01*
X61084443Y-32190252D01*
X61110086Y-32179656D01*
X61528188Y-31762283D01*
X61754742Y-31216681D01*
X61755257Y-30625911D01*
X61529656Y-30079914D01*
X61112283Y-29661812D01*
X60566681Y-29435258D01*
X59975911Y-29434743D01*
X59429914Y-29660344D01*
X59011812Y-30077717D01*
X59000252Y-30105557D01*
X58989656Y-30079914D01*
X58572283Y-29661812D01*
X58026681Y-29435258D01*
X57435911Y-29434743D01*
X56889914Y-29660344D01*
X56471812Y-30077717D01*
X56245258Y-30623319D01*
X56244743Y-31214089D01*
X34805595Y-31214089D01*
X34864093Y-30920000D01*
X34751054Y-30351715D01*
X34429147Y-29869946D01*
X33947378Y-29548039D01*
X33379093Y-29435000D01*
X33320907Y-29435000D01*
X32752622Y-29548039D01*
X32270853Y-29869946D01*
X31948946Y-30351715D01*
X31835907Y-30920000D01*
X29755000Y-30920000D01*
X29755257Y-30625911D01*
X29529656Y-30079914D01*
X29112283Y-29661812D01*
X28566681Y-29435258D01*
X27975911Y-29434743D01*
X27710000Y-29544615D01*
X27710000Y-28074367D01*
X100207638Y-28074367D01*
X100349683Y-28418143D01*
X100612473Y-28681392D01*
X100956001Y-28824038D01*
X101327967Y-28824362D01*
X101671743Y-28682317D01*
X101934992Y-28419527D01*
X102077638Y-28075999D01*
X102077962Y-27704033D01*
X101935917Y-27360257D01*
X101673127Y-27097008D01*
X101329599Y-26954362D01*
X100957633Y-26954038D01*
X100613857Y-27096083D01*
X100350608Y-27358873D01*
X100207962Y-27702401D01*
X100207638Y-28074367D01*
X27710000Y-28074367D01*
X27710000Y-23403700D01*
X129603500Y-23403700D01*
X129603500Y-31445200D01*
X129612185Y-31491359D01*
X129639465Y-31533753D01*
X129681090Y-31562194D01*
X129730500Y-31572200D01*
X143178441Y-31572200D01*
X142971808Y-31778473D01*
X142829162Y-32122001D01*
X142828838Y-32493967D01*
X142970883Y-32837743D01*
X143233673Y-33100992D01*
X143577201Y-33243638D01*
X143949167Y-33243962D01*
X144283947Y-33105634D01*
X144593201Y-33234048D01*
X144965167Y-33234372D01*
X145308943Y-33092327D01*
X145572192Y-32829537D01*
X145714838Y-32486009D01*
X145715162Y-32114043D01*
X145573117Y-31770267D01*
X145375395Y-31572200D01*
X148255500Y-31572200D01*
X148301659Y-31563515D01*
X148344053Y-31536235D01*
X148372494Y-31494610D01*
X148382500Y-31445200D01*
X148382500Y-25178767D01*
X157408442Y-25178767D01*
X157550487Y-25522543D01*
X157608604Y-25580762D01*
X157608604Y-27127204D01*
X157654686Y-27358873D01*
X157664553Y-27408476D01*
X157823881Y-27646927D01*
X158128677Y-27951724D01*
X158314669Y-28075999D01*
X158367128Y-28111051D01*
X158648400Y-28167000D01*
X161113790Y-28167000D01*
X161113790Y-28419381D01*
X161056598Y-28476473D01*
X160913952Y-28820001D01*
X160913628Y-29191967D01*
X161055673Y-29535743D01*
X161318463Y-29798992D01*
X161661991Y-29941638D01*
X162033957Y-29941962D01*
X162377733Y-29799917D01*
X162640982Y-29537127D01*
X162783628Y-29193599D01*
X162783952Y-28821633D01*
X162641907Y-28477857D01*
X162583790Y-28419638D01*
X162583790Y-27685990D01*
X162527841Y-27404718D01*
X162497208Y-27358873D01*
X162368513Y-27166266D01*
X162114523Y-26912277D01*
X161876072Y-26752949D01*
X161594800Y-26697000D01*
X159078604Y-26697000D01*
X159078604Y-25581019D01*
X159135796Y-25523927D01*
X159278442Y-25180399D01*
X159278766Y-24808433D01*
X159136721Y-24464657D01*
X158873931Y-24201408D01*
X158530403Y-24058762D01*
X158158437Y-24058438D01*
X157814661Y-24200483D01*
X157551412Y-24463273D01*
X157408766Y-24806801D01*
X157408442Y-25178767D01*
X148382500Y-25178767D01*
X148382500Y-23403700D01*
X148373815Y-23357541D01*
X148346535Y-23315147D01*
X148304910Y-23286706D01*
X148255500Y-23276700D01*
X129730500Y-23276700D01*
X129684341Y-23285385D01*
X129641947Y-23312665D01*
X129613506Y-23354290D01*
X129603500Y-23403700D01*
X27710000Y-23403700D01*
X27710000Y-20710000D01*
X29484598Y-20710000D01*
X29375258Y-20973319D01*
G36*
X120466344Y-31760086D02*
X120883717Y-32178188D01*
X120911557Y-32189748D01*
X120885914Y-32200344D01*
X120467812Y-32617717D01*
X120421396Y-32729500D01*
X93570936Y-32729500D01*
X93525656Y-32619914D01*
X93108283Y-32201812D01*
X93080443Y-32190252D01*
X93106086Y-32179656D01*
X93524188Y-31762283D01*
X93568736Y-31655000D01*
X120422923Y-31655000D01*
X120466344Y-31760086D01*
X120466344Y-31760086D01*
G37*
X120466344Y-31760086D02*
X120883717Y-32178188D01*
X120911557Y-32189748D01*
X120885914Y-32200344D01*
X120467812Y-32617717D01*
X120421396Y-32729500D01*
X93570936Y-32729500D01*
X93525656Y-32619914D01*
X93108283Y-32201812D01*
X93080443Y-32190252D01*
X93106086Y-32179656D01*
X93524188Y-31762283D01*
X93568736Y-31655000D01*
X120422923Y-31655000D01*
X120466344Y-31760086D01*
M02*
