M48
;DRILL file {KiCad 4.0.6} date Mon Dec 18 08:36:12 2017
;FORMAT={2:4/ absolute / inch / suppress leading zeros}
FMAT,2
INCH,TZ
T1C0.016
T2C0.020
T3C0.039
%
G90
G05
M72
T1
X15675Y-14556
X15675Y-17943
X15750Y-10325
X17620Y-12660
X19612Y-14556
X19612Y-17943
X19687Y-10325
X27425Y-14581
X27440Y-17960
X27500Y-10350
X29400Y-12660
X31362Y-14581
X31380Y-17960
X31437Y-10350
X38125Y-9525
X42062Y-9525
X45000Y-10500
X45025Y-14600
X46969Y-12725
X47000Y-14625
X48913Y-17896
X48937Y-10500
X50950Y-14750
X52732Y-15921
X53500Y-14075
X54325Y-17525
X54325Y-18300
X55950Y-14075
X56341Y-16287
X56600Y-12720
X56948Y-16714
X57000Y-12716
X58603Y-18686
X62340Y-9840
X63720Y-11420
X64160Y-9500
X64750Y-12700
X64750Y-14125
X67150Y-11094
X68900Y-9500
X71975Y-9500
X71975Y-10850
X72450Y-18750
T3
X11130Y-12173
X11130Y-13173
X11130Y-14173
X11130Y-15173
X11130Y-16173
X12150Y-8374
X12150Y-19972
X13130Y-12173
X13130Y-13173
X13130Y-14173
X13130Y-15173
X13130Y-16173
X13150Y-8374
X13150Y-19972
X20709Y-8374
X20709Y-19972
X21709Y-8374
X21709Y-19972
X22728Y-12173
X22728Y-13173
X22728Y-14173
X22728Y-15173
X22728Y-16173
X23728Y-12173
X23728Y-13173
X23728Y-14173
X23728Y-15173
X23728Y-16173
X24748Y-8374
X24748Y-19972
X25748Y-8374
X25748Y-19972
X33307Y-8374
X33307Y-19972
X34307Y-8374
X34307Y-19972
X35327Y-12173
X35327Y-13173
X35327Y-14173
X35327Y-15173
X35327Y-16173
X36325Y-12173
X36325Y-13173
X36325Y-14173
X36325Y-15173
X36325Y-16173
X37345Y-8374
X37345Y-19972
X38345Y-8374
X38345Y-19972
X45904Y-8374
X45904Y-19972
X46904Y-8374
X46904Y-19972
X47924Y-12173
X47924Y-13173
X47924Y-14173
X47924Y-15173
X47924Y-16173
X48925Y-12173
X48925Y-13173
X48925Y-14173
X48925Y-15173
X48925Y-16173
X49945Y-8374
X49945Y-19972
X50945Y-8374
X50945Y-19972
X58504Y-8374
X58504Y-19972
X59504Y-8374
X59504Y-19972
X60524Y-12173
X60524Y-13173
X60524Y-14173
X60524Y-15173
X60524Y-16173
X61524Y-12173
X61524Y-13173
X61524Y-14173
X61524Y-15173
X61524Y-16173
X62543Y-8374
X62543Y-19972
X63543Y-8374
X63543Y-19972
X64070Y-17690
X65070Y-17690
X66070Y-17690
X67070Y-17690
X68070Y-17690
X69070Y-17690
X71102Y-8374
X71102Y-19972
X71110Y-12173
X71110Y-13173
X71110Y-14173
X71110Y-15173
X71110Y-16173
X72102Y-8374
X72102Y-19972
X73122Y-12173
X73122Y-13173
X73122Y-14173
X73122Y-15173
X73122Y-16173
T2
X38222Y-18052G85X38497Y-18052
G05
X39245Y-18898G85X39678Y-18898
G05
X40426Y-18052G85X40702Y-18052
G05
T0
M30
