G04 #@! TF.FileFunction,Copper,L1,Top,Signal*
%FSLAX46Y46*%
G04 Gerber Fmt 4.6, Leading zero omitted, Abs format (unit mm)*
G04 Created by KiCad (PCBNEW 4.0.6) date Thu Nov 23 19:04:47 2017*
%MOMM*%
%LPD*%
G01*
G04 APERTURE LIST*
%ADD10C,0.100000*%
%ADD11C,0.600000*%
%ADD12R,1.700000X1.700000*%
%ADD13O,1.700000X1.700000*%
%ADD14R,1.000000X1.000000*%
%ADD15R,0.400000X0.400000*%
%ADD16R,1.550000X1.300000*%
%ADD17R,1.500000X1.300000*%
%ADD18R,0.800000X0.900000*%
%ADD19R,1.000000X1.250000*%
%ADD20R,0.450000X1.500000*%
%ADD21O,1.800000X1.100000*%
%ADD22O,2.200000X1.100000*%
%ADD23R,3.500000X1.600000*%
%ADD24R,0.500000X0.350000*%
%ADD25R,1.100000X0.600000*%
%ADD26R,1.100000X0.700000*%
%ADD27R,2.500000X1.100000*%
%ADD28R,1.100000X2.500000*%
%ADD29R,1.300000X1.500000*%
%ADD30R,1.200000X0.900000*%
%ADD31R,1.250000X1.000000*%
%ADD32R,1.600000X2.200000*%
%ADD33R,5.000000X5.000000*%
%ADD34R,1.500000X2.000000*%
%ADD35C,1.700000*%
%ADD36R,0.250000X0.550000*%
%ADD37C,0.200000*%
%ADD38C,0.400000*%
%ADD39C,0.254000*%
G04 APERTURE END LIST*
D10*
D11*
X85598000Y-45574000D03*
D12*
X162738000Y-44932600D03*
D13*
X165278000Y-44932600D03*
X167818000Y-44932600D03*
X170358000Y-44932600D03*
X172898000Y-44932600D03*
X175438000Y-44932600D03*
D11*
X119300000Y-32321500D03*
X114363500Y-37084000D03*
X119380000Y-37147500D03*
X124300000Y-26670000D03*
X114300000Y-26670000D03*
X106837500Y-24193500D03*
X96837500Y-24193500D03*
X137985500Y-46482000D03*
X137985500Y-44513500D03*
X142113000Y-35750500D03*
X135890000Y-35750500D03*
X164465000Y-35877500D03*
X182816500Y-24130000D03*
X182816500Y-27559000D03*
X164465000Y-32258000D03*
X184023000Y-47625000D03*
X79659500Y-37034500D03*
X69659500Y-37034500D03*
X69850000Y-26289000D03*
X79850000Y-26289000D03*
X49814500Y-45574000D03*
X49814500Y-36971000D03*
X39814500Y-45574000D03*
X39814500Y-36971000D03*
X44754800Y-32156400D03*
X50005000Y-26225500D03*
X40005000Y-26225500D03*
X74676000Y-32156400D03*
D14*
X96748600Y-42476400D03*
X96748600Y-39776400D03*
X96748600Y-41126400D03*
D15*
X178238000Y-25978000D03*
X178238000Y-26778000D03*
X178238000Y-27578000D03*
X178238000Y-28378000D03*
X175838000Y-28378000D03*
X175838000Y-27578000D03*
X175838000Y-26778000D03*
X175838000Y-25978000D03*
D12*
X33350000Y-41080000D03*
D13*
X33350000Y-38540000D03*
X33350000Y-36000000D03*
X33350000Y-33460000D03*
X33350000Y-30920000D03*
D16*
X106637000Y-47906500D03*
X106637000Y-43406500D03*
X114597000Y-43406500D03*
X114597000Y-47906500D03*
D17*
X169862000Y-41084500D03*
X167162000Y-41084500D03*
D18*
X163700000Y-40084500D03*
X161800000Y-40084500D03*
X162750000Y-42084500D03*
D19*
X173879000Y-41021000D03*
X175879000Y-41021000D03*
D20*
X100233000Y-46101000D03*
X100883000Y-46101000D03*
X99583000Y-46101000D03*
X101533000Y-46101000D03*
X98933000Y-46101000D03*
D21*
X97433000Y-45851000D03*
X103033000Y-45851000D03*
D22*
X100233000Y-48001000D03*
D23*
X108831000Y-33147000D03*
X114231000Y-33147000D03*
D24*
X173645000Y-26203000D03*
X173645000Y-26853000D03*
X173645000Y-27503000D03*
X173645000Y-28153000D03*
X171595000Y-28153000D03*
X171595000Y-27503000D03*
X171595000Y-26853000D03*
X171595000Y-26203000D03*
D25*
X166454000Y-28178000D03*
D26*
X166454000Y-27178000D03*
D25*
X166454000Y-26178000D03*
X164254000Y-26178000D03*
D26*
X164254000Y-27178000D03*
D25*
X164254000Y-28178000D03*
D27*
X131278000Y-33458400D03*
X131278000Y-35458400D03*
X131278000Y-37458400D03*
X131278000Y-39458400D03*
X131278000Y-41458400D03*
X131278000Y-43458400D03*
X131278000Y-45458400D03*
X131278000Y-47458400D03*
X146678000Y-47458400D03*
X146678000Y-45458400D03*
X146678000Y-43458400D03*
X146678000Y-41458400D03*
X146678000Y-39458400D03*
X146678000Y-37458400D03*
X146678000Y-35458400D03*
X146678000Y-33458400D03*
D28*
X133968000Y-49158400D03*
X135968000Y-49158400D03*
X137968000Y-49158400D03*
X139968000Y-49158400D03*
X141968000Y-49158400D03*
X143968000Y-49158400D03*
D29*
X150444000Y-39674800D03*
X150444000Y-42374800D03*
X150393000Y-28342600D03*
X150393000Y-31042600D03*
D30*
X127762000Y-28042600D03*
X127762000Y-31342600D03*
D19*
X173593000Y-24130000D03*
X171593000Y-24130000D03*
D31*
X169164000Y-28178000D03*
X169164000Y-26178000D03*
X127813000Y-47456600D03*
X127813000Y-45456600D03*
D19*
X164354000Y-24130000D03*
X166354000Y-24130000D03*
D31*
X117602000Y-39830500D03*
X117602000Y-41830500D03*
D29*
X120625000Y-45233600D03*
X120625000Y-47933600D03*
X150444000Y-36833800D03*
X150444000Y-34133800D03*
X150419000Y-45081200D03*
X150419000Y-47781200D03*
X127762000Y-36148000D03*
X127762000Y-33448000D03*
X117602000Y-45204400D03*
X117602000Y-47904400D03*
X127762000Y-41177200D03*
X127762000Y-38477200D03*
X153060000Y-45081200D03*
X153060000Y-47781200D03*
D12*
X180620000Y-41080000D03*
D13*
X180620000Y-38540000D03*
X180620000Y-36000000D03*
X180620000Y-33460000D03*
X180620000Y-30920000D03*
D32*
X102171500Y-42584500D03*
X102171500Y-39584500D03*
D33*
X101219000Y-30022400D03*
D34*
X101219000Y-36322400D03*
X103519000Y-36322400D03*
X98919000Y-36322400D03*
D35*
X55140000Y-21270000D03*
X52600000Y-21270000D03*
X33400000Y-21270000D03*
X30860000Y-21270000D03*
X55140000Y-50730000D03*
X52600000Y-50730000D03*
X33400000Y-50730000D03*
X30860000Y-50730000D03*
X57730000Y-30920000D03*
X57730000Y-33460000D03*
X57730000Y-36000000D03*
X57730000Y-38540000D03*
X57730000Y-41080000D03*
X28270000Y-30920000D03*
X28270000Y-33460000D03*
X28270000Y-36000000D03*
X28270000Y-38540000D03*
X28270000Y-41080000D03*
X151140000Y-21270000D03*
X148600000Y-21270000D03*
X129400000Y-21270000D03*
X126860000Y-21270000D03*
X151140000Y-50730000D03*
X148600000Y-50730000D03*
X129400000Y-50730000D03*
X126860000Y-50730000D03*
X153730000Y-30920000D03*
X153730000Y-33460000D03*
X153730000Y-36000000D03*
X153730000Y-38540000D03*
X153730000Y-41080000D03*
X124270000Y-30920000D03*
X124270000Y-33460000D03*
X124270000Y-36000000D03*
X124270000Y-38540000D03*
X124270000Y-41080000D03*
X87140000Y-21270000D03*
X84600000Y-21270000D03*
X65400000Y-21270000D03*
X62860000Y-21270000D03*
X87140000Y-50730000D03*
X84600000Y-50730000D03*
X65400000Y-50730000D03*
X62860000Y-50730000D03*
X89730000Y-30920000D03*
X89730000Y-33460000D03*
X89730000Y-36000000D03*
X89730000Y-38540000D03*
X89730000Y-41080000D03*
X60270000Y-30920000D03*
X60270000Y-33460000D03*
X60270000Y-36000000D03*
X60270000Y-38540000D03*
X60270000Y-41080000D03*
X119136000Y-21270000D03*
X116596000Y-21270000D03*
X97396000Y-21270000D03*
X94856000Y-21270000D03*
X119136000Y-50730000D03*
X116596000Y-50730000D03*
X97396000Y-50730000D03*
X94856000Y-50730000D03*
X121726000Y-30920000D03*
X121726000Y-33460000D03*
X121726000Y-36000000D03*
X121726000Y-38540000D03*
X121726000Y-41080000D03*
X92266000Y-30920000D03*
X92266000Y-33460000D03*
X92266000Y-36000000D03*
X92266000Y-38540000D03*
X92266000Y-41080000D03*
X183140000Y-21270000D03*
X180600000Y-21270000D03*
X161400000Y-21270000D03*
X158860000Y-21270000D03*
X183140000Y-50730000D03*
X180600000Y-50730000D03*
X161400000Y-50730000D03*
X158860000Y-50730000D03*
X185730000Y-30920000D03*
X185730000Y-33460000D03*
X185730000Y-36000000D03*
X185730000Y-38540000D03*
X185730000Y-41080000D03*
X156270000Y-30920000D03*
X156270000Y-33460000D03*
X156270000Y-36000000D03*
X156270000Y-38540000D03*
X156270000Y-41080000D03*
D19*
X161340800Y-24130000D03*
X159340800Y-24130000D03*
D17*
X154402800Y-24130000D03*
X157102800Y-24130000D03*
D36*
X160875600Y-26057000D03*
X160375600Y-26057000D03*
X159875600Y-26057000D03*
X159875600Y-28807000D03*
X160375600Y-28807000D03*
X160875600Y-28807000D03*
D19*
X156718000Y-26568400D03*
X154718000Y-26568400D03*
D11*
X162966000Y-24130000D03*
X170561000Y-28178000D03*
X175006000Y-24130000D03*
X148851000Y-47462300D03*
X124240000Y-45456000D03*
X101142800Y-27889200D03*
X144647000Y-42454600D03*
X133940000Y-40438900D03*
X144780000Y-32299210D03*
X143764000Y-32308800D03*
X129413000Y-37465000D03*
X143107000Y-41369200D03*
X161848790Y-29006800D03*
X158343604Y-24993600D03*
D37*
X159875600Y-26057000D02*
X159875600Y-26532000D01*
X159875600Y-26532000D02*
X159839200Y-26568400D01*
X159839200Y-26568400D02*
X157418000Y-26568400D01*
X157418000Y-26568400D02*
X156718000Y-26568400D01*
X160375600Y-26057000D02*
X160375600Y-25095200D01*
X160375600Y-25095200D02*
X160934400Y-24536400D01*
X160934400Y-24536400D02*
X161340800Y-24130000D01*
X159875600Y-26057000D02*
X160375600Y-26057000D01*
D38*
X161340800Y-24130000D02*
X162966000Y-24130000D01*
X103033000Y-45851000D02*
X103033000Y-43446000D01*
X103033000Y-43446000D02*
X102171500Y-42584500D01*
X101533000Y-46101000D02*
X101533000Y-43223000D01*
X101533000Y-43223000D02*
X102171500Y-42584500D01*
X175006000Y-24130000D02*
X173593000Y-24130000D01*
X173645000Y-26203000D02*
X173645000Y-24182000D01*
X173645000Y-24182000D02*
X173593000Y-24130000D01*
X98919000Y-36572400D02*
X98919000Y-36322400D01*
X96951400Y-38540000D02*
X98919000Y-36572400D01*
X92266000Y-38540000D02*
X96951400Y-38540000D01*
X164354000Y-24130000D02*
X162966000Y-24130000D01*
X164254000Y-24230000D02*
X164354000Y-24130000D01*
X164254000Y-26178000D02*
X164254000Y-24230000D01*
X169164000Y-28178000D02*
X170561000Y-28178000D01*
X170561000Y-27137000D02*
X170561000Y-28178000D01*
X170845000Y-26853000D02*
X170561000Y-27137000D01*
X171595000Y-26853000D02*
X170845000Y-26853000D01*
X170561000Y-28178000D02*
X171570000Y-28178000D01*
X176632000Y-27904400D02*
X176632000Y-26778000D01*
X176158000Y-28378000D02*
X176632000Y-27904400D01*
X175838000Y-28378000D02*
X176158000Y-28378000D01*
X149170000Y-47781200D02*
X148851000Y-47462300D01*
X150419000Y-47781200D02*
X149170000Y-47781200D01*
X145982000Y-47462300D02*
X148851000Y-47462300D01*
X145978000Y-47458400D02*
X145982000Y-47462300D01*
X124018000Y-45233600D02*
X124240000Y-45456000D01*
X120625000Y-45233600D02*
X124018000Y-45233600D01*
X118999000Y-33147000D02*
X114231000Y-33147000D01*
X119380000Y-33528000D02*
X118999000Y-33147000D01*
X119380000Y-38100000D02*
X119380000Y-33528000D01*
X119820000Y-38540000D02*
X119380000Y-38100000D01*
X121726000Y-38540000D02*
X119820000Y-38540000D01*
X162750000Y-44920600D02*
X162738000Y-44932600D01*
X162750000Y-42084500D02*
X162750000Y-44920600D01*
X124240000Y-45456600D02*
X124240000Y-45456000D01*
X127813000Y-45456600D02*
X124240000Y-45456600D01*
X156270000Y-38540000D02*
X153730000Y-38540000D01*
X175838000Y-26778000D02*
X176632000Y-26778000D01*
X177918000Y-25978000D02*
X178238000Y-25978000D01*
X177118000Y-26778000D02*
X177918000Y-25978000D01*
X176632000Y-26778000D02*
X177118000Y-26778000D01*
X174430000Y-26203000D02*
X173645000Y-26203000D01*
X175015000Y-26203000D02*
X174430000Y-26203000D01*
X175590000Y-26778000D02*
X175015000Y-26203000D01*
X175838000Y-26778000D02*
X175590000Y-26778000D01*
X174430000Y-26203000D02*
X173845000Y-26203000D01*
X101533000Y-43037600D02*
X101924000Y-42646600D01*
D37*
X153145000Y-37270000D02*
X167064000Y-37270000D01*
X145978000Y-35458400D02*
X148438000Y-35458400D01*
X148438000Y-35458400D02*
X148692000Y-35712400D01*
X167064000Y-37270000D02*
X169862000Y-40068000D01*
X148692000Y-35712400D02*
X151587000Y-35712400D01*
X151587000Y-35712400D02*
X153145000Y-37270000D01*
X169862000Y-40068000D02*
X169862000Y-41084500D01*
X169862000Y-41084500D02*
X169862000Y-44436600D01*
X169862000Y-44436600D02*
X170358000Y-44932600D01*
X169862500Y-44437100D02*
X170358000Y-44932600D01*
X152057000Y-34734500D02*
X167513000Y-34734500D01*
X145978000Y-33458400D02*
X148571000Y-33458400D01*
X148571000Y-33458400D02*
X148793000Y-33680400D01*
X148793000Y-33680400D02*
X148793000Y-35001200D01*
X148793000Y-35001200D02*
X149047000Y-35255200D01*
X149047000Y-35255200D02*
X151536000Y-35255200D01*
X151536000Y-35255200D02*
X152057000Y-34734500D01*
X171767500Y-43802100D02*
X172898000Y-44932600D01*
X171767500Y-38989000D02*
X171767500Y-43802100D01*
X167513000Y-34734500D02*
X171767500Y-38989000D01*
X175438000Y-44932600D02*
X173879000Y-43373600D01*
X173879000Y-43373600D02*
X173879000Y-41021000D01*
X173418000Y-41209500D02*
X173418000Y-41084500D01*
X160875600Y-26057000D02*
X160875600Y-27338400D01*
X160875600Y-27338400D02*
X160477200Y-27736800D01*
X160477200Y-27736800D02*
X155244800Y-27736800D01*
X155244800Y-27736800D02*
X154718000Y-27210000D01*
X154718000Y-27210000D02*
X154718000Y-26568400D01*
D38*
X154381200Y-22910800D02*
X154402800Y-22932400D01*
X154402800Y-22932400D02*
X154402800Y-24130000D01*
X154718000Y-26568400D02*
X154718000Y-24445200D01*
X154718000Y-24445200D02*
X154402800Y-24130000D01*
X154381200Y-22910800D02*
X150393000Y-22910800D01*
X166370000Y-22910800D02*
X154381200Y-22910800D01*
X128839800Y-47458400D02*
X129222500Y-47458400D01*
X129222500Y-47458400D02*
X131978000Y-47458400D01*
X129222500Y-44450000D02*
X129222500Y-47458400D01*
X127813000Y-47456600D02*
X128838000Y-47456600D01*
X128838000Y-47456600D02*
X128839800Y-47458400D01*
X129222500Y-44450000D02*
X133350000Y-44450000D01*
X133350000Y-44450000D02*
X133350000Y-42481500D01*
X150444000Y-39674800D02*
X149394000Y-39674800D01*
X149394000Y-39674800D02*
X149063000Y-40005800D01*
X149063000Y-40005800D02*
X149063000Y-40462200D01*
X135369300Y-40462200D02*
X133350000Y-42481500D01*
X133350000Y-42481500D02*
X127762000Y-42481500D01*
X149063000Y-40462200D02*
X135369300Y-40462200D01*
X101219000Y-30022400D02*
X101219000Y-32487000D01*
X101219000Y-32487000D02*
X101879000Y-33147000D01*
X171595000Y-26203000D02*
X171595000Y-24132000D01*
X171595000Y-24132000D02*
X171593000Y-24130000D01*
X174440000Y-26853000D02*
X173645000Y-26853000D01*
X175165000Y-27578000D02*
X174440000Y-26853000D01*
X175838000Y-27578000D02*
X175165000Y-27578000D01*
X108918000Y-39830500D02*
X108839000Y-39751000D01*
X117602000Y-39830500D02*
X108918000Y-39830500D01*
X112725000Y-22910800D02*
X150393000Y-22910800D01*
X108839000Y-26797000D02*
X112725000Y-22910800D01*
X108839000Y-31939000D02*
X108839000Y-26797000D01*
X108831000Y-31947000D02*
X108839000Y-31939000D01*
X108831000Y-33147000D02*
X108831000Y-31947000D01*
X96748600Y-39776400D02*
X96748600Y-41126400D01*
X101219000Y-36572400D02*
X101219000Y-36322400D01*
X98015000Y-39776400D02*
X101219000Y-36572400D01*
X96748600Y-39776400D02*
X98015000Y-39776400D01*
X175838000Y-22917000D02*
X175844000Y-22910800D01*
X175838000Y-25978000D02*
X175838000Y-22917000D01*
X166354000Y-22926800D02*
X166370000Y-22910800D01*
X166354000Y-24130000D02*
X166354000Y-22926800D01*
X150393000Y-28342600D02*
X150393000Y-22910800D01*
X166454000Y-24230000D02*
X166354000Y-24130000D01*
X166454000Y-26178000D02*
X166454000Y-24230000D01*
X171570000Y-26178000D02*
X171595000Y-26203000D01*
X169164000Y-26178000D02*
X171570000Y-26178000D01*
X171595000Y-26203000D02*
X171720000Y-26203000D01*
X150444000Y-39674800D02*
X150444000Y-36833800D01*
X101219000Y-33807400D02*
X101219000Y-36322400D01*
X101879000Y-33147000D02*
X101219000Y-33807400D01*
X108831000Y-33147000D02*
X101879000Y-33147000D01*
X119053000Y-39830500D02*
X117602000Y-39830500D01*
X119405000Y-40182800D02*
X119053000Y-39830500D01*
X119405000Y-42037000D02*
X119405000Y-40182800D01*
X119850000Y-42481500D02*
X119405000Y-42037000D01*
X126035000Y-42481500D02*
X119850000Y-42481500D01*
X127762000Y-42481500D02*
X126035000Y-42481500D01*
X131978000Y-47458400D02*
X131976000Y-47456600D01*
X127762000Y-41177200D02*
X127762000Y-42481500D01*
X126666000Y-36148000D02*
X127762000Y-36148000D01*
X126060000Y-36754000D02*
X126666000Y-36148000D01*
X126060000Y-42456300D02*
X126060000Y-36754000D01*
X126035000Y-42481500D02*
X126060000Y-42456300D01*
X117582000Y-39810200D02*
X117602000Y-39830500D01*
X153060000Y-45081200D02*
X153035000Y-45081200D01*
X153035000Y-45132000D02*
X153035000Y-45081200D01*
X151409000Y-39674800D02*
X150444000Y-39674800D01*
X151892000Y-40157400D02*
X151409000Y-39674800D01*
X151892000Y-42367200D02*
X151892000Y-40157400D01*
X153035000Y-43510200D02*
X151892000Y-42367200D01*
X153035000Y-45081200D02*
X153035000Y-43510200D01*
X169164000Y-26178000D02*
X166454000Y-26178000D01*
X172370000Y-27503000D02*
X173020000Y-26853000D01*
X171595000Y-27503000D02*
X172370000Y-27503000D01*
X177038000Y-22910800D02*
X175844000Y-22910800D01*
X179019000Y-24892000D02*
X177038000Y-22910800D01*
X179019000Y-26596800D02*
X179019000Y-24892000D01*
X178838000Y-26778000D02*
X179019000Y-26596800D01*
X178238000Y-26778000D02*
X178838000Y-26778000D01*
X175844000Y-22910800D02*
X166370000Y-22910800D01*
X172370000Y-26203000D02*
X171720000Y-26203000D01*
X173020000Y-26853000D02*
X172370000Y-26203000D01*
X171720000Y-26203000D02*
X171595000Y-26203000D01*
X108839000Y-34355000D02*
X108839000Y-39751000D01*
X108831000Y-34347000D02*
X108839000Y-34355000D01*
X108831000Y-33147000D02*
X108831000Y-34347000D01*
X108839000Y-39751000D02*
X108839000Y-43406500D01*
X106637000Y-43406500D02*
X108839000Y-43406500D01*
X108839000Y-43406500D02*
X114597000Y-43406500D01*
X173020000Y-26853000D02*
X173645000Y-26853000D01*
D37*
X148220000Y-42454600D02*
X144647000Y-42454600D01*
X148848000Y-43082000D02*
X148220000Y-42454600D01*
X148848000Y-45081200D02*
X148848000Y-43082000D01*
X89730000Y-33460000D02*
X60270000Y-33460000D01*
X124270000Y-33460000D02*
X121726000Y-33460000D01*
X153730000Y-33460000D02*
X156270000Y-33460000D01*
X150419000Y-45081200D02*
X148848000Y-45081200D01*
X148471000Y-45458400D02*
X145978000Y-45458400D01*
X148848000Y-45081200D02*
X148471000Y-45458400D01*
X180620000Y-33460000D02*
X156270000Y-33460000D01*
X181774000Y-33455900D02*
X185726000Y-33455900D01*
X181770000Y-33460000D02*
X181774000Y-33455900D01*
X180620000Y-33460000D02*
X181770000Y-33460000D01*
X185722000Y-33451800D02*
X185726000Y-33455900D01*
X185726000Y-33455900D02*
X185730000Y-33460000D01*
X60270000Y-33460000D02*
X57730000Y-33460000D01*
X92270000Y-33460000D02*
X92266000Y-33460000D01*
X92266000Y-33460000D02*
X89730000Y-33460000D01*
X57730000Y-33460000D02*
X33350000Y-33460000D01*
X33350000Y-33460000D02*
X28270000Y-33460000D01*
X156270000Y-30920000D02*
X157472000Y-30920000D01*
X133936000Y-40443100D02*
X133940000Y-40438900D01*
X133936000Y-40446900D02*
X133936000Y-40443100D01*
X132924000Y-41458400D02*
X133936000Y-40446900D01*
X131978000Y-41458400D02*
X132924000Y-41458400D01*
X89730000Y-30920000D02*
X60270000Y-30920000D01*
X124270000Y-30920000D02*
X121726000Y-30920000D01*
X153730000Y-30920000D02*
X156270000Y-30920000D01*
X60270000Y-30920000D02*
X57730000Y-30920000D01*
X181774000Y-30915900D02*
X185726000Y-30915900D01*
X181770000Y-30920000D02*
X181774000Y-30915900D01*
X180620000Y-30920000D02*
X181770000Y-30920000D01*
X180620000Y-30920000D02*
X157472000Y-30920000D01*
X157472000Y-30920000D02*
X156270000Y-30920000D01*
X57730000Y-30920000D02*
X33350000Y-30920000D01*
X33350000Y-30920000D02*
X28270000Y-30920000D01*
X185722000Y-30911800D02*
X185726000Y-30915900D01*
X185726000Y-30915900D02*
X185730000Y-30920000D01*
X92270000Y-30920000D02*
X92266000Y-30920000D01*
X92266000Y-30920000D02*
X89730000Y-30920000D01*
X146310000Y-49498200D02*
X177769000Y-49498200D01*
X177769000Y-49498200D02*
X183261000Y-44006200D01*
X183261000Y-44006200D02*
X183261000Y-36000000D01*
X145009000Y-50800000D02*
X146310000Y-49498200D01*
X143205000Y-50800000D02*
X145009000Y-50800000D01*
X143002000Y-50596800D02*
X143205000Y-50800000D01*
X143002000Y-47552400D02*
X143002000Y-50596800D01*
X140908000Y-45458400D02*
X143002000Y-47552400D01*
X131978000Y-45458400D02*
X140908000Y-45458400D01*
X185722000Y-35991800D02*
X185730000Y-36000000D01*
X180620000Y-36000000D02*
X183261000Y-36000000D01*
X183261000Y-36000000D02*
X185730000Y-36000000D01*
D38*
X102171500Y-39584500D02*
X103371500Y-39584500D01*
X103371500Y-39584500D02*
X103519000Y-39437000D01*
X103519000Y-39437000D02*
X103519000Y-36322400D01*
X99024000Y-42646600D02*
X99924000Y-42646600D01*
X99924000Y-42646600D02*
X99924000Y-40030000D01*
X99924000Y-40030000D02*
X100369500Y-39584500D01*
X100369500Y-39584500D02*
X102171500Y-39584500D01*
X98933000Y-42737600D02*
X99024000Y-42646600D01*
X98933000Y-46101000D02*
X98933000Y-42737600D01*
X97002600Y-42646600D02*
X99024000Y-42646600D01*
X96832400Y-42476400D02*
X97002600Y-42646600D01*
X96748600Y-42476400D02*
X96832400Y-42476400D01*
D37*
X117626000Y-43458400D02*
X117602000Y-43434000D01*
X131978000Y-43458400D02*
X117626000Y-43458400D01*
X117602000Y-43434000D02*
X117602000Y-41830500D01*
X117602000Y-45259000D02*
X117602000Y-45204400D01*
X117602000Y-45204400D02*
X117602000Y-43434000D01*
X114597000Y-47906500D02*
X106637000Y-47906500D01*
X117600000Y-47906500D02*
X117602000Y-47904400D01*
X117631000Y-47933600D02*
X117602000Y-47904400D01*
X120625000Y-47933600D02*
X117631000Y-47933600D01*
X114597000Y-47906500D02*
X117600000Y-47906500D01*
X117600000Y-47906500D02*
X117602000Y-47904400D01*
X177901600Y-29870400D02*
X159867600Y-29870400D01*
X159867600Y-29870400D02*
X157911600Y-29870400D01*
X159875600Y-28807000D02*
X159875600Y-29282000D01*
X159875600Y-29282000D02*
X159867600Y-29290000D01*
X159867600Y-29290000D02*
X159867600Y-29870400D01*
X178238000Y-27578000D02*
X178638000Y-27578000D01*
X178638000Y-27578000D02*
X178943000Y-27883000D01*
X178943000Y-27883000D02*
X178943000Y-28829000D01*
X178943000Y-28829000D02*
X177901600Y-29870400D01*
X157911600Y-29870400D02*
X157556000Y-29514800D01*
X157556000Y-29514800D02*
X153010000Y-29514800D01*
X150444000Y-33183600D02*
X150444000Y-34133800D01*
X153010000Y-29514800D02*
X152121000Y-30403800D01*
X152121000Y-30403800D02*
X152121000Y-31507200D01*
X152121000Y-31507200D02*
X151333000Y-32294600D01*
X151333000Y-32294600D02*
X150444000Y-33183600D01*
X148709410Y-32299210D02*
X144780000Y-32299210D01*
X144780000Y-36260400D02*
X144780000Y-32299210D01*
X145978000Y-37458400D02*
X144780000Y-36260400D01*
X150444000Y-34033800D02*
X148709410Y-32299210D01*
X150444000Y-34133800D02*
X150444000Y-34033800D01*
X178238000Y-27578000D02*
X177738000Y-27578000D01*
X175196500Y-28956000D02*
X174688500Y-28448000D01*
X174688500Y-28448000D02*
X174688500Y-28096500D01*
X177738000Y-27578000D02*
X176360000Y-28956000D01*
X176360000Y-28956000D02*
X175196500Y-28956000D01*
X174688500Y-28096500D02*
X174095000Y-27503000D01*
X174095000Y-27503000D02*
X173645000Y-27503000D01*
X173645000Y-27503000D02*
X173743500Y-27503000D01*
X173195000Y-27503000D02*
X173645000Y-27503000D01*
X171674000Y-29023500D02*
X173195000Y-27503000D01*
X168150000Y-29023500D02*
X171674000Y-29023500D01*
X167304000Y-28178000D02*
X168150000Y-29023500D01*
X166454000Y-28178000D02*
X167304000Y-28178000D01*
X150393000Y-30967600D02*
X153182600Y-28178000D01*
X153182600Y-28178000D02*
X159117522Y-28178000D01*
X159117522Y-28178000D02*
X160883600Y-28178000D01*
X160883600Y-28178000D02*
X164254000Y-28178000D01*
X160875600Y-28807000D02*
X160875600Y-28332000D01*
X160875600Y-28332000D02*
X160883600Y-28324000D01*
X160883600Y-28324000D02*
X160883600Y-28178000D01*
X150393000Y-31042600D02*
X149787200Y-31648400D01*
X144424400Y-31648400D02*
X143764000Y-32308800D01*
X149787200Y-31648400D02*
X144424400Y-31648400D01*
X143764000Y-37244400D02*
X143764000Y-32308800D01*
X145978000Y-39458400D02*
X143764000Y-37244400D01*
X173645000Y-28153000D02*
X173845000Y-28153000D01*
X173845000Y-28153000D02*
X173845000Y-28528000D01*
X173845000Y-28528000D02*
X174781000Y-29464000D01*
X174781000Y-29464000D02*
X176752000Y-29464000D01*
X176752000Y-29464000D02*
X177838000Y-28378000D01*
X177838000Y-28378000D02*
X178238000Y-28378000D01*
X150393000Y-30942600D02*
X150393000Y-30967600D01*
X150393000Y-30967600D02*
X150393000Y-31042600D01*
X173195000Y-28153000D02*
X173645000Y-28153000D01*
X171916000Y-29431300D02*
X173195000Y-28153000D01*
X166358000Y-29431300D02*
X171916000Y-29431300D01*
X165104000Y-28178000D02*
X166358000Y-29431300D01*
X164254000Y-28178000D02*
X165104000Y-28178000D01*
X144781000Y-43458400D02*
X145978000Y-43458400D01*
X144602000Y-43637200D02*
X144781000Y-43458400D01*
X144602000Y-46151800D02*
X144602000Y-43637200D01*
X144932000Y-46482000D02*
X144602000Y-46151800D01*
X151060000Y-46482000D02*
X144932000Y-46482000D01*
X152359000Y-47781200D02*
X151060000Y-46482000D01*
X153060000Y-47781200D02*
X152359000Y-47781200D01*
X129008000Y-28042600D02*
X127762000Y-28042600D01*
X129413000Y-28448000D02*
X129008000Y-28042600D01*
X129413000Y-32004000D02*
X129413000Y-28448000D01*
X129730000Y-32321500D02*
X129413000Y-32004000D01*
X132969000Y-32321500D02*
X129730000Y-32321500D01*
X133223000Y-32575500D02*
X132969000Y-32321500D01*
X133223000Y-39179500D02*
X133223000Y-32575500D01*
X132944000Y-39458400D02*
X133223000Y-39179500D01*
X131978000Y-39458400D02*
X132944000Y-39458400D01*
X145136000Y-49022000D02*
X176085500Y-49022000D01*
X176085500Y-49022000D02*
X177355500Y-47752000D01*
X177355500Y-42227500D02*
X176149000Y-41021000D01*
X177355500Y-47752000D02*
X177355500Y-42227500D01*
X176149000Y-41021000D02*
X175879000Y-41021000D01*
X143107000Y-45544900D02*
X144958000Y-47396400D01*
X144958000Y-47396400D02*
X144958000Y-48844400D01*
X144958000Y-48844400D02*
X145136000Y-49022000D01*
X143107000Y-41369200D02*
X143107000Y-45544900D01*
X131978000Y-37465000D02*
X131978000Y-37458400D01*
X129413000Y-37465000D02*
X131978000Y-37465000D01*
X127991000Y-37465000D02*
X129413000Y-37465000D01*
X127762000Y-37693600D02*
X127991000Y-37465000D01*
X127762000Y-38477200D02*
X127762000Y-37693600D01*
X131978000Y-33458400D02*
X131985000Y-33451400D01*
X128622000Y-33458400D02*
X131978000Y-33458400D01*
X128612000Y-33448000D02*
X128622000Y-33458400D01*
X127762000Y-33448000D02*
X128612000Y-33448000D01*
X127762000Y-33448000D02*
X127762000Y-31342600D01*
X167162000Y-40134200D02*
X167162000Y-41084500D01*
X167112000Y-40084500D02*
X167162000Y-40134200D01*
X163700000Y-40084500D02*
X167112000Y-40084500D01*
X150444000Y-42374800D02*
X150444000Y-42474800D01*
X150444000Y-42474800D02*
X151574000Y-43604600D01*
X151574000Y-43604600D02*
X151574000Y-45974000D01*
X151574000Y-45974000D02*
X152082000Y-46482000D01*
X152082000Y-46482000D02*
X154432000Y-46482000D01*
X154432000Y-46482000D02*
X160829500Y-40084500D01*
X160829500Y-40084500D02*
X161800000Y-40084500D01*
X148927000Y-42374800D02*
X150444000Y-42374800D01*
X148011000Y-41458400D02*
X148927000Y-42374800D01*
X145978000Y-41458400D02*
X148011000Y-41458400D01*
X32191100Y-36008600D02*
X28278600Y-36008600D01*
X32199700Y-36000000D02*
X32191100Y-36008600D01*
X33350000Y-36000000D02*
X32199700Y-36000000D01*
X28287200Y-36017200D02*
X28278600Y-36008600D01*
X28278600Y-36008600D02*
X28270000Y-36000000D01*
D38*
X96702200Y-41080000D02*
X96748600Y-41126400D01*
X92266000Y-41080000D02*
X96702200Y-41080000D01*
X89730000Y-41080000D02*
X60270000Y-41080000D01*
X153730000Y-41080000D02*
X156270000Y-41080000D01*
X124270000Y-41080000D02*
X121726000Y-41080000D01*
X92266000Y-41080000D02*
X89730000Y-41080000D01*
X60270000Y-41080000D02*
X57730000Y-41080000D01*
X57730000Y-41080000D02*
X33350000Y-41080000D01*
X33350000Y-41080000D02*
X28270000Y-41080000D01*
D37*
X156270000Y-36000000D02*
X153730000Y-36000000D01*
X124270000Y-36000000D02*
X121726000Y-36000000D01*
X92270000Y-36000000D02*
X92266000Y-36000000D01*
X92266000Y-36000000D02*
X89730000Y-36000000D01*
X60270000Y-36000000D02*
X57730000Y-36000000D01*
X160375600Y-28807000D02*
X160375600Y-29282000D01*
X160375600Y-29282000D02*
X160557600Y-29464000D01*
X160557600Y-29464000D02*
X161645600Y-29464000D01*
X161645600Y-29464000D02*
X161848800Y-29260800D01*
X161848800Y-29260800D02*
X161848800Y-29006810D01*
X161848800Y-29006810D02*
X161848790Y-29006800D01*
X158343604Y-24569336D02*
X158343604Y-24993600D01*
X158343604Y-24130004D02*
X158343604Y-24569336D01*
X158343600Y-24130000D02*
X158343604Y-24130004D01*
X158343600Y-24130000D02*
X159340800Y-24130000D01*
X158052800Y-24130000D02*
X158343600Y-24130000D01*
X157102800Y-24130000D02*
X158052800Y-24130000D01*
X159290000Y-24180800D02*
X159340800Y-24130000D01*
X159217600Y-24253200D02*
X159340800Y-24130000D01*
D39*
G36*
X106477838Y-34182317D02*
X106616910Y-34398441D01*
X106829110Y-34543431D01*
X107081000Y-34594440D01*
X108004000Y-34594440D01*
X108004000Y-42503837D01*
X107876090Y-42305059D01*
X107663890Y-42160069D01*
X107412000Y-42109060D01*
X105862000Y-42109060D01*
X105626683Y-42153338D01*
X105410559Y-42292410D01*
X105265569Y-42504610D01*
X105214560Y-42756500D01*
X105214560Y-44056500D01*
X105258838Y-44291817D01*
X105397910Y-44507941D01*
X105610110Y-44652931D01*
X105862000Y-44703940D01*
X107412000Y-44703940D01*
X107647317Y-44659662D01*
X107863441Y-44520590D01*
X108008431Y-44308390D01*
X108021977Y-44241500D01*
X113209370Y-44241500D01*
X113218838Y-44291817D01*
X113357910Y-44507941D01*
X113570110Y-44652931D01*
X113822000Y-44703940D01*
X115372000Y-44703940D01*
X115607317Y-44659662D01*
X115823441Y-44520590D01*
X115968431Y-44308390D01*
X116019440Y-44056500D01*
X116019440Y-42756500D01*
X115975162Y-42521183D01*
X115836090Y-42305059D01*
X115623890Y-42160069D01*
X115372000Y-42109060D01*
X113822000Y-42109060D01*
X113586683Y-42153338D01*
X113370559Y-42292410D01*
X113225569Y-42504610D01*
X113212023Y-42571500D01*
X109674000Y-42571500D01*
X109674000Y-40665500D01*
X116437982Y-40665500D01*
X116512910Y-40781941D01*
X116582711Y-40829634D01*
X116525559Y-40866410D01*
X116380569Y-41078610D01*
X116329560Y-41330500D01*
X116329560Y-42330500D01*
X116373838Y-42565817D01*
X116512910Y-42781941D01*
X116725110Y-42926931D01*
X116867000Y-42955664D01*
X116867000Y-43822954D01*
X116716683Y-43851238D01*
X116500559Y-43990310D01*
X116355569Y-44202510D01*
X116304560Y-44454400D01*
X116304560Y-45954400D01*
X116348838Y-46189717D01*
X116487910Y-46405841D01*
X116700110Y-46550831D01*
X116713197Y-46553481D01*
X116500559Y-46690310D01*
X116355569Y-46902510D01*
X116304560Y-47154400D01*
X116304560Y-47171500D01*
X116003446Y-47171500D01*
X115975162Y-47021183D01*
X115836090Y-46805059D01*
X115623890Y-46660069D01*
X115372000Y-46609060D01*
X113822000Y-46609060D01*
X113586683Y-46653338D01*
X113370559Y-46792410D01*
X113225569Y-47004610D01*
X113191773Y-47171500D01*
X108043446Y-47171500D01*
X108015162Y-47021183D01*
X107876090Y-46805059D01*
X107663890Y-46660069D01*
X107412000Y-46609060D01*
X105862000Y-46609060D01*
X105626683Y-46653338D01*
X105410559Y-46792410D01*
X105265569Y-47004610D01*
X105214560Y-47256500D01*
X105214560Y-48556500D01*
X105258838Y-48791817D01*
X105397910Y-49007941D01*
X105610110Y-49152931D01*
X105862000Y-49203940D01*
X107412000Y-49203940D01*
X107647317Y-49159662D01*
X107863441Y-49020590D01*
X108008431Y-48808390D01*
X108042227Y-48641500D01*
X113190554Y-48641500D01*
X113218838Y-48791817D01*
X113357910Y-49007941D01*
X113570110Y-49152931D01*
X113822000Y-49203940D01*
X115372000Y-49203940D01*
X115607317Y-49159662D01*
X115823441Y-49020590D01*
X115968431Y-48808390D01*
X116002227Y-48641500D01*
X116304560Y-48641500D01*
X116304560Y-48654400D01*
X116348838Y-48889717D01*
X116487910Y-49105841D01*
X116691697Y-49245083D01*
X116301911Y-49244743D01*
X115755914Y-49470344D01*
X115337812Y-49887717D01*
X115111258Y-50433319D01*
X115110743Y-51024089D01*
X115220615Y-51290000D01*
X98771402Y-51290000D01*
X98880742Y-51026681D01*
X98881257Y-50435911D01*
X98655656Y-49889914D01*
X98238283Y-49471812D01*
X97692681Y-49245258D01*
X97101911Y-49244743D01*
X96555914Y-49470344D01*
X96137812Y-49887717D01*
X96126252Y-49915557D01*
X96115656Y-49889914D01*
X95698283Y-49471812D01*
X95152681Y-49245258D01*
X94561911Y-49244743D01*
X94015914Y-49470344D01*
X93597812Y-49887717D01*
X93371258Y-50433319D01*
X93370743Y-51024089D01*
X93480615Y-51290000D01*
X88515402Y-51290000D01*
X88624742Y-51026681D01*
X88625257Y-50435911D01*
X88399656Y-49889914D01*
X87982283Y-49471812D01*
X87436681Y-49245258D01*
X86845911Y-49244743D01*
X86299914Y-49470344D01*
X85881812Y-49887717D01*
X85870252Y-49915557D01*
X85859656Y-49889914D01*
X85442283Y-49471812D01*
X84896681Y-49245258D01*
X84305911Y-49244743D01*
X83759914Y-49470344D01*
X83341812Y-49887717D01*
X83115258Y-50433319D01*
X83114743Y-51024089D01*
X83224615Y-51290000D01*
X66775402Y-51290000D01*
X66884742Y-51026681D01*
X66885257Y-50435911D01*
X66659656Y-49889914D01*
X66242283Y-49471812D01*
X65696681Y-49245258D01*
X65105911Y-49244743D01*
X64559914Y-49470344D01*
X64141812Y-49887717D01*
X64130252Y-49915557D01*
X64119656Y-49889914D01*
X63702283Y-49471812D01*
X63156681Y-49245258D01*
X62565911Y-49244743D01*
X62019914Y-49470344D01*
X61601812Y-49887717D01*
X61375258Y-50433319D01*
X61374743Y-51024089D01*
X61484615Y-51290000D01*
X56515402Y-51290000D01*
X56624742Y-51026681D01*
X56625257Y-50435911D01*
X56399656Y-49889914D01*
X55982283Y-49471812D01*
X55436681Y-49245258D01*
X54845911Y-49244743D01*
X54299914Y-49470344D01*
X53881812Y-49887717D01*
X53870252Y-49915557D01*
X53859656Y-49889914D01*
X53442283Y-49471812D01*
X52896681Y-49245258D01*
X52305911Y-49244743D01*
X51759914Y-49470344D01*
X51341812Y-49887717D01*
X51115258Y-50433319D01*
X51114743Y-51024089D01*
X51224615Y-51290000D01*
X34775402Y-51290000D01*
X34884742Y-51026681D01*
X34885257Y-50435911D01*
X34659656Y-49889914D01*
X34242283Y-49471812D01*
X33696681Y-49245258D01*
X33105911Y-49244743D01*
X32559914Y-49470344D01*
X32141812Y-49887717D01*
X32130252Y-49915557D01*
X32119656Y-49889914D01*
X31702283Y-49471812D01*
X31156681Y-49245258D01*
X30565911Y-49244743D01*
X30019914Y-49470344D01*
X29601812Y-49887717D01*
X29375258Y-50433319D01*
X29374743Y-51024089D01*
X29484615Y-51290000D01*
X27710000Y-51290000D01*
X27710000Y-42455402D01*
X27973319Y-42564742D01*
X28564089Y-42565257D01*
X29110086Y-42339656D01*
X29528188Y-41922283D01*
X29531212Y-41915000D01*
X31852560Y-41915000D01*
X31852560Y-41930000D01*
X31896838Y-42165317D01*
X32035910Y-42381441D01*
X32248110Y-42526431D01*
X32500000Y-42577440D01*
X34200000Y-42577440D01*
X34435317Y-42533162D01*
X34651441Y-42394090D01*
X34796431Y-42181890D01*
X34847440Y-41930000D01*
X34847440Y-41915000D01*
X56468243Y-41915000D01*
X56470344Y-41920086D01*
X56887717Y-42338188D01*
X57433319Y-42564742D01*
X58024089Y-42565257D01*
X58570086Y-42339656D01*
X58988188Y-41922283D01*
X58991212Y-41915000D01*
X59008243Y-41915000D01*
X59010344Y-41920086D01*
X59427717Y-42338188D01*
X59973319Y-42564742D01*
X60564089Y-42565257D01*
X61110086Y-42339656D01*
X61528188Y-41922283D01*
X61531212Y-41915000D01*
X88468243Y-41915000D01*
X88470344Y-41920086D01*
X88887717Y-42338188D01*
X89433319Y-42564742D01*
X90024089Y-42565257D01*
X90570086Y-42339656D01*
X90988188Y-41922283D01*
X90991212Y-41915000D01*
X91004243Y-41915000D01*
X91006344Y-41920086D01*
X91423717Y-42338188D01*
X91969319Y-42564742D01*
X92560089Y-42565257D01*
X93106086Y-42339656D01*
X93524188Y-41922283D01*
X93527212Y-41915000D01*
X95613594Y-41915000D01*
X95601160Y-41976400D01*
X95601160Y-42976400D01*
X95645438Y-43211717D01*
X95784510Y-43427841D01*
X95996710Y-43572831D01*
X96248600Y-43623840D01*
X97248600Y-43623840D01*
X97483917Y-43579562D01*
X97636154Y-43481600D01*
X98098000Y-43481600D01*
X98098000Y-45166116D01*
X98060560Y-45351000D01*
X98060560Y-46851000D01*
X98104838Y-47086317D01*
X98243910Y-47302441D01*
X98456110Y-47447431D01*
X98708000Y-47498440D01*
X99158000Y-47498440D01*
X99261671Y-47478933D01*
X99358000Y-47498440D01*
X99808000Y-47498440D01*
X99911671Y-47478933D01*
X100008000Y-47498440D01*
X100458000Y-47498440D01*
X100561671Y-47478933D01*
X100658000Y-47498440D01*
X101108000Y-47498440D01*
X101343317Y-47454162D01*
X101559441Y-47315090D01*
X101704431Y-47102890D01*
X101755440Y-46851000D01*
X101755440Y-45351000D01*
X101711162Y-45115683D01*
X101572090Y-44899559D01*
X101359890Y-44754569D01*
X101108000Y-44703560D01*
X100658000Y-44703560D01*
X100554329Y-44723067D01*
X100458000Y-44703560D01*
X100008000Y-44703560D01*
X99904329Y-44723067D01*
X99808000Y-44703560D01*
X99768000Y-44703560D01*
X99768000Y-43481600D01*
X99924000Y-43481600D01*
X100243541Y-43418039D01*
X100514434Y-43237034D01*
X100695439Y-42966141D01*
X100759000Y-42646600D01*
X100759000Y-40870190D01*
X100768338Y-40919817D01*
X100907410Y-41135941D01*
X101119610Y-41280931D01*
X101371500Y-41331940D01*
X102971500Y-41331940D01*
X103206817Y-41287662D01*
X103422941Y-41148590D01*
X103567931Y-40936390D01*
X103618940Y-40684500D01*
X103618940Y-40370281D01*
X103691041Y-40355939D01*
X103961934Y-40174934D01*
X104109435Y-40027434D01*
X104290440Y-39756540D01*
X104354000Y-39437000D01*
X104354000Y-37953846D01*
X104504317Y-37925562D01*
X104720441Y-37786490D01*
X104865431Y-37574290D01*
X104916440Y-37322400D01*
X104916440Y-35322400D01*
X104872162Y-35087083D01*
X104733090Y-34870959D01*
X104520890Y-34725969D01*
X104269000Y-34674960D01*
X102769000Y-34674960D01*
X102533683Y-34719238D01*
X102367523Y-34826159D01*
X102220890Y-34725969D01*
X102054000Y-34692173D01*
X102054000Y-34153120D01*
X102225016Y-33982000D01*
X106440146Y-33982000D01*
X106477838Y-34182317D01*
X106477838Y-34182317D01*
G37*
X106477838Y-34182317D02*
X106616910Y-34398441D01*
X106829110Y-34543431D01*
X107081000Y-34594440D01*
X108004000Y-34594440D01*
X108004000Y-42503837D01*
X107876090Y-42305059D01*
X107663890Y-42160069D01*
X107412000Y-42109060D01*
X105862000Y-42109060D01*
X105626683Y-42153338D01*
X105410559Y-42292410D01*
X105265569Y-42504610D01*
X105214560Y-42756500D01*
X105214560Y-44056500D01*
X105258838Y-44291817D01*
X105397910Y-44507941D01*
X105610110Y-44652931D01*
X105862000Y-44703940D01*
X107412000Y-44703940D01*
X107647317Y-44659662D01*
X107863441Y-44520590D01*
X108008431Y-44308390D01*
X108021977Y-44241500D01*
X113209370Y-44241500D01*
X113218838Y-44291817D01*
X113357910Y-44507941D01*
X113570110Y-44652931D01*
X113822000Y-44703940D01*
X115372000Y-44703940D01*
X115607317Y-44659662D01*
X115823441Y-44520590D01*
X115968431Y-44308390D01*
X116019440Y-44056500D01*
X116019440Y-42756500D01*
X115975162Y-42521183D01*
X115836090Y-42305059D01*
X115623890Y-42160069D01*
X115372000Y-42109060D01*
X113822000Y-42109060D01*
X113586683Y-42153338D01*
X113370559Y-42292410D01*
X113225569Y-42504610D01*
X113212023Y-42571500D01*
X109674000Y-42571500D01*
X109674000Y-40665500D01*
X116437982Y-40665500D01*
X116512910Y-40781941D01*
X116582711Y-40829634D01*
X116525559Y-40866410D01*
X116380569Y-41078610D01*
X116329560Y-41330500D01*
X116329560Y-42330500D01*
X116373838Y-42565817D01*
X116512910Y-42781941D01*
X116725110Y-42926931D01*
X116867000Y-42955664D01*
X116867000Y-43822954D01*
X116716683Y-43851238D01*
X116500559Y-43990310D01*
X116355569Y-44202510D01*
X116304560Y-44454400D01*
X116304560Y-45954400D01*
X116348838Y-46189717D01*
X116487910Y-46405841D01*
X116700110Y-46550831D01*
X116713197Y-46553481D01*
X116500559Y-46690310D01*
X116355569Y-46902510D01*
X116304560Y-47154400D01*
X116304560Y-47171500D01*
X116003446Y-47171500D01*
X115975162Y-47021183D01*
X115836090Y-46805059D01*
X115623890Y-46660069D01*
X115372000Y-46609060D01*
X113822000Y-46609060D01*
X113586683Y-46653338D01*
X113370559Y-46792410D01*
X113225569Y-47004610D01*
X113191773Y-47171500D01*
X108043446Y-47171500D01*
X108015162Y-47021183D01*
X107876090Y-46805059D01*
X107663890Y-46660069D01*
X107412000Y-46609060D01*
X105862000Y-46609060D01*
X105626683Y-46653338D01*
X105410559Y-46792410D01*
X105265569Y-47004610D01*
X105214560Y-47256500D01*
X105214560Y-48556500D01*
X105258838Y-48791817D01*
X105397910Y-49007941D01*
X105610110Y-49152931D01*
X105862000Y-49203940D01*
X107412000Y-49203940D01*
X107647317Y-49159662D01*
X107863441Y-49020590D01*
X108008431Y-48808390D01*
X108042227Y-48641500D01*
X113190554Y-48641500D01*
X113218838Y-48791817D01*
X113357910Y-49007941D01*
X113570110Y-49152931D01*
X113822000Y-49203940D01*
X115372000Y-49203940D01*
X115607317Y-49159662D01*
X115823441Y-49020590D01*
X115968431Y-48808390D01*
X116002227Y-48641500D01*
X116304560Y-48641500D01*
X116304560Y-48654400D01*
X116348838Y-48889717D01*
X116487910Y-49105841D01*
X116691697Y-49245083D01*
X116301911Y-49244743D01*
X115755914Y-49470344D01*
X115337812Y-49887717D01*
X115111258Y-50433319D01*
X115110743Y-51024089D01*
X115220615Y-51290000D01*
X98771402Y-51290000D01*
X98880742Y-51026681D01*
X98881257Y-50435911D01*
X98655656Y-49889914D01*
X98238283Y-49471812D01*
X97692681Y-49245258D01*
X97101911Y-49244743D01*
X96555914Y-49470344D01*
X96137812Y-49887717D01*
X96126252Y-49915557D01*
X96115656Y-49889914D01*
X95698283Y-49471812D01*
X95152681Y-49245258D01*
X94561911Y-49244743D01*
X94015914Y-49470344D01*
X93597812Y-49887717D01*
X93371258Y-50433319D01*
X93370743Y-51024089D01*
X93480615Y-51290000D01*
X88515402Y-51290000D01*
X88624742Y-51026681D01*
X88625257Y-50435911D01*
X88399656Y-49889914D01*
X87982283Y-49471812D01*
X87436681Y-49245258D01*
X86845911Y-49244743D01*
X86299914Y-49470344D01*
X85881812Y-49887717D01*
X85870252Y-49915557D01*
X85859656Y-49889914D01*
X85442283Y-49471812D01*
X84896681Y-49245258D01*
X84305911Y-49244743D01*
X83759914Y-49470344D01*
X83341812Y-49887717D01*
X83115258Y-50433319D01*
X83114743Y-51024089D01*
X83224615Y-51290000D01*
X66775402Y-51290000D01*
X66884742Y-51026681D01*
X66885257Y-50435911D01*
X66659656Y-49889914D01*
X66242283Y-49471812D01*
X65696681Y-49245258D01*
X65105911Y-49244743D01*
X64559914Y-49470344D01*
X64141812Y-49887717D01*
X64130252Y-49915557D01*
X64119656Y-49889914D01*
X63702283Y-49471812D01*
X63156681Y-49245258D01*
X62565911Y-49244743D01*
X62019914Y-49470344D01*
X61601812Y-49887717D01*
X61375258Y-50433319D01*
X61374743Y-51024089D01*
X61484615Y-51290000D01*
X56515402Y-51290000D01*
X56624742Y-51026681D01*
X56625257Y-50435911D01*
X56399656Y-49889914D01*
X55982283Y-49471812D01*
X55436681Y-49245258D01*
X54845911Y-49244743D01*
X54299914Y-49470344D01*
X53881812Y-49887717D01*
X53870252Y-49915557D01*
X53859656Y-49889914D01*
X53442283Y-49471812D01*
X52896681Y-49245258D01*
X52305911Y-49244743D01*
X51759914Y-49470344D01*
X51341812Y-49887717D01*
X51115258Y-50433319D01*
X51114743Y-51024089D01*
X51224615Y-51290000D01*
X34775402Y-51290000D01*
X34884742Y-51026681D01*
X34885257Y-50435911D01*
X34659656Y-49889914D01*
X34242283Y-49471812D01*
X33696681Y-49245258D01*
X33105911Y-49244743D01*
X32559914Y-49470344D01*
X32141812Y-49887717D01*
X32130252Y-49915557D01*
X32119656Y-49889914D01*
X31702283Y-49471812D01*
X31156681Y-49245258D01*
X30565911Y-49244743D01*
X30019914Y-49470344D01*
X29601812Y-49887717D01*
X29375258Y-50433319D01*
X29374743Y-51024089D01*
X29484615Y-51290000D01*
X27710000Y-51290000D01*
X27710000Y-42455402D01*
X27973319Y-42564742D01*
X28564089Y-42565257D01*
X29110086Y-42339656D01*
X29528188Y-41922283D01*
X29531212Y-41915000D01*
X31852560Y-41915000D01*
X31852560Y-41930000D01*
X31896838Y-42165317D01*
X32035910Y-42381441D01*
X32248110Y-42526431D01*
X32500000Y-42577440D01*
X34200000Y-42577440D01*
X34435317Y-42533162D01*
X34651441Y-42394090D01*
X34796431Y-42181890D01*
X34847440Y-41930000D01*
X34847440Y-41915000D01*
X56468243Y-41915000D01*
X56470344Y-41920086D01*
X56887717Y-42338188D01*
X57433319Y-42564742D01*
X58024089Y-42565257D01*
X58570086Y-42339656D01*
X58988188Y-41922283D01*
X58991212Y-41915000D01*
X59008243Y-41915000D01*
X59010344Y-41920086D01*
X59427717Y-42338188D01*
X59973319Y-42564742D01*
X60564089Y-42565257D01*
X61110086Y-42339656D01*
X61528188Y-41922283D01*
X61531212Y-41915000D01*
X88468243Y-41915000D01*
X88470344Y-41920086D01*
X88887717Y-42338188D01*
X89433319Y-42564742D01*
X90024089Y-42565257D01*
X90570086Y-42339656D01*
X90988188Y-41922283D01*
X90991212Y-41915000D01*
X91004243Y-41915000D01*
X91006344Y-41920086D01*
X91423717Y-42338188D01*
X91969319Y-42564742D01*
X92560089Y-42565257D01*
X93106086Y-42339656D01*
X93524188Y-41922283D01*
X93527212Y-41915000D01*
X95613594Y-41915000D01*
X95601160Y-41976400D01*
X95601160Y-42976400D01*
X95645438Y-43211717D01*
X95784510Y-43427841D01*
X95996710Y-43572831D01*
X96248600Y-43623840D01*
X97248600Y-43623840D01*
X97483917Y-43579562D01*
X97636154Y-43481600D01*
X98098000Y-43481600D01*
X98098000Y-45166116D01*
X98060560Y-45351000D01*
X98060560Y-46851000D01*
X98104838Y-47086317D01*
X98243910Y-47302441D01*
X98456110Y-47447431D01*
X98708000Y-47498440D01*
X99158000Y-47498440D01*
X99261671Y-47478933D01*
X99358000Y-47498440D01*
X99808000Y-47498440D01*
X99911671Y-47478933D01*
X100008000Y-47498440D01*
X100458000Y-47498440D01*
X100561671Y-47478933D01*
X100658000Y-47498440D01*
X101108000Y-47498440D01*
X101343317Y-47454162D01*
X101559441Y-47315090D01*
X101704431Y-47102890D01*
X101755440Y-46851000D01*
X101755440Y-45351000D01*
X101711162Y-45115683D01*
X101572090Y-44899559D01*
X101359890Y-44754569D01*
X101108000Y-44703560D01*
X100658000Y-44703560D01*
X100554329Y-44723067D01*
X100458000Y-44703560D01*
X100008000Y-44703560D01*
X99904329Y-44723067D01*
X99808000Y-44703560D01*
X99768000Y-44703560D01*
X99768000Y-43481600D01*
X99924000Y-43481600D01*
X100243541Y-43418039D01*
X100514434Y-43237034D01*
X100695439Y-42966141D01*
X100759000Y-42646600D01*
X100759000Y-40870190D01*
X100768338Y-40919817D01*
X100907410Y-41135941D01*
X101119610Y-41280931D01*
X101371500Y-41331940D01*
X102971500Y-41331940D01*
X103206817Y-41287662D01*
X103422941Y-41148590D01*
X103567931Y-40936390D01*
X103618940Y-40684500D01*
X103618940Y-40370281D01*
X103691041Y-40355939D01*
X103961934Y-40174934D01*
X104109435Y-40027434D01*
X104290440Y-39756540D01*
X104354000Y-39437000D01*
X104354000Y-37953846D01*
X104504317Y-37925562D01*
X104720441Y-37786490D01*
X104865431Y-37574290D01*
X104916440Y-37322400D01*
X104916440Y-35322400D01*
X104872162Y-35087083D01*
X104733090Y-34870959D01*
X104520890Y-34725969D01*
X104269000Y-34674960D01*
X102769000Y-34674960D01*
X102533683Y-34719238D01*
X102367523Y-34826159D01*
X102220890Y-34725969D01*
X102054000Y-34692173D01*
X102054000Y-34153120D01*
X102225016Y-33982000D01*
X106440146Y-33982000D01*
X106477838Y-34182317D01*
G36*
X184470344Y-36840086D02*
X184887717Y-37258188D01*
X185433319Y-37484742D01*
X186024089Y-37485257D01*
X186290000Y-37375385D01*
X186290000Y-39704598D01*
X186026681Y-39595258D01*
X185435911Y-39594743D01*
X184889914Y-39820344D01*
X184471812Y-40237717D01*
X184245258Y-40783319D01*
X184244743Y-41374089D01*
X184470344Y-41920086D01*
X184887717Y-42338188D01*
X185433319Y-42564742D01*
X186024089Y-42565257D01*
X186290000Y-42455385D01*
X186290000Y-51290000D01*
X184515402Y-51290000D01*
X184624742Y-51026681D01*
X184625257Y-50435911D01*
X184399656Y-49889914D01*
X183982283Y-49471812D01*
X183436681Y-49245258D01*
X182845911Y-49244743D01*
X182299914Y-49470344D01*
X181881812Y-49887717D01*
X181870252Y-49915557D01*
X181859656Y-49889914D01*
X181442283Y-49471812D01*
X180896681Y-49245258D01*
X180305911Y-49244743D01*
X179759914Y-49470344D01*
X179341812Y-49887717D01*
X179115258Y-50433319D01*
X179114743Y-51024089D01*
X179224615Y-51290000D01*
X162775402Y-51290000D01*
X162884742Y-51026681D01*
X162885257Y-50435911D01*
X162801499Y-50233200D01*
X177769000Y-50233200D01*
X178050272Y-50177251D01*
X178288723Y-50017923D01*
X183780724Y-44525923D01*
X183940051Y-44287472D01*
X183945458Y-44260290D01*
X183996000Y-44006200D01*
X183996000Y-36735000D01*
X184426923Y-36735000D01*
X184470344Y-36840086D01*
X184470344Y-36840086D01*
G37*
X184470344Y-36840086D02*
X184887717Y-37258188D01*
X185433319Y-37484742D01*
X186024089Y-37485257D01*
X186290000Y-37375385D01*
X186290000Y-39704598D01*
X186026681Y-39595258D01*
X185435911Y-39594743D01*
X184889914Y-39820344D01*
X184471812Y-40237717D01*
X184245258Y-40783319D01*
X184244743Y-41374089D01*
X184470344Y-41920086D01*
X184887717Y-42338188D01*
X185433319Y-42564742D01*
X186024089Y-42565257D01*
X186290000Y-42455385D01*
X186290000Y-51290000D01*
X184515402Y-51290000D01*
X184624742Y-51026681D01*
X184625257Y-50435911D01*
X184399656Y-49889914D01*
X183982283Y-49471812D01*
X183436681Y-49245258D01*
X182845911Y-49244743D01*
X182299914Y-49470344D01*
X181881812Y-49887717D01*
X181870252Y-49915557D01*
X181859656Y-49889914D01*
X181442283Y-49471812D01*
X180896681Y-49245258D01*
X180305911Y-49244743D01*
X179759914Y-49470344D01*
X179341812Y-49887717D01*
X179115258Y-50433319D01*
X179114743Y-51024089D01*
X179224615Y-51290000D01*
X162775402Y-51290000D01*
X162884742Y-51026681D01*
X162885257Y-50435911D01*
X162801499Y-50233200D01*
X177769000Y-50233200D01*
X178050272Y-50177251D01*
X178288723Y-50017923D01*
X183780724Y-44525923D01*
X183940051Y-44287472D01*
X183945458Y-44260290D01*
X183996000Y-44006200D01*
X183996000Y-36735000D01*
X184426923Y-36735000D01*
X184470344Y-36840086D01*
G36*
X128387500Y-44450000D02*
X128387500Y-46309160D01*
X127188000Y-46309160D01*
X126952683Y-46353438D01*
X126736559Y-46492510D01*
X126591569Y-46704710D01*
X126540560Y-46956600D01*
X126540560Y-47956600D01*
X126584838Y-48191917D01*
X126723910Y-48408041D01*
X126936110Y-48553031D01*
X127188000Y-48604040D01*
X128438000Y-48604040D01*
X128673317Y-48559762D01*
X128889441Y-48420690D01*
X128976415Y-48293400D01*
X129456808Y-48293400D01*
X129563910Y-48459841D01*
X129776110Y-48604831D01*
X130028000Y-48655840D01*
X132528000Y-48655840D01*
X132763317Y-48611562D01*
X132770560Y-48606901D01*
X132770560Y-50408400D01*
X132814838Y-50643717D01*
X132953910Y-50859841D01*
X133166110Y-51004831D01*
X133418000Y-51055840D01*
X134518000Y-51055840D01*
X134753317Y-51011562D01*
X134969441Y-50872490D01*
X134970390Y-50871101D01*
X135166110Y-51004831D01*
X135418000Y-51055840D01*
X136518000Y-51055840D01*
X136753317Y-51011562D01*
X136969441Y-50872490D01*
X136970390Y-50871101D01*
X137166110Y-51004831D01*
X137418000Y-51055840D01*
X138518000Y-51055840D01*
X138753317Y-51011562D01*
X138969441Y-50872490D01*
X138970390Y-50871101D01*
X139166110Y-51004831D01*
X139418000Y-51055840D01*
X140518000Y-51055840D01*
X140753317Y-51011562D01*
X140969441Y-50872490D01*
X140970390Y-50871101D01*
X141166110Y-51004831D01*
X141418000Y-51055840D01*
X142441688Y-51055840D01*
X142482021Y-51116268D01*
X142655582Y-51290000D01*
X130775402Y-51290000D01*
X130884742Y-51026681D01*
X130885257Y-50435911D01*
X130659656Y-49889914D01*
X130242283Y-49471812D01*
X129696681Y-49245258D01*
X129105911Y-49244743D01*
X128559914Y-49470344D01*
X128141812Y-49887717D01*
X128130252Y-49915557D01*
X128119656Y-49889914D01*
X127702283Y-49471812D01*
X127156681Y-49245258D01*
X126565911Y-49244743D01*
X126019914Y-49470344D01*
X125601812Y-49887717D01*
X125375258Y-50433319D01*
X125374743Y-51024089D01*
X125484615Y-51290000D01*
X120511402Y-51290000D01*
X120620742Y-51026681D01*
X120621257Y-50435911D01*
X120395656Y-49889914D01*
X119978283Y-49471812D01*
X119432681Y-49245258D01*
X118841911Y-49244743D01*
X118295914Y-49470344D01*
X117877812Y-49887717D01*
X117866252Y-49915557D01*
X117855656Y-49889914D01*
X117438283Y-49471812D01*
X117028945Y-49301840D01*
X118252000Y-49301840D01*
X118487317Y-49257562D01*
X118703441Y-49118490D01*
X118848431Y-48906290D01*
X118896564Y-48668600D01*
X119327560Y-48668600D01*
X119327560Y-48683600D01*
X119371838Y-48918917D01*
X119510910Y-49135041D01*
X119723110Y-49280031D01*
X119975000Y-49331040D01*
X121275000Y-49331040D01*
X121510317Y-49286762D01*
X121726441Y-49147690D01*
X121871431Y-48935490D01*
X121922440Y-48683600D01*
X121922440Y-47183600D01*
X121878162Y-46948283D01*
X121739090Y-46732159D01*
X121526890Y-46587169D01*
X121275000Y-46536160D01*
X119975000Y-46536160D01*
X119739683Y-46580438D01*
X119523559Y-46719510D01*
X119378569Y-46931710D01*
X119327560Y-47183600D01*
X119327560Y-47198600D01*
X118899440Y-47198600D01*
X118899440Y-47154400D01*
X118855162Y-46919083D01*
X118716090Y-46702959D01*
X118503890Y-46557969D01*
X118490803Y-46555319D01*
X118703441Y-46418490D01*
X118848431Y-46206290D01*
X118899440Y-45954400D01*
X118899440Y-44454400D01*
X118855162Y-44219083D01*
X118838635Y-44193400D01*
X128438541Y-44193400D01*
X128387500Y-44450000D01*
X128387500Y-44450000D01*
G37*
X128387500Y-44450000D02*
X128387500Y-46309160D01*
X127188000Y-46309160D01*
X126952683Y-46353438D01*
X126736559Y-46492510D01*
X126591569Y-46704710D01*
X126540560Y-46956600D01*
X126540560Y-47956600D01*
X126584838Y-48191917D01*
X126723910Y-48408041D01*
X126936110Y-48553031D01*
X127188000Y-48604040D01*
X128438000Y-48604040D01*
X128673317Y-48559762D01*
X128889441Y-48420690D01*
X128976415Y-48293400D01*
X129456808Y-48293400D01*
X129563910Y-48459841D01*
X129776110Y-48604831D01*
X130028000Y-48655840D01*
X132528000Y-48655840D01*
X132763317Y-48611562D01*
X132770560Y-48606901D01*
X132770560Y-50408400D01*
X132814838Y-50643717D01*
X132953910Y-50859841D01*
X133166110Y-51004831D01*
X133418000Y-51055840D01*
X134518000Y-51055840D01*
X134753317Y-51011562D01*
X134969441Y-50872490D01*
X134970390Y-50871101D01*
X135166110Y-51004831D01*
X135418000Y-51055840D01*
X136518000Y-51055840D01*
X136753317Y-51011562D01*
X136969441Y-50872490D01*
X136970390Y-50871101D01*
X137166110Y-51004831D01*
X137418000Y-51055840D01*
X138518000Y-51055840D01*
X138753317Y-51011562D01*
X138969441Y-50872490D01*
X138970390Y-50871101D01*
X139166110Y-51004831D01*
X139418000Y-51055840D01*
X140518000Y-51055840D01*
X140753317Y-51011562D01*
X140969441Y-50872490D01*
X140970390Y-50871101D01*
X141166110Y-51004831D01*
X141418000Y-51055840D01*
X142441688Y-51055840D01*
X142482021Y-51116268D01*
X142655582Y-51290000D01*
X130775402Y-51290000D01*
X130884742Y-51026681D01*
X130885257Y-50435911D01*
X130659656Y-49889914D01*
X130242283Y-49471812D01*
X129696681Y-49245258D01*
X129105911Y-49244743D01*
X128559914Y-49470344D01*
X128141812Y-49887717D01*
X128130252Y-49915557D01*
X128119656Y-49889914D01*
X127702283Y-49471812D01*
X127156681Y-49245258D01*
X126565911Y-49244743D01*
X126019914Y-49470344D01*
X125601812Y-49887717D01*
X125375258Y-50433319D01*
X125374743Y-51024089D01*
X125484615Y-51290000D01*
X120511402Y-51290000D01*
X120620742Y-51026681D01*
X120621257Y-50435911D01*
X120395656Y-49889914D01*
X119978283Y-49471812D01*
X119432681Y-49245258D01*
X118841911Y-49244743D01*
X118295914Y-49470344D01*
X117877812Y-49887717D01*
X117866252Y-49915557D01*
X117855656Y-49889914D01*
X117438283Y-49471812D01*
X117028945Y-49301840D01*
X118252000Y-49301840D01*
X118487317Y-49257562D01*
X118703441Y-49118490D01*
X118848431Y-48906290D01*
X118896564Y-48668600D01*
X119327560Y-48668600D01*
X119327560Y-48683600D01*
X119371838Y-48918917D01*
X119510910Y-49135041D01*
X119723110Y-49280031D01*
X119975000Y-49331040D01*
X121275000Y-49331040D01*
X121510317Y-49286762D01*
X121726441Y-49147690D01*
X121871431Y-48935490D01*
X121922440Y-48683600D01*
X121922440Y-47183600D01*
X121878162Y-46948283D01*
X121739090Y-46732159D01*
X121526890Y-46587169D01*
X121275000Y-46536160D01*
X119975000Y-46536160D01*
X119739683Y-46580438D01*
X119523559Y-46719510D01*
X119378569Y-46931710D01*
X119327560Y-47183600D01*
X119327560Y-47198600D01*
X118899440Y-47198600D01*
X118899440Y-47154400D01*
X118855162Y-46919083D01*
X118716090Y-46702959D01*
X118503890Y-46557969D01*
X118490803Y-46555319D01*
X118703441Y-46418490D01*
X118848431Y-46206290D01*
X118899440Y-45954400D01*
X118899440Y-44454400D01*
X118855162Y-44219083D01*
X118838635Y-44193400D01*
X128438541Y-44193400D01*
X128387500Y-44450000D01*
G36*
X179540853Y-34510054D02*
X179870026Y-34730000D01*
X179540853Y-34949946D01*
X179218946Y-35431715D01*
X179105907Y-36000000D01*
X179218946Y-36568285D01*
X179540853Y-37050054D01*
X180022622Y-37371961D01*
X180590907Y-37485000D01*
X180649093Y-37485000D01*
X181217378Y-37371961D01*
X181699147Y-37050054D01*
X181909659Y-36735000D01*
X182526000Y-36735000D01*
X182526000Y-43701753D01*
X177464554Y-48763200D01*
X177383747Y-48763200D01*
X177875223Y-48271724D01*
X178034551Y-48033272D01*
X178090500Y-47752000D01*
X178090500Y-42227500D01*
X178034551Y-41946228D01*
X178027132Y-41935125D01*
X177875224Y-41707777D01*
X177026440Y-40858994D01*
X177026440Y-40396000D01*
X176995205Y-40230000D01*
X179122560Y-40230000D01*
X179122560Y-41930000D01*
X179166838Y-42165317D01*
X179305910Y-42381441D01*
X179518110Y-42526431D01*
X179770000Y-42577440D01*
X181470000Y-42577440D01*
X181705317Y-42533162D01*
X181921441Y-42394090D01*
X182066431Y-42181890D01*
X182117440Y-41930000D01*
X182117440Y-40230000D01*
X182073162Y-39994683D01*
X181934090Y-39778559D01*
X181721890Y-39633569D01*
X181470000Y-39582560D01*
X179770000Y-39582560D01*
X179534683Y-39626838D01*
X179318559Y-39765910D01*
X179173569Y-39978110D01*
X179122560Y-40230000D01*
X176995205Y-40230000D01*
X176982162Y-40160683D01*
X176843090Y-39944559D01*
X176630890Y-39799569D01*
X176379000Y-39748560D01*
X175379000Y-39748560D01*
X175143683Y-39792838D01*
X174927559Y-39931910D01*
X174879866Y-40001711D01*
X174843090Y-39944559D01*
X174630890Y-39799569D01*
X174379000Y-39748560D01*
X173379000Y-39748560D01*
X173143683Y-39792838D01*
X172927559Y-39931910D01*
X172782569Y-40144110D01*
X172731560Y-40396000D01*
X172731560Y-40840375D01*
X172683000Y-41084500D01*
X172683000Y-41209500D01*
X172731560Y-41453625D01*
X172731560Y-41646000D01*
X172775838Y-41881317D01*
X172914910Y-42097441D01*
X173127110Y-42242431D01*
X173144000Y-42245851D01*
X173144000Y-43373600D01*
X173163435Y-43471305D01*
X172898000Y-43418507D01*
X172502500Y-43497177D01*
X172502500Y-38989000D01*
X172446551Y-38707728D01*
X172428003Y-38679969D01*
X172287224Y-38469277D01*
X168032723Y-34214777D01*
X168003125Y-34195000D01*
X179330341Y-34195000D01*
X179540853Y-34510054D01*
X179540853Y-34510054D01*
G37*
X179540853Y-34510054D02*
X179870026Y-34730000D01*
X179540853Y-34949946D01*
X179218946Y-35431715D01*
X179105907Y-36000000D01*
X179218946Y-36568285D01*
X179540853Y-37050054D01*
X180022622Y-37371961D01*
X180590907Y-37485000D01*
X180649093Y-37485000D01*
X181217378Y-37371961D01*
X181699147Y-37050054D01*
X181909659Y-36735000D01*
X182526000Y-36735000D01*
X182526000Y-43701753D01*
X177464554Y-48763200D01*
X177383747Y-48763200D01*
X177875223Y-48271724D01*
X178034551Y-48033272D01*
X178090500Y-47752000D01*
X178090500Y-42227500D01*
X178034551Y-41946228D01*
X178027132Y-41935125D01*
X177875224Y-41707777D01*
X177026440Y-40858994D01*
X177026440Y-40396000D01*
X176995205Y-40230000D01*
X179122560Y-40230000D01*
X179122560Y-41930000D01*
X179166838Y-42165317D01*
X179305910Y-42381441D01*
X179518110Y-42526431D01*
X179770000Y-42577440D01*
X181470000Y-42577440D01*
X181705317Y-42533162D01*
X181921441Y-42394090D01*
X182066431Y-42181890D01*
X182117440Y-41930000D01*
X182117440Y-40230000D01*
X182073162Y-39994683D01*
X181934090Y-39778559D01*
X181721890Y-39633569D01*
X181470000Y-39582560D01*
X179770000Y-39582560D01*
X179534683Y-39626838D01*
X179318559Y-39765910D01*
X179173569Y-39978110D01*
X179122560Y-40230000D01*
X176995205Y-40230000D01*
X176982162Y-40160683D01*
X176843090Y-39944559D01*
X176630890Y-39799569D01*
X176379000Y-39748560D01*
X175379000Y-39748560D01*
X175143683Y-39792838D01*
X174927559Y-39931910D01*
X174879866Y-40001711D01*
X174843090Y-39944559D01*
X174630890Y-39799569D01*
X174379000Y-39748560D01*
X173379000Y-39748560D01*
X173143683Y-39792838D01*
X172927559Y-39931910D01*
X172782569Y-40144110D01*
X172731560Y-40396000D01*
X172731560Y-40840375D01*
X172683000Y-41084500D01*
X172683000Y-41209500D01*
X172731560Y-41453625D01*
X172731560Y-41646000D01*
X172775838Y-41881317D01*
X172914910Y-42097441D01*
X173127110Y-42242431D01*
X173144000Y-42245851D01*
X173144000Y-43373600D01*
X173163435Y-43471305D01*
X172898000Y-43418507D01*
X172502500Y-43497177D01*
X172502500Y-38989000D01*
X172446551Y-38707728D01*
X172428003Y-38679969D01*
X172287224Y-38469277D01*
X168032723Y-34214777D01*
X168003125Y-34195000D01*
X179330341Y-34195000D01*
X179540853Y-34510054D01*
G36*
X165764560Y-41734500D02*
X165808838Y-41969817D01*
X165947910Y-42185941D01*
X166160110Y-42330931D01*
X166412000Y-42381940D01*
X167912000Y-42381940D01*
X168147317Y-42337662D01*
X168363441Y-42198590D01*
X168508431Y-41986390D01*
X168511081Y-41973303D01*
X168647910Y-42185941D01*
X168860110Y-42330931D01*
X169112000Y-42381940D01*
X169127000Y-42381940D01*
X169127000Y-44124258D01*
X169088000Y-44182626D01*
X168868054Y-43853453D01*
X168386285Y-43531546D01*
X167818000Y-43418507D01*
X167249715Y-43531546D01*
X166767946Y-43853453D01*
X166548000Y-44182626D01*
X166328054Y-43853453D01*
X165846285Y-43531546D01*
X165278000Y-43418507D01*
X164709715Y-43531546D01*
X164227946Y-43853453D01*
X163906039Y-44335222D01*
X163793000Y-44903507D01*
X163793000Y-44961693D01*
X163906039Y-45529978D01*
X164227946Y-46011747D01*
X164709715Y-46333654D01*
X165278000Y-46446693D01*
X165846285Y-46333654D01*
X166328054Y-46011747D01*
X166548000Y-45682574D01*
X166767946Y-46011747D01*
X167249715Y-46333654D01*
X167818000Y-46446693D01*
X168386285Y-46333654D01*
X168868054Y-46011747D01*
X169088000Y-45682574D01*
X169307946Y-46011747D01*
X169789715Y-46333654D01*
X170358000Y-46446693D01*
X170926285Y-46333654D01*
X171408054Y-46011747D01*
X171628000Y-45682574D01*
X171847946Y-46011747D01*
X172329715Y-46333654D01*
X172898000Y-46446693D01*
X173466285Y-46333654D01*
X173948054Y-46011747D01*
X174168000Y-45682574D01*
X174387946Y-46011747D01*
X174869715Y-46333654D01*
X175438000Y-46446693D01*
X176006285Y-46333654D01*
X176488054Y-46011747D01*
X176620500Y-45813527D01*
X176620500Y-47447553D01*
X175781054Y-48287000D01*
X154357440Y-48287000D01*
X154357440Y-47217000D01*
X154432000Y-47217000D01*
X154713272Y-47161051D01*
X154951723Y-47001723D01*
X160954681Y-40998766D01*
X161148110Y-41130931D01*
X161400000Y-41181940D01*
X162200000Y-41181940D01*
X162435317Y-41137662D01*
X162651441Y-40998590D01*
X162750633Y-40853417D01*
X162835910Y-40985941D01*
X163048110Y-41130931D01*
X163300000Y-41181940D01*
X164100000Y-41181940D01*
X164335317Y-41137662D01*
X164551441Y-40998590D01*
X164673808Y-40819500D01*
X165764560Y-40819500D01*
X165764560Y-41734500D01*
X165764560Y-41734500D01*
G37*
X165764560Y-41734500D02*
X165808838Y-41969817D01*
X165947910Y-42185941D01*
X166160110Y-42330931D01*
X166412000Y-42381940D01*
X167912000Y-42381940D01*
X168147317Y-42337662D01*
X168363441Y-42198590D01*
X168508431Y-41986390D01*
X168511081Y-41973303D01*
X168647910Y-42185941D01*
X168860110Y-42330931D01*
X169112000Y-42381940D01*
X169127000Y-42381940D01*
X169127000Y-44124258D01*
X169088000Y-44182626D01*
X168868054Y-43853453D01*
X168386285Y-43531546D01*
X167818000Y-43418507D01*
X167249715Y-43531546D01*
X166767946Y-43853453D01*
X166548000Y-44182626D01*
X166328054Y-43853453D01*
X165846285Y-43531546D01*
X165278000Y-43418507D01*
X164709715Y-43531546D01*
X164227946Y-43853453D01*
X163906039Y-44335222D01*
X163793000Y-44903507D01*
X163793000Y-44961693D01*
X163906039Y-45529978D01*
X164227946Y-46011747D01*
X164709715Y-46333654D01*
X165278000Y-46446693D01*
X165846285Y-46333654D01*
X166328054Y-46011747D01*
X166548000Y-45682574D01*
X166767946Y-46011747D01*
X167249715Y-46333654D01*
X167818000Y-46446693D01*
X168386285Y-46333654D01*
X168868054Y-46011747D01*
X169088000Y-45682574D01*
X169307946Y-46011747D01*
X169789715Y-46333654D01*
X170358000Y-46446693D01*
X170926285Y-46333654D01*
X171408054Y-46011747D01*
X171628000Y-45682574D01*
X171847946Y-46011747D01*
X172329715Y-46333654D01*
X172898000Y-46446693D01*
X173466285Y-46333654D01*
X173948054Y-46011747D01*
X174168000Y-45682574D01*
X174387946Y-46011747D01*
X174869715Y-46333654D01*
X175438000Y-46446693D01*
X176006285Y-46333654D01*
X176488054Y-46011747D01*
X176620500Y-45813527D01*
X176620500Y-47447553D01*
X175781054Y-48287000D01*
X154357440Y-48287000D01*
X154357440Y-47217000D01*
X154432000Y-47217000D01*
X154713272Y-47161051D01*
X154951723Y-47001723D01*
X160954681Y-40998766D01*
X161148110Y-41130931D01*
X161400000Y-41181940D01*
X162200000Y-41181940D01*
X162435317Y-41137662D01*
X162651441Y-40998590D01*
X162750633Y-40853417D01*
X162835910Y-40985941D01*
X163048110Y-41130931D01*
X163300000Y-41181940D01*
X164100000Y-41181940D01*
X164335317Y-41137662D01*
X164551441Y-40998590D01*
X164673808Y-40819500D01*
X165764560Y-40819500D01*
X165764560Y-41734500D01*
G36*
X151762560Y-48224195D02*
X151762560Y-48287000D01*
X145693000Y-48287000D01*
X145693000Y-47396400D01*
X145664357Y-47252403D01*
X145657320Y-47217000D01*
X150755521Y-47217000D01*
X151762560Y-48224195D01*
X151762560Y-48224195D01*
G37*
X151762560Y-48224195D02*
X151762560Y-48287000D01*
X145693000Y-48287000D01*
X145693000Y-47396400D01*
X145664357Y-47252403D01*
X145657320Y-47217000D01*
X150755521Y-47217000D01*
X151762560Y-48224195D01*
G36*
X141671113Y-47260960D02*
X141418000Y-47260960D01*
X141182683Y-47305238D01*
X140966559Y-47444310D01*
X140965610Y-47445699D01*
X140769890Y-47311969D01*
X140518000Y-47260960D01*
X139418000Y-47260960D01*
X139182683Y-47305238D01*
X138966559Y-47444310D01*
X138965610Y-47445699D01*
X138769890Y-47311969D01*
X138518000Y-47260960D01*
X137418000Y-47260960D01*
X137182683Y-47305238D01*
X136966559Y-47444310D01*
X136965610Y-47445699D01*
X136769890Y-47311969D01*
X136518000Y-47260960D01*
X135418000Y-47260960D01*
X135182683Y-47305238D01*
X134966559Y-47444310D01*
X134965610Y-47445699D01*
X134769890Y-47311969D01*
X134518000Y-47260960D01*
X133418000Y-47260960D01*
X133182683Y-47305238D01*
X133175440Y-47309899D01*
X133175440Y-46908400D01*
X133131162Y-46673083D01*
X132992090Y-46456959D01*
X132990701Y-46456010D01*
X133124431Y-46260290D01*
X133137977Y-46193400D01*
X140603554Y-46193400D01*
X141671113Y-47260960D01*
X141671113Y-47260960D01*
G37*
X141671113Y-47260960D02*
X141418000Y-47260960D01*
X141182683Y-47305238D01*
X140966559Y-47444310D01*
X140965610Y-47445699D01*
X140769890Y-47311969D01*
X140518000Y-47260960D01*
X139418000Y-47260960D01*
X139182683Y-47305238D01*
X138966559Y-47444310D01*
X138965610Y-47445699D01*
X138769890Y-47311969D01*
X138518000Y-47260960D01*
X137418000Y-47260960D01*
X137182683Y-47305238D01*
X136966559Y-47444310D01*
X136965610Y-47445699D01*
X136769890Y-47311969D01*
X136518000Y-47260960D01*
X135418000Y-47260960D01*
X135182683Y-47305238D01*
X134966559Y-47444310D01*
X134965610Y-47445699D01*
X134769890Y-47311969D01*
X134518000Y-47260960D01*
X133418000Y-47260960D01*
X133182683Y-47305238D01*
X133175440Y-47309899D01*
X133175440Y-46908400D01*
X133131162Y-46673083D01*
X132992090Y-46456959D01*
X132990701Y-46456010D01*
X133124431Y-46260290D01*
X133137977Y-46193400D01*
X140603554Y-46193400D01*
X141671113Y-47260960D01*
G36*
X142171838Y-41554367D02*
X142313883Y-41898143D01*
X142372000Y-41956362D01*
X142372000Y-45544900D01*
X142400503Y-45688191D01*
X142427911Y-45826081D01*
X142427939Y-45826123D01*
X142427949Y-45826172D01*
X142503606Y-45939400D01*
X142587206Y-46064553D01*
X143783290Y-47260960D01*
X143674257Y-47260960D01*
X143644883Y-47216999D01*
X143521723Y-47032676D01*
X141427723Y-44938677D01*
X141189272Y-44779349D01*
X140908000Y-44723400D01*
X134130617Y-44723400D01*
X134185000Y-44450000D01*
X134185000Y-42827368D01*
X135715168Y-41297200D01*
X142172062Y-41297200D01*
X142171838Y-41554367D01*
X142171838Y-41554367D01*
G37*
X142171838Y-41554367D02*
X142313883Y-41898143D01*
X142372000Y-41956362D01*
X142372000Y-45544900D01*
X142400503Y-45688191D01*
X142427911Y-45826081D01*
X142427939Y-45826123D01*
X142427949Y-45826172D01*
X142503606Y-45939400D01*
X142587206Y-46064553D01*
X143783290Y-47260960D01*
X143674257Y-47260960D01*
X143644883Y-47216999D01*
X143521723Y-47032676D01*
X141427723Y-44938677D01*
X141189272Y-44779349D01*
X140908000Y-44723400D01*
X134130617Y-44723400D01*
X134185000Y-44450000D01*
X134185000Y-42827368D01*
X135715168Y-41297200D01*
X142172062Y-41297200D01*
X142171838Y-41554367D01*
G36*
X152625343Y-37789790D02*
X152746614Y-37870798D01*
X152863728Y-37949051D01*
X152863775Y-37949060D01*
X152863815Y-37949087D01*
X153000779Y-37976312D01*
X153145000Y-38005000D01*
X166759554Y-38005000D01*
X168699747Y-39945193D01*
X168660559Y-39970410D01*
X168515569Y-40182610D01*
X168512919Y-40195697D01*
X168376090Y-39983059D01*
X168163890Y-39838069D01*
X167912000Y-39787060D01*
X167797276Y-39787060D01*
X167760710Y-39732690D01*
X167681723Y-39614477D01*
X167680787Y-39613851D01*
X167680157Y-39612915D01*
X167630157Y-39563215D01*
X167511512Y-39484455D01*
X167393272Y-39405449D01*
X167392167Y-39405229D01*
X167391228Y-39404606D01*
X167251719Y-39377292D01*
X167112000Y-39349500D01*
X164671192Y-39349500D01*
X164564090Y-39183059D01*
X164351890Y-39038069D01*
X164100000Y-38987060D01*
X163300000Y-38987060D01*
X163064683Y-39031338D01*
X162848559Y-39170410D01*
X162749367Y-39315583D01*
X162664090Y-39183059D01*
X162451890Y-39038069D01*
X162200000Y-38987060D01*
X161400000Y-38987060D01*
X161164683Y-39031338D01*
X160948559Y-39170410D01*
X160825672Y-39350261D01*
X160579644Y-39399200D01*
X160548228Y-39405449D01*
X160309776Y-39564777D01*
X154357440Y-45517114D01*
X154357440Y-44331200D01*
X154313162Y-44095883D01*
X154174090Y-43879759D01*
X153961890Y-43734769D01*
X153870000Y-43716161D01*
X153870000Y-43510200D01*
X153806439Y-43190659D01*
X153625434Y-42919766D01*
X153154729Y-42449061D01*
X153433319Y-42564742D01*
X154024089Y-42565257D01*
X154570086Y-42339656D01*
X154988188Y-41922283D01*
X154991212Y-41915000D01*
X155008243Y-41915000D01*
X155010344Y-41920086D01*
X155427717Y-42338188D01*
X155973319Y-42564742D01*
X156564089Y-42565257D01*
X157110086Y-42339656D01*
X157528188Y-41922283D01*
X157754742Y-41376681D01*
X157755257Y-40785911D01*
X157529656Y-40239914D01*
X157112283Y-39821812D01*
X156566681Y-39595258D01*
X155975911Y-39594743D01*
X155429914Y-39820344D01*
X155011812Y-40237717D01*
X155008788Y-40245000D01*
X154991757Y-40245000D01*
X154989656Y-40239914D01*
X154572283Y-39821812D01*
X154026681Y-39595258D01*
X153435911Y-39594743D01*
X152889914Y-39820344D01*
X152698057Y-40011866D01*
X152695322Y-39998143D01*
X152663439Y-39837859D01*
X152663342Y-39837713D01*
X152663307Y-39837540D01*
X152572830Y-39702253D01*
X152482434Y-39566966D01*
X152482287Y-39566868D01*
X152482189Y-39566721D01*
X151999190Y-39084121D01*
X151862751Y-38993037D01*
X151738681Y-38910136D01*
X151697162Y-38689483D01*
X151558090Y-38473359D01*
X151345890Y-38328369D01*
X151279000Y-38314823D01*
X151279000Y-38196430D01*
X151329317Y-38186962D01*
X151545441Y-38047890D01*
X151690431Y-37835690D01*
X151741440Y-37583800D01*
X151741440Y-36906114D01*
X152625343Y-37789790D01*
X152625343Y-37789790D01*
G37*
X152625343Y-37789790D02*
X152746614Y-37870798D01*
X152863728Y-37949051D01*
X152863775Y-37949060D01*
X152863815Y-37949087D01*
X153000779Y-37976312D01*
X153145000Y-38005000D01*
X166759554Y-38005000D01*
X168699747Y-39945193D01*
X168660559Y-39970410D01*
X168515569Y-40182610D01*
X168512919Y-40195697D01*
X168376090Y-39983059D01*
X168163890Y-39838069D01*
X167912000Y-39787060D01*
X167797276Y-39787060D01*
X167760710Y-39732690D01*
X167681723Y-39614477D01*
X167680787Y-39613851D01*
X167680157Y-39612915D01*
X167630157Y-39563215D01*
X167511512Y-39484455D01*
X167393272Y-39405449D01*
X167392167Y-39405229D01*
X167391228Y-39404606D01*
X167251719Y-39377292D01*
X167112000Y-39349500D01*
X164671192Y-39349500D01*
X164564090Y-39183059D01*
X164351890Y-39038069D01*
X164100000Y-38987060D01*
X163300000Y-38987060D01*
X163064683Y-39031338D01*
X162848559Y-39170410D01*
X162749367Y-39315583D01*
X162664090Y-39183059D01*
X162451890Y-39038069D01*
X162200000Y-38987060D01*
X161400000Y-38987060D01*
X161164683Y-39031338D01*
X160948559Y-39170410D01*
X160825672Y-39350261D01*
X160579644Y-39399200D01*
X160548228Y-39405449D01*
X160309776Y-39564777D01*
X154357440Y-45517114D01*
X154357440Y-44331200D01*
X154313162Y-44095883D01*
X154174090Y-43879759D01*
X153961890Y-43734769D01*
X153870000Y-43716161D01*
X153870000Y-43510200D01*
X153806439Y-43190659D01*
X153625434Y-42919766D01*
X153154729Y-42449061D01*
X153433319Y-42564742D01*
X154024089Y-42565257D01*
X154570086Y-42339656D01*
X154988188Y-41922283D01*
X154991212Y-41915000D01*
X155008243Y-41915000D01*
X155010344Y-41920086D01*
X155427717Y-42338188D01*
X155973319Y-42564742D01*
X156564089Y-42565257D01*
X157110086Y-42339656D01*
X157528188Y-41922283D01*
X157754742Y-41376681D01*
X157755257Y-40785911D01*
X157529656Y-40239914D01*
X157112283Y-39821812D01*
X156566681Y-39595258D01*
X155975911Y-39594743D01*
X155429914Y-39820344D01*
X155011812Y-40237717D01*
X155008788Y-40245000D01*
X154991757Y-40245000D01*
X154989656Y-40239914D01*
X154572283Y-39821812D01*
X154026681Y-39595258D01*
X153435911Y-39594743D01*
X152889914Y-39820344D01*
X152698057Y-40011866D01*
X152695322Y-39998143D01*
X152663439Y-39837859D01*
X152663342Y-39837713D01*
X152663307Y-39837540D01*
X152572830Y-39702253D01*
X152482434Y-39566966D01*
X152482287Y-39566868D01*
X152482189Y-39566721D01*
X151999190Y-39084121D01*
X151862751Y-38993037D01*
X151738681Y-38910136D01*
X151697162Y-38689483D01*
X151558090Y-38473359D01*
X151345890Y-38328369D01*
X151279000Y-38314823D01*
X151279000Y-38196430D01*
X151329317Y-38186962D01*
X151545441Y-38047890D01*
X151690431Y-37835690D01*
X151741440Y-37583800D01*
X151741440Y-36906114D01*
X152625343Y-37789790D01*
G36*
X129633632Y-27628889D02*
X129527980Y-27523133D01*
X129527825Y-27523029D01*
X129527723Y-27522877D01*
X129409190Y-27443675D01*
X129289607Y-27363688D01*
X129289426Y-27363652D01*
X129289272Y-27363549D01*
X129147851Y-27335418D01*
X129008363Y-27307601D01*
X129008184Y-27307637D01*
X129008000Y-27307600D01*
X128933192Y-27307600D01*
X128826090Y-27141159D01*
X128613890Y-26996169D01*
X128362000Y-26945160D01*
X127162000Y-26945160D01*
X126926683Y-26989438D01*
X126710559Y-27128510D01*
X126565569Y-27340710D01*
X126514560Y-27592600D01*
X126514560Y-28492600D01*
X126558838Y-28727917D01*
X126697910Y-28944041D01*
X126910110Y-29089031D01*
X127162000Y-29140040D01*
X128362000Y-29140040D01*
X128597317Y-29095762D01*
X128678000Y-29043844D01*
X128678000Y-30339973D01*
X128613890Y-30296169D01*
X128362000Y-30245160D01*
X127162000Y-30245160D01*
X126926683Y-30289438D01*
X126710559Y-30428510D01*
X126565569Y-30640710D01*
X126514560Y-30892600D01*
X126514560Y-31792600D01*
X126558838Y-32027917D01*
X126682363Y-32219880D01*
X126660559Y-32233910D01*
X126515569Y-32446110D01*
X126464560Y-32698000D01*
X126464560Y-34198000D01*
X126508838Y-34433317D01*
X126647910Y-34649441D01*
X126860110Y-34794431D01*
X126873197Y-34797081D01*
X126660559Y-34933910D01*
X126515569Y-35146110D01*
X126474041Y-35351183D01*
X126346459Y-35376561D01*
X126085451Y-35550961D01*
X126075566Y-35557566D01*
X125755107Y-35878025D01*
X125755257Y-35705911D01*
X125529656Y-35159914D01*
X125112283Y-34741812D01*
X125084443Y-34730252D01*
X125110086Y-34719656D01*
X125528188Y-34302283D01*
X125754742Y-33756681D01*
X125755257Y-33165911D01*
X125529656Y-32619914D01*
X125112283Y-32201812D01*
X125084443Y-32190252D01*
X125110086Y-32179656D01*
X125528188Y-31762283D01*
X125754742Y-31216681D01*
X125755257Y-30625911D01*
X125529656Y-30079914D01*
X125112283Y-29661812D01*
X124566681Y-29435258D01*
X123975911Y-29434743D01*
X123429914Y-29660344D01*
X123011812Y-30077717D01*
X122998247Y-30110386D01*
X122985656Y-30079914D01*
X122568283Y-29661812D01*
X122022681Y-29435258D01*
X121431911Y-29434743D01*
X120885914Y-29660344D01*
X120467812Y-30077717D01*
X120241258Y-30623319D01*
X120240743Y-31214089D01*
X120466344Y-31760086D01*
X120883717Y-32178188D01*
X120911557Y-32189748D01*
X120885914Y-32200344D01*
X120467812Y-32617717D01*
X120241258Y-33163319D01*
X120240743Y-33754089D01*
X120466344Y-34300086D01*
X120883717Y-34718188D01*
X120911557Y-34729748D01*
X120885914Y-34740344D01*
X120467812Y-35157717D01*
X120241258Y-35703319D01*
X120240743Y-36294089D01*
X120466344Y-36840086D01*
X120883717Y-37258188D01*
X121429319Y-37484742D01*
X122020089Y-37485257D01*
X122566086Y-37259656D01*
X122984188Y-36842283D01*
X122997753Y-36809614D01*
X123010344Y-36840086D01*
X123427717Y-37258188D01*
X123973319Y-37484742D01*
X124564089Y-37485257D01*
X125110086Y-37259656D01*
X125225000Y-37144942D01*
X125225000Y-39934726D01*
X125112283Y-39821812D01*
X124566681Y-39595258D01*
X123975911Y-39594743D01*
X123429914Y-39820344D01*
X123011812Y-40237717D01*
X123008788Y-40245000D01*
X122987757Y-40245000D01*
X122985656Y-40239914D01*
X122568283Y-39821812D01*
X122022681Y-39595258D01*
X121431911Y-39594743D01*
X120885914Y-39820344D01*
X120467812Y-40237717D01*
X120241258Y-40783319D01*
X120240743Y-41374089D01*
X120353301Y-41646500D01*
X120240000Y-41646500D01*
X120240000Y-40182800D01*
X120208051Y-40022184D01*
X120176575Y-39863588D01*
X120176474Y-39863437D01*
X120176439Y-39863259D01*
X120085836Y-39727662D01*
X119995685Y-39592617D01*
X119643686Y-39240317D01*
X119643534Y-39240215D01*
X119643434Y-39240066D01*
X119508722Y-39150054D01*
X119372869Y-39059197D01*
X119372692Y-39059162D01*
X119372541Y-39059061D01*
X119213177Y-39027361D01*
X119053356Y-38995500D01*
X119053178Y-38995535D01*
X119053000Y-38995500D01*
X118766018Y-38995500D01*
X118691090Y-38879059D01*
X118478890Y-38734069D01*
X118227000Y-38683060D01*
X116977000Y-38683060D01*
X116741683Y-38727338D01*
X116525559Y-38866410D01*
X116437356Y-38995500D01*
X109674000Y-38995500D01*
X109674000Y-34594440D01*
X110581000Y-34594440D01*
X110816317Y-34550162D01*
X111032441Y-34411090D01*
X111177431Y-34198890D01*
X111228440Y-33947000D01*
X111228440Y-32347000D01*
X111184162Y-32111683D01*
X111045090Y-31895559D01*
X110832890Y-31750569D01*
X110581000Y-31699560D01*
X109674000Y-31699560D01*
X109674000Y-27142855D01*
X113070881Y-23745800D01*
X129664295Y-23745800D01*
X129633632Y-27628889D01*
X129633632Y-27628889D01*
G37*
X129633632Y-27628889D02*
X129527980Y-27523133D01*
X129527825Y-27523029D01*
X129527723Y-27522877D01*
X129409190Y-27443675D01*
X129289607Y-27363688D01*
X129289426Y-27363652D01*
X129289272Y-27363549D01*
X129147851Y-27335418D01*
X129008363Y-27307601D01*
X129008184Y-27307637D01*
X129008000Y-27307600D01*
X128933192Y-27307600D01*
X128826090Y-27141159D01*
X128613890Y-26996169D01*
X128362000Y-26945160D01*
X127162000Y-26945160D01*
X126926683Y-26989438D01*
X126710559Y-27128510D01*
X126565569Y-27340710D01*
X126514560Y-27592600D01*
X126514560Y-28492600D01*
X126558838Y-28727917D01*
X126697910Y-28944041D01*
X126910110Y-29089031D01*
X127162000Y-29140040D01*
X128362000Y-29140040D01*
X128597317Y-29095762D01*
X128678000Y-29043844D01*
X128678000Y-30339973D01*
X128613890Y-30296169D01*
X128362000Y-30245160D01*
X127162000Y-30245160D01*
X126926683Y-30289438D01*
X126710559Y-30428510D01*
X126565569Y-30640710D01*
X126514560Y-30892600D01*
X126514560Y-31792600D01*
X126558838Y-32027917D01*
X126682363Y-32219880D01*
X126660559Y-32233910D01*
X126515569Y-32446110D01*
X126464560Y-32698000D01*
X126464560Y-34198000D01*
X126508838Y-34433317D01*
X126647910Y-34649441D01*
X126860110Y-34794431D01*
X126873197Y-34797081D01*
X126660559Y-34933910D01*
X126515569Y-35146110D01*
X126474041Y-35351183D01*
X126346459Y-35376561D01*
X126085451Y-35550961D01*
X126075566Y-35557566D01*
X125755107Y-35878025D01*
X125755257Y-35705911D01*
X125529656Y-35159914D01*
X125112283Y-34741812D01*
X125084443Y-34730252D01*
X125110086Y-34719656D01*
X125528188Y-34302283D01*
X125754742Y-33756681D01*
X125755257Y-33165911D01*
X125529656Y-32619914D01*
X125112283Y-32201812D01*
X125084443Y-32190252D01*
X125110086Y-32179656D01*
X125528188Y-31762283D01*
X125754742Y-31216681D01*
X125755257Y-30625911D01*
X125529656Y-30079914D01*
X125112283Y-29661812D01*
X124566681Y-29435258D01*
X123975911Y-29434743D01*
X123429914Y-29660344D01*
X123011812Y-30077717D01*
X122998247Y-30110386D01*
X122985656Y-30079914D01*
X122568283Y-29661812D01*
X122022681Y-29435258D01*
X121431911Y-29434743D01*
X120885914Y-29660344D01*
X120467812Y-30077717D01*
X120241258Y-30623319D01*
X120240743Y-31214089D01*
X120466344Y-31760086D01*
X120883717Y-32178188D01*
X120911557Y-32189748D01*
X120885914Y-32200344D01*
X120467812Y-32617717D01*
X120241258Y-33163319D01*
X120240743Y-33754089D01*
X120466344Y-34300086D01*
X120883717Y-34718188D01*
X120911557Y-34729748D01*
X120885914Y-34740344D01*
X120467812Y-35157717D01*
X120241258Y-35703319D01*
X120240743Y-36294089D01*
X120466344Y-36840086D01*
X120883717Y-37258188D01*
X121429319Y-37484742D01*
X122020089Y-37485257D01*
X122566086Y-37259656D01*
X122984188Y-36842283D01*
X122997753Y-36809614D01*
X123010344Y-36840086D01*
X123427717Y-37258188D01*
X123973319Y-37484742D01*
X124564089Y-37485257D01*
X125110086Y-37259656D01*
X125225000Y-37144942D01*
X125225000Y-39934726D01*
X125112283Y-39821812D01*
X124566681Y-39595258D01*
X123975911Y-39594743D01*
X123429914Y-39820344D01*
X123011812Y-40237717D01*
X123008788Y-40245000D01*
X122987757Y-40245000D01*
X122985656Y-40239914D01*
X122568283Y-39821812D01*
X122022681Y-39595258D01*
X121431911Y-39594743D01*
X120885914Y-39820344D01*
X120467812Y-40237717D01*
X120241258Y-40783319D01*
X120240743Y-41374089D01*
X120353301Y-41646500D01*
X120240000Y-41646500D01*
X120240000Y-40182800D01*
X120208051Y-40022184D01*
X120176575Y-39863588D01*
X120176474Y-39863437D01*
X120176439Y-39863259D01*
X120085836Y-39727662D01*
X119995685Y-39592617D01*
X119643686Y-39240317D01*
X119643534Y-39240215D01*
X119643434Y-39240066D01*
X119508722Y-39150054D01*
X119372869Y-39059197D01*
X119372692Y-39059162D01*
X119372541Y-39059061D01*
X119213177Y-39027361D01*
X119053356Y-38995500D01*
X119053178Y-38995535D01*
X119053000Y-38995500D01*
X118766018Y-38995500D01*
X118691090Y-38879059D01*
X118478890Y-38734069D01*
X118227000Y-38683060D01*
X116977000Y-38683060D01*
X116741683Y-38727338D01*
X116525559Y-38866410D01*
X116437356Y-38995500D01*
X109674000Y-38995500D01*
X109674000Y-34594440D01*
X110581000Y-34594440D01*
X110816317Y-34550162D01*
X111032441Y-34411090D01*
X111177431Y-34198890D01*
X111228440Y-33947000D01*
X111228440Y-32347000D01*
X111184162Y-32111683D01*
X111045090Y-31895559D01*
X110832890Y-31750569D01*
X110581000Y-31699560D01*
X109674000Y-31699560D01*
X109674000Y-27142855D01*
X113070881Y-23745800D01*
X129664295Y-23745800D01*
X129633632Y-27628889D01*
G36*
X29375258Y-20973319D02*
X29374743Y-21564089D01*
X29600344Y-22110086D01*
X30017717Y-22528188D01*
X30563319Y-22754742D01*
X31154089Y-22755257D01*
X31700086Y-22529656D01*
X32118188Y-22112283D01*
X32129748Y-22084443D01*
X32140344Y-22110086D01*
X32557717Y-22528188D01*
X33103319Y-22754742D01*
X33694089Y-22755257D01*
X34240086Y-22529656D01*
X34658188Y-22112283D01*
X34884742Y-21566681D01*
X34885257Y-20975911D01*
X34775385Y-20710000D01*
X51224598Y-20710000D01*
X51115258Y-20973319D01*
X51114743Y-21564089D01*
X51340344Y-22110086D01*
X51757717Y-22528188D01*
X52303319Y-22754742D01*
X52894089Y-22755257D01*
X53440086Y-22529656D01*
X53858188Y-22112283D01*
X53869748Y-22084443D01*
X53880344Y-22110086D01*
X54297717Y-22528188D01*
X54843319Y-22754742D01*
X55434089Y-22755257D01*
X55980086Y-22529656D01*
X56398188Y-22112283D01*
X56624742Y-21566681D01*
X56625257Y-20975911D01*
X56515385Y-20710000D01*
X61484598Y-20710000D01*
X61375258Y-20973319D01*
X61374743Y-21564089D01*
X61600344Y-22110086D01*
X62017717Y-22528188D01*
X62563319Y-22754742D01*
X63154089Y-22755257D01*
X63700086Y-22529656D01*
X64118188Y-22112283D01*
X64129748Y-22084443D01*
X64140344Y-22110086D01*
X64557717Y-22528188D01*
X65103319Y-22754742D01*
X65694089Y-22755257D01*
X66240086Y-22529656D01*
X66658188Y-22112283D01*
X66884742Y-21566681D01*
X66885257Y-20975911D01*
X66775385Y-20710000D01*
X83224598Y-20710000D01*
X83115258Y-20973319D01*
X83114743Y-21564089D01*
X83340344Y-22110086D01*
X83757717Y-22528188D01*
X84303319Y-22754742D01*
X84894089Y-22755257D01*
X85440086Y-22529656D01*
X85858188Y-22112283D01*
X85869748Y-22084443D01*
X85880344Y-22110086D01*
X86297717Y-22528188D01*
X86843319Y-22754742D01*
X87434089Y-22755257D01*
X87980086Y-22529656D01*
X88398188Y-22112283D01*
X88624742Y-21566681D01*
X88625257Y-20975911D01*
X88515385Y-20710000D01*
X93480598Y-20710000D01*
X93371258Y-20973319D01*
X93370743Y-21564089D01*
X93596344Y-22110086D01*
X94013717Y-22528188D01*
X94559319Y-22754742D01*
X95150089Y-22755257D01*
X95696086Y-22529656D01*
X96114188Y-22112283D01*
X96125748Y-22084443D01*
X96136344Y-22110086D01*
X96553717Y-22528188D01*
X97099319Y-22754742D01*
X97690089Y-22755257D01*
X98236086Y-22529656D01*
X98654188Y-22112283D01*
X98880742Y-21566681D01*
X98881257Y-20975911D01*
X98771385Y-20710000D01*
X115220598Y-20710000D01*
X115111258Y-20973319D01*
X115110743Y-21564089D01*
X115322177Y-22075800D01*
X112725000Y-22075800D01*
X112724989Y-22075802D01*
X112724978Y-22075800D01*
X112562320Y-22108159D01*
X112405459Y-22139361D01*
X112405450Y-22139367D01*
X112405440Y-22139369D01*
X112264185Y-22233757D01*
X112134566Y-22320366D01*
X112134561Y-22320374D01*
X112134550Y-22320381D01*
X108248551Y-26206581D01*
X108158544Y-26341294D01*
X108067561Y-26477459D01*
X108067559Y-26477470D01*
X108067552Y-26477480D01*
X108033496Y-26648712D01*
X108004000Y-26797000D01*
X108004000Y-31699560D01*
X107081000Y-31699560D01*
X106845683Y-31743838D01*
X106629559Y-31882910D01*
X106484569Y-32095110D01*
X106440648Y-32312000D01*
X104366440Y-32312000D01*
X104366440Y-27522400D01*
X104322162Y-27287083D01*
X104183090Y-27070959D01*
X103970890Y-26925969D01*
X103719000Y-26874960D01*
X98719000Y-26874960D01*
X98483683Y-26919238D01*
X98267559Y-27058310D01*
X98122569Y-27270510D01*
X98071560Y-27522400D01*
X98071560Y-32522400D01*
X98115838Y-32757717D01*
X98254910Y-32973841D01*
X98467110Y-33118831D01*
X98719000Y-33169840D01*
X100675663Y-33169840D01*
X100628387Y-33217145D01*
X100538400Y-33351909D01*
X100447561Y-33487859D01*
X100447536Y-33487987D01*
X100447464Y-33488094D01*
X100415754Y-33647763D01*
X100384000Y-33807400D01*
X100384000Y-34690954D01*
X100233683Y-34719238D01*
X100017559Y-34858310D01*
X99872569Y-35070510D01*
X99821560Y-35322400D01*
X99821560Y-36788972D01*
X97741226Y-38869306D01*
X97712690Y-38824959D01*
X97500490Y-38679969D01*
X97248600Y-38628960D01*
X96248600Y-38628960D01*
X96013283Y-38673238D01*
X95797159Y-38812310D01*
X95652169Y-39024510D01*
X95601160Y-39276400D01*
X95601160Y-40245000D01*
X93527757Y-40245000D01*
X93525656Y-40239914D01*
X93108283Y-39821812D01*
X92562681Y-39595258D01*
X91971911Y-39594743D01*
X91425914Y-39820344D01*
X91007812Y-40237717D01*
X91004788Y-40245000D01*
X90991757Y-40245000D01*
X90989656Y-40239914D01*
X90572283Y-39821812D01*
X90026681Y-39595258D01*
X89435911Y-39594743D01*
X88889914Y-39820344D01*
X88471812Y-40237717D01*
X88468788Y-40245000D01*
X61531757Y-40245000D01*
X61529656Y-40239914D01*
X61112283Y-39821812D01*
X60566681Y-39595258D01*
X59975911Y-39594743D01*
X59429914Y-39820344D01*
X59011812Y-40237717D01*
X59008788Y-40245000D01*
X58991757Y-40245000D01*
X58989656Y-40239914D01*
X58572283Y-39821812D01*
X58026681Y-39595258D01*
X57435911Y-39594743D01*
X56889914Y-39820344D01*
X56471812Y-40237717D01*
X56468788Y-40245000D01*
X34847440Y-40245000D01*
X34847440Y-40230000D01*
X34803162Y-39994683D01*
X34664090Y-39778559D01*
X34451890Y-39633569D01*
X34200000Y-39582560D01*
X32500000Y-39582560D01*
X32264683Y-39626838D01*
X32048559Y-39765910D01*
X31903569Y-39978110D01*
X31852560Y-40230000D01*
X31852560Y-40245000D01*
X29531757Y-40245000D01*
X29529656Y-40239914D01*
X29112283Y-39821812D01*
X28566681Y-39595258D01*
X27975911Y-39594743D01*
X27710000Y-39704615D01*
X27710000Y-37375402D01*
X27973319Y-37484742D01*
X28564089Y-37485257D01*
X29110086Y-37259656D01*
X29528188Y-36842283D01*
X29569165Y-36743600D01*
X32066087Y-36743600D01*
X32270853Y-37050054D01*
X32752622Y-37371961D01*
X33320907Y-37485000D01*
X33379093Y-37485000D01*
X33947378Y-37371961D01*
X34429147Y-37050054D01*
X34751054Y-36568285D01*
X34864093Y-36000000D01*
X34751054Y-35431715D01*
X34429147Y-34949946D01*
X34099974Y-34730000D01*
X34429147Y-34510054D01*
X34639659Y-34195000D01*
X56426923Y-34195000D01*
X56470344Y-34300086D01*
X56887717Y-34718188D01*
X56915557Y-34729748D01*
X56889914Y-34740344D01*
X56471812Y-35157717D01*
X56245258Y-35703319D01*
X56244743Y-36294089D01*
X56470344Y-36840086D01*
X56887717Y-37258188D01*
X57433319Y-37484742D01*
X58024089Y-37485257D01*
X58570086Y-37259656D01*
X58988188Y-36842283D01*
X58999748Y-36814443D01*
X59010344Y-36840086D01*
X59427717Y-37258188D01*
X59973319Y-37484742D01*
X60564089Y-37485257D01*
X61110086Y-37259656D01*
X61528188Y-36842283D01*
X61754742Y-36296681D01*
X61755257Y-35705911D01*
X61529656Y-35159914D01*
X61112283Y-34741812D01*
X61084443Y-34730252D01*
X61110086Y-34719656D01*
X61528188Y-34302283D01*
X61572736Y-34195000D01*
X88426923Y-34195000D01*
X88470344Y-34300086D01*
X88887717Y-34718188D01*
X88915557Y-34729748D01*
X88889914Y-34740344D01*
X88471812Y-35157717D01*
X88245258Y-35703319D01*
X88244743Y-36294089D01*
X88470344Y-36840086D01*
X88887717Y-37258188D01*
X89433319Y-37484742D01*
X90024089Y-37485257D01*
X90570086Y-37259656D01*
X90988188Y-36842283D01*
X90997743Y-36819271D01*
X91006344Y-36840086D01*
X91423717Y-37258188D01*
X91969319Y-37484742D01*
X92560089Y-37485257D01*
X93106086Y-37259656D01*
X93524188Y-36842283D01*
X93750742Y-36296681D01*
X93751257Y-35705911D01*
X93525656Y-35159914D01*
X93108283Y-34741812D01*
X93080443Y-34730252D01*
X93106086Y-34719656D01*
X93524188Y-34302283D01*
X93750742Y-33756681D01*
X93751257Y-33165911D01*
X93525656Y-32619914D01*
X93108283Y-32201812D01*
X93080443Y-32190252D01*
X93106086Y-32179656D01*
X93524188Y-31762283D01*
X93750742Y-31216681D01*
X93751257Y-30625911D01*
X93525656Y-30079914D01*
X93108283Y-29661812D01*
X92562681Y-29435258D01*
X91971911Y-29434743D01*
X91425914Y-29660344D01*
X91007812Y-30077717D01*
X90998257Y-30100729D01*
X90989656Y-30079914D01*
X90572283Y-29661812D01*
X90026681Y-29435258D01*
X89435911Y-29434743D01*
X88889914Y-29660344D01*
X88471812Y-30077717D01*
X88427264Y-30185000D01*
X61573077Y-30185000D01*
X61529656Y-30079914D01*
X61112283Y-29661812D01*
X60566681Y-29435258D01*
X59975911Y-29434743D01*
X59429914Y-29660344D01*
X59011812Y-30077717D01*
X59000252Y-30105557D01*
X58989656Y-30079914D01*
X58572283Y-29661812D01*
X58026681Y-29435258D01*
X57435911Y-29434743D01*
X56889914Y-29660344D01*
X56471812Y-30077717D01*
X56427264Y-30185000D01*
X34639659Y-30185000D01*
X34429147Y-29869946D01*
X33947378Y-29548039D01*
X33379093Y-29435000D01*
X33320907Y-29435000D01*
X32752622Y-29548039D01*
X32270853Y-29869946D01*
X32060341Y-30185000D01*
X29573077Y-30185000D01*
X29529656Y-30079914D01*
X29112283Y-29661812D01*
X28566681Y-29435258D01*
X27975911Y-29434743D01*
X27710000Y-29544615D01*
X27710000Y-20710000D01*
X29484598Y-20710000D01*
X29375258Y-20973319D01*
X29375258Y-20973319D01*
G37*
X29375258Y-20973319D02*
X29374743Y-21564089D01*
X29600344Y-22110086D01*
X30017717Y-22528188D01*
X30563319Y-22754742D01*
X31154089Y-22755257D01*
X31700086Y-22529656D01*
X32118188Y-22112283D01*
X32129748Y-22084443D01*
X32140344Y-22110086D01*
X32557717Y-22528188D01*
X33103319Y-22754742D01*
X33694089Y-22755257D01*
X34240086Y-22529656D01*
X34658188Y-22112283D01*
X34884742Y-21566681D01*
X34885257Y-20975911D01*
X34775385Y-20710000D01*
X51224598Y-20710000D01*
X51115258Y-20973319D01*
X51114743Y-21564089D01*
X51340344Y-22110086D01*
X51757717Y-22528188D01*
X52303319Y-22754742D01*
X52894089Y-22755257D01*
X53440086Y-22529656D01*
X53858188Y-22112283D01*
X53869748Y-22084443D01*
X53880344Y-22110086D01*
X54297717Y-22528188D01*
X54843319Y-22754742D01*
X55434089Y-22755257D01*
X55980086Y-22529656D01*
X56398188Y-22112283D01*
X56624742Y-21566681D01*
X56625257Y-20975911D01*
X56515385Y-20710000D01*
X61484598Y-20710000D01*
X61375258Y-20973319D01*
X61374743Y-21564089D01*
X61600344Y-22110086D01*
X62017717Y-22528188D01*
X62563319Y-22754742D01*
X63154089Y-22755257D01*
X63700086Y-22529656D01*
X64118188Y-22112283D01*
X64129748Y-22084443D01*
X64140344Y-22110086D01*
X64557717Y-22528188D01*
X65103319Y-22754742D01*
X65694089Y-22755257D01*
X66240086Y-22529656D01*
X66658188Y-22112283D01*
X66884742Y-21566681D01*
X66885257Y-20975911D01*
X66775385Y-20710000D01*
X83224598Y-20710000D01*
X83115258Y-20973319D01*
X83114743Y-21564089D01*
X83340344Y-22110086D01*
X83757717Y-22528188D01*
X84303319Y-22754742D01*
X84894089Y-22755257D01*
X85440086Y-22529656D01*
X85858188Y-22112283D01*
X85869748Y-22084443D01*
X85880344Y-22110086D01*
X86297717Y-22528188D01*
X86843319Y-22754742D01*
X87434089Y-22755257D01*
X87980086Y-22529656D01*
X88398188Y-22112283D01*
X88624742Y-21566681D01*
X88625257Y-20975911D01*
X88515385Y-20710000D01*
X93480598Y-20710000D01*
X93371258Y-20973319D01*
X93370743Y-21564089D01*
X93596344Y-22110086D01*
X94013717Y-22528188D01*
X94559319Y-22754742D01*
X95150089Y-22755257D01*
X95696086Y-22529656D01*
X96114188Y-22112283D01*
X96125748Y-22084443D01*
X96136344Y-22110086D01*
X96553717Y-22528188D01*
X97099319Y-22754742D01*
X97690089Y-22755257D01*
X98236086Y-22529656D01*
X98654188Y-22112283D01*
X98880742Y-21566681D01*
X98881257Y-20975911D01*
X98771385Y-20710000D01*
X115220598Y-20710000D01*
X115111258Y-20973319D01*
X115110743Y-21564089D01*
X115322177Y-22075800D01*
X112725000Y-22075800D01*
X112724989Y-22075802D01*
X112724978Y-22075800D01*
X112562320Y-22108159D01*
X112405459Y-22139361D01*
X112405450Y-22139367D01*
X112405440Y-22139369D01*
X112264185Y-22233757D01*
X112134566Y-22320366D01*
X112134561Y-22320374D01*
X112134550Y-22320381D01*
X108248551Y-26206581D01*
X108158544Y-26341294D01*
X108067561Y-26477459D01*
X108067559Y-26477470D01*
X108067552Y-26477480D01*
X108033496Y-26648712D01*
X108004000Y-26797000D01*
X108004000Y-31699560D01*
X107081000Y-31699560D01*
X106845683Y-31743838D01*
X106629559Y-31882910D01*
X106484569Y-32095110D01*
X106440648Y-32312000D01*
X104366440Y-32312000D01*
X104366440Y-27522400D01*
X104322162Y-27287083D01*
X104183090Y-27070959D01*
X103970890Y-26925969D01*
X103719000Y-26874960D01*
X98719000Y-26874960D01*
X98483683Y-26919238D01*
X98267559Y-27058310D01*
X98122569Y-27270510D01*
X98071560Y-27522400D01*
X98071560Y-32522400D01*
X98115838Y-32757717D01*
X98254910Y-32973841D01*
X98467110Y-33118831D01*
X98719000Y-33169840D01*
X100675663Y-33169840D01*
X100628387Y-33217145D01*
X100538400Y-33351909D01*
X100447561Y-33487859D01*
X100447536Y-33487987D01*
X100447464Y-33488094D01*
X100415754Y-33647763D01*
X100384000Y-33807400D01*
X100384000Y-34690954D01*
X100233683Y-34719238D01*
X100017559Y-34858310D01*
X99872569Y-35070510D01*
X99821560Y-35322400D01*
X99821560Y-36788972D01*
X97741226Y-38869306D01*
X97712690Y-38824959D01*
X97500490Y-38679969D01*
X97248600Y-38628960D01*
X96248600Y-38628960D01*
X96013283Y-38673238D01*
X95797159Y-38812310D01*
X95652169Y-39024510D01*
X95601160Y-39276400D01*
X95601160Y-40245000D01*
X93527757Y-40245000D01*
X93525656Y-40239914D01*
X93108283Y-39821812D01*
X92562681Y-39595258D01*
X91971911Y-39594743D01*
X91425914Y-39820344D01*
X91007812Y-40237717D01*
X91004788Y-40245000D01*
X90991757Y-40245000D01*
X90989656Y-40239914D01*
X90572283Y-39821812D01*
X90026681Y-39595258D01*
X89435911Y-39594743D01*
X88889914Y-39820344D01*
X88471812Y-40237717D01*
X88468788Y-40245000D01*
X61531757Y-40245000D01*
X61529656Y-40239914D01*
X61112283Y-39821812D01*
X60566681Y-39595258D01*
X59975911Y-39594743D01*
X59429914Y-39820344D01*
X59011812Y-40237717D01*
X59008788Y-40245000D01*
X58991757Y-40245000D01*
X58989656Y-40239914D01*
X58572283Y-39821812D01*
X58026681Y-39595258D01*
X57435911Y-39594743D01*
X56889914Y-39820344D01*
X56471812Y-40237717D01*
X56468788Y-40245000D01*
X34847440Y-40245000D01*
X34847440Y-40230000D01*
X34803162Y-39994683D01*
X34664090Y-39778559D01*
X34451890Y-39633569D01*
X34200000Y-39582560D01*
X32500000Y-39582560D01*
X32264683Y-39626838D01*
X32048559Y-39765910D01*
X31903569Y-39978110D01*
X31852560Y-40230000D01*
X31852560Y-40245000D01*
X29531757Y-40245000D01*
X29529656Y-40239914D01*
X29112283Y-39821812D01*
X28566681Y-39595258D01*
X27975911Y-39594743D01*
X27710000Y-39704615D01*
X27710000Y-37375402D01*
X27973319Y-37484742D01*
X28564089Y-37485257D01*
X29110086Y-37259656D01*
X29528188Y-36842283D01*
X29569165Y-36743600D01*
X32066087Y-36743600D01*
X32270853Y-37050054D01*
X32752622Y-37371961D01*
X33320907Y-37485000D01*
X33379093Y-37485000D01*
X33947378Y-37371961D01*
X34429147Y-37050054D01*
X34751054Y-36568285D01*
X34864093Y-36000000D01*
X34751054Y-35431715D01*
X34429147Y-34949946D01*
X34099974Y-34730000D01*
X34429147Y-34510054D01*
X34639659Y-34195000D01*
X56426923Y-34195000D01*
X56470344Y-34300086D01*
X56887717Y-34718188D01*
X56915557Y-34729748D01*
X56889914Y-34740344D01*
X56471812Y-35157717D01*
X56245258Y-35703319D01*
X56244743Y-36294089D01*
X56470344Y-36840086D01*
X56887717Y-37258188D01*
X57433319Y-37484742D01*
X58024089Y-37485257D01*
X58570086Y-37259656D01*
X58988188Y-36842283D01*
X58999748Y-36814443D01*
X59010344Y-36840086D01*
X59427717Y-37258188D01*
X59973319Y-37484742D01*
X60564089Y-37485257D01*
X61110086Y-37259656D01*
X61528188Y-36842283D01*
X61754742Y-36296681D01*
X61755257Y-35705911D01*
X61529656Y-35159914D01*
X61112283Y-34741812D01*
X61084443Y-34730252D01*
X61110086Y-34719656D01*
X61528188Y-34302283D01*
X61572736Y-34195000D01*
X88426923Y-34195000D01*
X88470344Y-34300086D01*
X88887717Y-34718188D01*
X88915557Y-34729748D01*
X88889914Y-34740344D01*
X88471812Y-35157717D01*
X88245258Y-35703319D01*
X88244743Y-36294089D01*
X88470344Y-36840086D01*
X88887717Y-37258188D01*
X89433319Y-37484742D01*
X90024089Y-37485257D01*
X90570086Y-37259656D01*
X90988188Y-36842283D01*
X90997743Y-36819271D01*
X91006344Y-36840086D01*
X91423717Y-37258188D01*
X91969319Y-37484742D01*
X92560089Y-37485257D01*
X93106086Y-37259656D01*
X93524188Y-36842283D01*
X93750742Y-36296681D01*
X93751257Y-35705911D01*
X93525656Y-35159914D01*
X93108283Y-34741812D01*
X93080443Y-34730252D01*
X93106086Y-34719656D01*
X93524188Y-34302283D01*
X93750742Y-33756681D01*
X93751257Y-33165911D01*
X93525656Y-32619914D01*
X93108283Y-32201812D01*
X93080443Y-32190252D01*
X93106086Y-32179656D01*
X93524188Y-31762283D01*
X93750742Y-31216681D01*
X93751257Y-30625911D01*
X93525656Y-30079914D01*
X93108283Y-29661812D01*
X92562681Y-29435258D01*
X91971911Y-29434743D01*
X91425914Y-29660344D01*
X91007812Y-30077717D01*
X90998257Y-30100729D01*
X90989656Y-30079914D01*
X90572283Y-29661812D01*
X90026681Y-29435258D01*
X89435911Y-29434743D01*
X88889914Y-29660344D01*
X88471812Y-30077717D01*
X88427264Y-30185000D01*
X61573077Y-30185000D01*
X61529656Y-30079914D01*
X61112283Y-29661812D01*
X60566681Y-29435258D01*
X59975911Y-29434743D01*
X59429914Y-29660344D01*
X59011812Y-30077717D01*
X59000252Y-30105557D01*
X58989656Y-30079914D01*
X58572283Y-29661812D01*
X58026681Y-29435258D01*
X57435911Y-29434743D01*
X56889914Y-29660344D01*
X56471812Y-30077717D01*
X56427264Y-30185000D01*
X34639659Y-30185000D01*
X34429147Y-29869946D01*
X33947378Y-29548039D01*
X33379093Y-29435000D01*
X33320907Y-29435000D01*
X32752622Y-29548039D01*
X32270853Y-29869946D01*
X32060341Y-30185000D01*
X29573077Y-30185000D01*
X29529656Y-30079914D01*
X29112283Y-29661812D01*
X28566681Y-29435258D01*
X27975911Y-29434743D01*
X27710000Y-29544615D01*
X27710000Y-20710000D01*
X29484598Y-20710000D01*
X29375258Y-20973319D01*
G36*
X171032500Y-39293447D02*
X171032500Y-39953275D01*
X170863890Y-39838069D01*
X170612000Y-39787060D01*
X170541117Y-39787060D01*
X170541051Y-39786728D01*
X170509609Y-39739672D01*
X170381724Y-39548277D01*
X167583723Y-36750277D01*
X167345272Y-36590949D01*
X167064000Y-36535000D01*
X157655783Y-36535000D01*
X157754742Y-36296681D01*
X157755257Y-35705911D01*
X157657574Y-35469500D01*
X167208554Y-35469500D01*
X171032500Y-39293447D01*
X171032500Y-39293447D01*
G37*
X171032500Y-39293447D02*
X171032500Y-39953275D01*
X170863890Y-39838069D01*
X170612000Y-39787060D01*
X170541117Y-39787060D01*
X170541051Y-39786728D01*
X170509609Y-39739672D01*
X170381724Y-39548277D01*
X167583723Y-36750277D01*
X167345272Y-36590949D01*
X167064000Y-36535000D01*
X157655783Y-36535000D01*
X157754742Y-36296681D01*
X157755257Y-35705911D01*
X157657574Y-35469500D01*
X167208554Y-35469500D01*
X171032500Y-39293447D01*
G36*
X142971808Y-31778473D02*
X142829162Y-32122001D01*
X142828838Y-32493967D01*
X142970883Y-32837743D01*
X143029000Y-32895962D01*
X143029000Y-37244400D01*
X143076859Y-37485000D01*
X143084949Y-37525672D01*
X143244277Y-37764123D01*
X144780560Y-39300407D01*
X144780560Y-39627200D01*
X135369300Y-39627200D01*
X135049759Y-39690761D01*
X134829297Y-39838069D01*
X134778866Y-39871766D01*
X134735327Y-39915305D01*
X134733117Y-39909957D01*
X134470327Y-39646708D01*
X134126799Y-39504062D01*
X133873293Y-39503841D01*
X133902001Y-39460894D01*
X133902014Y-39460827D01*
X133902051Y-39460772D01*
X133930261Y-39318951D01*
X133957999Y-39179632D01*
X133957986Y-39179568D01*
X133958000Y-39179500D01*
X133958000Y-32575500D01*
X133902051Y-32294228D01*
X133895709Y-32284737D01*
X133742723Y-32055776D01*
X133488723Y-31801777D01*
X133250272Y-31642449D01*
X132969000Y-31586500D01*
X130148000Y-31586500D01*
X130148000Y-31572200D01*
X143178441Y-31572200D01*
X142971808Y-31778473D01*
X142971808Y-31778473D01*
G37*
X142971808Y-31778473D02*
X142829162Y-32122001D01*
X142828838Y-32493967D01*
X142970883Y-32837743D01*
X143029000Y-32895962D01*
X143029000Y-37244400D01*
X143076859Y-37485000D01*
X143084949Y-37525672D01*
X143244277Y-37764123D01*
X144780560Y-39300407D01*
X144780560Y-39627200D01*
X135369300Y-39627200D01*
X135049759Y-39690761D01*
X134829297Y-39838069D01*
X134778866Y-39871766D01*
X134735327Y-39915305D01*
X134733117Y-39909957D01*
X134470327Y-39646708D01*
X134126799Y-39504062D01*
X133873293Y-39503841D01*
X133902001Y-39460894D01*
X133902014Y-39460827D01*
X133902051Y-39460772D01*
X133930261Y-39318951D01*
X133957999Y-39179632D01*
X133957986Y-39179568D01*
X133958000Y-39179500D01*
X133958000Y-32575500D01*
X133902051Y-32294228D01*
X133895709Y-32284737D01*
X133742723Y-32055776D01*
X133488723Y-31801777D01*
X133250272Y-31642449D01*
X132969000Y-31586500D01*
X130148000Y-31586500D01*
X130148000Y-31572200D01*
X143178441Y-31572200D01*
X142971808Y-31778473D01*
G36*
X179540853Y-31970054D02*
X179870026Y-32190000D01*
X179540853Y-32409946D01*
X179330341Y-32725000D01*
X157573077Y-32725000D01*
X157529656Y-32619914D01*
X157112283Y-32201812D01*
X157084443Y-32190252D01*
X157110086Y-32179656D01*
X157528188Y-31762283D01*
X157572736Y-31655000D01*
X179330341Y-31655000D01*
X179540853Y-31970054D01*
X179540853Y-31970054D01*
G37*
X179540853Y-31970054D02*
X179870026Y-32190000D01*
X179540853Y-32409946D01*
X179330341Y-32725000D01*
X157573077Y-32725000D01*
X157529656Y-32619914D01*
X157112283Y-32201812D01*
X157084443Y-32190252D01*
X157110086Y-32179656D01*
X157528188Y-31762283D01*
X157572736Y-31655000D01*
X179330341Y-31655000D01*
X179540853Y-31970054D01*
G36*
X56470344Y-31760086D02*
X56887717Y-32178188D01*
X56915557Y-32189748D01*
X56889914Y-32200344D01*
X56471812Y-32617717D01*
X56427264Y-32725000D01*
X34639659Y-32725000D01*
X34429147Y-32409946D01*
X34099974Y-32190000D01*
X34429147Y-31970054D01*
X34639659Y-31655000D01*
X56426923Y-31655000D01*
X56470344Y-31760086D01*
X56470344Y-31760086D01*
G37*
X56470344Y-31760086D02*
X56887717Y-32178188D01*
X56915557Y-32189748D01*
X56889914Y-32200344D01*
X56471812Y-32617717D01*
X56427264Y-32725000D01*
X34639659Y-32725000D01*
X34429147Y-32409946D01*
X34099974Y-32190000D01*
X34429147Y-31970054D01*
X34639659Y-31655000D01*
X56426923Y-31655000D01*
X56470344Y-31760086D01*
G36*
X88470344Y-31760086D02*
X88887717Y-32178188D01*
X88915557Y-32189748D01*
X88889914Y-32200344D01*
X88471812Y-32617717D01*
X88427264Y-32725000D01*
X61573077Y-32725000D01*
X61529656Y-32619914D01*
X61112283Y-32201812D01*
X61084443Y-32190252D01*
X61110086Y-32179656D01*
X61528188Y-31762283D01*
X61572736Y-31655000D01*
X88426923Y-31655000D01*
X88470344Y-31760086D01*
X88470344Y-31760086D01*
G37*
X88470344Y-31760086D02*
X88887717Y-32178188D01*
X88915557Y-32189748D01*
X88889914Y-32200344D01*
X88471812Y-32617717D01*
X88427264Y-32725000D01*
X61573077Y-32725000D01*
X61529656Y-32619914D01*
X61112283Y-32201812D01*
X61084443Y-32190252D01*
X61110086Y-32179656D01*
X61528188Y-31762283D01*
X61572736Y-31655000D01*
X88426923Y-31655000D01*
X88470344Y-31760086D01*
G36*
X179115258Y-20973319D02*
X179114743Y-21564089D01*
X179340344Y-22110086D01*
X179757717Y-22528188D01*
X180303319Y-22754742D01*
X180894089Y-22755257D01*
X181440086Y-22529656D01*
X181858188Y-22112283D01*
X181869748Y-22084443D01*
X181880344Y-22110086D01*
X182297717Y-22528188D01*
X182843319Y-22754742D01*
X183434089Y-22755257D01*
X183980086Y-22529656D01*
X184398188Y-22112283D01*
X184624742Y-21566681D01*
X184625257Y-20975911D01*
X184515385Y-20710000D01*
X186290000Y-20710000D01*
X186290000Y-29544598D01*
X186026681Y-29435258D01*
X185435911Y-29434743D01*
X184889914Y-29660344D01*
X184471812Y-30077717D01*
X184428967Y-30180900D01*
X181906919Y-30180900D01*
X181699147Y-29869946D01*
X181217378Y-29548039D01*
X180649093Y-29435000D01*
X180590907Y-29435000D01*
X180022622Y-29548039D01*
X179540853Y-29869946D01*
X179330341Y-30185000D01*
X178626446Y-30185000D01*
X179462723Y-29348723D01*
X179622051Y-29110272D01*
X179629180Y-29074431D01*
X179678000Y-28829000D01*
X179678000Y-27883000D01*
X179622051Y-27601728D01*
X179608309Y-27581162D01*
X179462723Y-27363276D01*
X179448147Y-27348700D01*
X179609760Y-27186908D01*
X179700130Y-27051498D01*
X179790439Y-26916341D01*
X179790485Y-26916111D01*
X179790616Y-26915914D01*
X179822371Y-26755809D01*
X179854000Y-26596800D01*
X179854000Y-24892000D01*
X179819873Y-24720434D01*
X179790455Y-24572498D01*
X179790443Y-24572480D01*
X179790439Y-24572459D01*
X179702427Y-24440739D01*
X179609464Y-24301595D01*
X177628464Y-22320396D01*
X177628446Y-22320384D01*
X177628434Y-22320366D01*
X177489074Y-22227249D01*
X177357579Y-22139377D01*
X177357559Y-22139373D01*
X177357541Y-22139361D01*
X177196984Y-22107424D01*
X177038042Y-22075800D01*
X177038021Y-22075804D01*
X177038000Y-22075800D01*
X162673337Y-22075800D01*
X162884742Y-21566681D01*
X162885257Y-20975911D01*
X162775385Y-20710000D01*
X179224598Y-20710000D01*
X179115258Y-20973319D01*
X179115258Y-20973319D01*
G37*
X179115258Y-20973319D02*
X179114743Y-21564089D01*
X179340344Y-22110086D01*
X179757717Y-22528188D01*
X180303319Y-22754742D01*
X180894089Y-22755257D01*
X181440086Y-22529656D01*
X181858188Y-22112283D01*
X181869748Y-22084443D01*
X181880344Y-22110086D01*
X182297717Y-22528188D01*
X182843319Y-22754742D01*
X183434089Y-22755257D01*
X183980086Y-22529656D01*
X184398188Y-22112283D01*
X184624742Y-21566681D01*
X184625257Y-20975911D01*
X184515385Y-20710000D01*
X186290000Y-20710000D01*
X186290000Y-29544598D01*
X186026681Y-29435258D01*
X185435911Y-29434743D01*
X184889914Y-29660344D01*
X184471812Y-30077717D01*
X184428967Y-30180900D01*
X181906919Y-30180900D01*
X181699147Y-29869946D01*
X181217378Y-29548039D01*
X180649093Y-29435000D01*
X180590907Y-29435000D01*
X180022622Y-29548039D01*
X179540853Y-29869946D01*
X179330341Y-30185000D01*
X178626446Y-30185000D01*
X179462723Y-29348723D01*
X179622051Y-29110272D01*
X179629180Y-29074431D01*
X179678000Y-28829000D01*
X179678000Y-27883000D01*
X179622051Y-27601728D01*
X179608309Y-27581162D01*
X179462723Y-27363276D01*
X179448147Y-27348700D01*
X179609760Y-27186908D01*
X179700130Y-27051498D01*
X179790439Y-26916341D01*
X179790485Y-26916111D01*
X179790616Y-26915914D01*
X179822371Y-26755809D01*
X179854000Y-26596800D01*
X179854000Y-24892000D01*
X179819873Y-24720434D01*
X179790455Y-24572498D01*
X179790443Y-24572480D01*
X179790439Y-24572459D01*
X179702427Y-24440739D01*
X179609464Y-24301595D01*
X177628464Y-22320396D01*
X177628446Y-22320384D01*
X177628434Y-22320366D01*
X177489074Y-22227249D01*
X177357579Y-22139377D01*
X177357559Y-22139373D01*
X177357541Y-22139361D01*
X177196984Y-22107424D01*
X177038042Y-22075800D01*
X177038021Y-22075804D01*
X177038000Y-22075800D01*
X162673337Y-22075800D01*
X162884742Y-21566681D01*
X162885257Y-20975911D01*
X162775385Y-20710000D01*
X179224598Y-20710000D01*
X179115258Y-20973319D01*
G36*
X168074910Y-27129441D02*
X168287110Y-27274431D01*
X168539000Y-27325440D01*
X169789000Y-27325440D01*
X170024317Y-27281162D01*
X170240441Y-27142090D01*
X170328644Y-27013000D01*
X170791690Y-27013000D01*
X170748569Y-27076110D01*
X170697560Y-27328000D01*
X170697560Y-27678000D01*
X170741838Y-27913317D01*
X170880910Y-28129441D01*
X171093110Y-28274431D01*
X171162585Y-28288500D01*
X168454320Y-28288500D01*
X167823570Y-27658123D01*
X167703580Y-27578000D01*
X167648736Y-27541354D01*
X167651440Y-27528000D01*
X167651440Y-27013000D01*
X167999982Y-27013000D01*
X168074910Y-27129441D01*
X168074910Y-27129441D01*
G37*
X168074910Y-27129441D02*
X168287110Y-27274431D01*
X168539000Y-27325440D01*
X169789000Y-27325440D01*
X170024317Y-27281162D01*
X170240441Y-27142090D01*
X170328644Y-27013000D01*
X170791690Y-27013000D01*
X170748569Y-27076110D01*
X170697560Y-27328000D01*
X170697560Y-27678000D01*
X170741838Y-27913317D01*
X170880910Y-28129441D01*
X171093110Y-28274431D01*
X171162585Y-28288500D01*
X168454320Y-28288500D01*
X167823570Y-27658123D01*
X167703580Y-27578000D01*
X167648736Y-27541354D01*
X167651440Y-27528000D01*
X167651440Y-27013000D01*
X167999982Y-27013000D01*
X168074910Y-27129441D01*
G36*
X178184000Y-25237843D02*
X178184000Y-25930560D01*
X178038000Y-25930560D01*
X177802683Y-25974838D01*
X177586559Y-26113910D01*
X177441569Y-26326110D01*
X177390560Y-26578000D01*
X177390560Y-26943161D01*
X177218276Y-27058277D01*
X176685440Y-27591113D01*
X176685440Y-27378000D01*
X176641162Y-27142683D01*
X176502090Y-26926559D01*
X176289890Y-26781569D01*
X176276803Y-26778919D01*
X176489441Y-26642090D01*
X176634431Y-26429890D01*
X176685440Y-26178000D01*
X176685440Y-25778000D01*
X176673000Y-25711887D01*
X176673000Y-23745800D01*
X176692107Y-23745800D01*
X178184000Y-25237843D01*
X178184000Y-25237843D01*
G37*
X178184000Y-25237843D02*
X178184000Y-25930560D01*
X178038000Y-25930560D01*
X177802683Y-25974838D01*
X177586559Y-26113910D01*
X177441569Y-26326110D01*
X177390560Y-26578000D01*
X177390560Y-26943161D01*
X177218276Y-27058277D01*
X176685440Y-27591113D01*
X176685440Y-27378000D01*
X176641162Y-27142683D01*
X176502090Y-26926559D01*
X176289890Y-26781569D01*
X176276803Y-26778919D01*
X176489441Y-26642090D01*
X176634431Y-26429890D01*
X176685440Y-26178000D01*
X176685440Y-25778000D01*
X176673000Y-25711887D01*
X176673000Y-23745800D01*
X176692107Y-23745800D01*
X178184000Y-25237843D01*
G36*
X165206560Y-24755000D02*
X165250838Y-24990317D01*
X165389910Y-25206441D01*
X165576669Y-25334048D01*
X165452559Y-25413910D01*
X165307569Y-25626110D01*
X165256560Y-25878000D01*
X165256560Y-26368681D01*
X165055890Y-26231569D01*
X164804000Y-26180560D01*
X163704000Y-26180560D01*
X163468683Y-26224838D01*
X163252559Y-26363910D01*
X163107569Y-26576110D01*
X163056560Y-26828000D01*
X163056560Y-27443000D01*
X161589794Y-27443000D01*
X161610600Y-27338400D01*
X161610600Y-26516884D01*
X161648040Y-26332000D01*
X161648040Y-25782000D01*
X161603762Y-25546683D01*
X161464690Y-25330559D01*
X161252490Y-25185569D01*
X161000600Y-25134560D01*
X160750600Y-25134560D01*
X160515283Y-25178838D01*
X160299159Y-25317910D01*
X160154169Y-25530110D01*
X160103160Y-25782000D01*
X160103160Y-26332000D01*
X160140600Y-26530976D01*
X160140600Y-27001800D01*
X155865440Y-27001800D01*
X155865440Y-25943400D01*
X155821162Y-25708083D01*
X155682090Y-25491959D01*
X155553000Y-25403756D01*
X155553000Y-25277063D01*
X155604241Y-25244090D01*
X155749231Y-25031890D01*
X155751881Y-25018803D01*
X155888710Y-25231441D01*
X156100910Y-25376431D01*
X156352800Y-25427440D01*
X157511191Y-25427440D01*
X157550487Y-25522543D01*
X157813277Y-25785792D01*
X158156805Y-25928438D01*
X158528771Y-25928762D01*
X158872547Y-25786717D01*
X159135796Y-25523927D01*
X159186242Y-25402440D01*
X159840800Y-25402440D01*
X160076117Y-25358162D01*
X160292241Y-25219090D01*
X160437231Y-25006890D01*
X160488240Y-24755000D01*
X160488240Y-23745800D01*
X165206560Y-23745800D01*
X165206560Y-24755000D01*
X165206560Y-24755000D01*
G37*
X165206560Y-24755000D02*
X165250838Y-24990317D01*
X165389910Y-25206441D01*
X165576669Y-25334048D01*
X165452559Y-25413910D01*
X165307569Y-25626110D01*
X165256560Y-25878000D01*
X165256560Y-26368681D01*
X165055890Y-26231569D01*
X164804000Y-26180560D01*
X163704000Y-26180560D01*
X163468683Y-26224838D01*
X163252559Y-26363910D01*
X163107569Y-26576110D01*
X163056560Y-26828000D01*
X163056560Y-27443000D01*
X161589794Y-27443000D01*
X161610600Y-27338400D01*
X161610600Y-26516884D01*
X161648040Y-26332000D01*
X161648040Y-25782000D01*
X161603762Y-25546683D01*
X161464690Y-25330559D01*
X161252490Y-25185569D01*
X161000600Y-25134560D01*
X160750600Y-25134560D01*
X160515283Y-25178838D01*
X160299159Y-25317910D01*
X160154169Y-25530110D01*
X160103160Y-25782000D01*
X160103160Y-26332000D01*
X160140600Y-26530976D01*
X160140600Y-27001800D01*
X155865440Y-27001800D01*
X155865440Y-25943400D01*
X155821162Y-25708083D01*
X155682090Y-25491959D01*
X155553000Y-25403756D01*
X155553000Y-25277063D01*
X155604241Y-25244090D01*
X155749231Y-25031890D01*
X155751881Y-25018803D01*
X155888710Y-25231441D01*
X156100910Y-25376431D01*
X156352800Y-25427440D01*
X157511191Y-25427440D01*
X157550487Y-25522543D01*
X157813277Y-25785792D01*
X158156805Y-25928438D01*
X158528771Y-25928762D01*
X158872547Y-25786717D01*
X159135796Y-25523927D01*
X159186242Y-25402440D01*
X159840800Y-25402440D01*
X160076117Y-25358162D01*
X160292241Y-25219090D01*
X160437231Y-25006890D01*
X160488240Y-24755000D01*
X160488240Y-23745800D01*
X165206560Y-23745800D01*
X165206560Y-24755000D01*
G36*
X175003000Y-25716569D02*
X174990560Y-25778000D01*
X174990560Y-26178000D01*
X175003026Y-26244253D01*
X174957615Y-26213910D01*
X174759541Y-26081561D01*
X174440000Y-26018000D01*
X173365868Y-26018000D01*
X172960434Y-25612566D01*
X172861833Y-25546683D01*
X172689541Y-25431561D01*
X172430000Y-25379935D01*
X172430000Y-25292731D01*
X172544441Y-25219090D01*
X172689431Y-25006890D01*
X172740440Y-24755000D01*
X172740440Y-23745800D01*
X175003000Y-23745800D01*
X175003000Y-25716569D01*
X175003000Y-25716569D01*
G37*
X175003000Y-25716569D02*
X174990560Y-25778000D01*
X174990560Y-26178000D01*
X175003026Y-26244253D01*
X174957615Y-26213910D01*
X174759541Y-26081561D01*
X174440000Y-26018000D01*
X173365868Y-26018000D01*
X172960434Y-25612566D01*
X172861833Y-25546683D01*
X172689541Y-25431561D01*
X172430000Y-25379935D01*
X172430000Y-25292731D01*
X172544441Y-25219090D01*
X172689431Y-25006890D01*
X172740440Y-24755000D01*
X172740440Y-23745800D01*
X175003000Y-23745800D01*
X175003000Y-25716569D01*
M02*
