G04 #@! TF.FileFunction,Copper,L1,Top,Signal*
%FSLAX46Y46*%
G04 Gerber Fmt 4.6, Leading zero omitted, Abs format (unit mm)*
G04 Created by KiCad (PCBNEW 4.0.6) date Mon Oct 23 01:37:39 2017*
%MOMM*%
%LPD*%
G01*
G04 APERTURE LIST*
%ADD10C,0.100000*%
%ADD11R,1.000000X1.000000*%
%ADD12R,0.400000X0.400000*%
%ADD13R,1.700000X1.700000*%
%ADD14O,1.700000X1.700000*%
%ADD15R,1.550000X1.300000*%
%ADD16R,1.500000X1.300000*%
%ADD17R,0.800000X0.900000*%
%ADD18R,1.000000X1.250000*%
%ADD19R,0.450000X1.500000*%
%ADD20O,1.800000X1.100000*%
%ADD21O,2.200000X1.100000*%
%ADD22R,3.500000X1.600000*%
%ADD23R,0.500000X0.350000*%
%ADD24R,1.100000X0.600000*%
%ADD25R,1.100000X0.700000*%
%ADD26R,3.800000X2.000000*%
%ADD27R,1.500000X2.000000*%
%ADD28R,2.500000X1.100000*%
%ADD29R,1.100000X2.500000*%
%ADD30R,1.300000X1.500000*%
%ADD31C,1.700000*%
%ADD32R,1.200000X0.900000*%
%ADD33R,1.250000X1.000000*%
%ADD34C,0.600000*%
%ADD35C,0.400000*%
%ADD36C,0.200000*%
G04 APERTURE END LIST*
D10*
D11*
X96748600Y-42476400D03*
X96748600Y-39776400D03*
X96748600Y-41126400D03*
D12*
X178238000Y-25978000D03*
X178238000Y-26778000D03*
X178238000Y-27578000D03*
X178238000Y-28378000D03*
X175838000Y-28378000D03*
X175838000Y-27578000D03*
X175838000Y-26778000D03*
X175838000Y-25978000D03*
D13*
X33350000Y-41080000D03*
D14*
X33350000Y-38540000D03*
X33350000Y-36000000D03*
X33350000Y-33460000D03*
X33350000Y-30920000D03*
D15*
X106637000Y-47906500D03*
X106637000Y-43406500D03*
X114597000Y-43406500D03*
X114597000Y-47906500D03*
D16*
X171640000Y-43751500D03*
X168940000Y-43751500D03*
D17*
X165478000Y-42751500D03*
X163578000Y-42751500D03*
X164528000Y-44751500D03*
D18*
X177196000Y-43751500D03*
X175196000Y-43751500D03*
D19*
X100233000Y-46101000D03*
X100883000Y-46101000D03*
X99583000Y-46101000D03*
X101533000Y-46101000D03*
X98933000Y-46101000D03*
D20*
X97433000Y-45851000D03*
X103033000Y-45851000D03*
D21*
X100233000Y-48001000D03*
D22*
X108831000Y-33147000D03*
X114231000Y-33147000D03*
D23*
X173645000Y-26203000D03*
X173645000Y-26853000D03*
X173645000Y-27503000D03*
X173645000Y-28153000D03*
X171595000Y-28153000D03*
X171595000Y-27503000D03*
X171595000Y-26853000D03*
X171595000Y-26203000D03*
D24*
X166454000Y-28178000D03*
D25*
X166454000Y-27178000D03*
D24*
X166454000Y-26178000D03*
X164254000Y-26178000D03*
D25*
X164254000Y-27178000D03*
D24*
X164254000Y-28178000D03*
D26*
X101219000Y-30022400D03*
D27*
X101219000Y-36322400D03*
X103519000Y-36322400D03*
X98919000Y-36322400D03*
D28*
X131278000Y-33458400D03*
X131278000Y-35458400D03*
X131278000Y-37458400D03*
X131278000Y-39458400D03*
X131278000Y-41458400D03*
X131278000Y-43458400D03*
X131278000Y-45458400D03*
X131278000Y-47458400D03*
X146678000Y-47458400D03*
X146678000Y-45458400D03*
X146678000Y-43458400D03*
X146678000Y-41458400D03*
X146678000Y-39458400D03*
X146678000Y-37458400D03*
X146678000Y-35458400D03*
X146678000Y-33458400D03*
D29*
X133968000Y-49158400D03*
X135968000Y-49158400D03*
X137968000Y-49158400D03*
X139968000Y-49158400D03*
X141968000Y-49158400D03*
X143968000Y-49158400D03*
D30*
X150444000Y-39674800D03*
X150444000Y-42374800D03*
X150393000Y-28342600D03*
X150393000Y-31042600D03*
D31*
X151500000Y-21270000D03*
X148960000Y-21270000D03*
X129040000Y-21270000D03*
X126500000Y-21270000D03*
X151500000Y-50730000D03*
X148960000Y-50730000D03*
X129040000Y-50730000D03*
X126500000Y-50730000D03*
X153730000Y-30920000D03*
X153730000Y-33460000D03*
X153730000Y-36000000D03*
X153730000Y-38540000D03*
X153730000Y-41080000D03*
X124270000Y-30920000D03*
X124270000Y-33460000D03*
X124270000Y-36000000D03*
X124270000Y-38540000D03*
X124270000Y-41080000D03*
X87500000Y-21270000D03*
X84960000Y-21270000D03*
X65040000Y-21270000D03*
X62500000Y-21270000D03*
X87500000Y-50730000D03*
X84960000Y-50730000D03*
X65040000Y-50730000D03*
X62500000Y-50730000D03*
X89730000Y-30920000D03*
X89730000Y-33460000D03*
X89730000Y-36000000D03*
X89730000Y-38540000D03*
X89730000Y-41080000D03*
X60270000Y-30920000D03*
X60270000Y-33460000D03*
X60270000Y-36000000D03*
X60270000Y-38540000D03*
X60270000Y-41080000D03*
X55500000Y-21270000D03*
X52960000Y-21270000D03*
X33040000Y-21270000D03*
X30500000Y-21270000D03*
X55500000Y-50730000D03*
X52960000Y-50730000D03*
X33040000Y-50730000D03*
X30500000Y-50730000D03*
X57730000Y-30920000D03*
X57730000Y-33460000D03*
X57730000Y-36000000D03*
X57730000Y-38540000D03*
X57730000Y-41080000D03*
X28270000Y-30920000D03*
X28270000Y-33460000D03*
X28270000Y-36000000D03*
X28270000Y-38540000D03*
X28270000Y-41080000D03*
D13*
X164516000Y-47599600D03*
D14*
X167056000Y-47599600D03*
X169596000Y-47599600D03*
X172136000Y-47599600D03*
X174676000Y-47599600D03*
X177216000Y-47599600D03*
D32*
X127762000Y-28042600D03*
X127762000Y-31342600D03*
D18*
X99924000Y-42646600D03*
X101924000Y-42646600D03*
X173593000Y-24130000D03*
X171593000Y-24130000D03*
D33*
X169164000Y-28178000D03*
X169164000Y-26178000D03*
X127813000Y-47456600D03*
X127813000Y-45456600D03*
D18*
X164354000Y-24130000D03*
X166354000Y-24130000D03*
D33*
X117602000Y-39830500D03*
X117602000Y-41830500D03*
D30*
X120625000Y-45233600D03*
X120625000Y-47933600D03*
X150444000Y-36833800D03*
X150444000Y-34133800D03*
X150419000Y-45081200D03*
X150419000Y-47781200D03*
X127762000Y-36148000D03*
X127762000Y-33448000D03*
X117602000Y-45204400D03*
X117602000Y-47904400D03*
X127762000Y-41177200D03*
X127762000Y-38477200D03*
X153060000Y-45081200D03*
X153060000Y-47781200D03*
D13*
X180620000Y-41080000D03*
D14*
X180620000Y-38540000D03*
X180620000Y-36000000D03*
X180620000Y-33460000D03*
X180620000Y-30920000D03*
D31*
X183500000Y-21270000D03*
X180960000Y-21270000D03*
X161040000Y-21270000D03*
X158500000Y-21270000D03*
X183500000Y-50730000D03*
X180960000Y-50730000D03*
X161040000Y-50730000D03*
X158500000Y-50730000D03*
X185730000Y-30920000D03*
X185730000Y-33460000D03*
X185730000Y-36000000D03*
X185730000Y-38540000D03*
X185730000Y-41080000D03*
X156270000Y-30920000D03*
X156270000Y-33460000D03*
X156270000Y-36000000D03*
X156270000Y-38540000D03*
X156270000Y-41080000D03*
X119496000Y-21270000D03*
X116956000Y-21270000D03*
X97036000Y-21270000D03*
X94496000Y-21270000D03*
X119496000Y-50730000D03*
X116956000Y-50730000D03*
X97036000Y-50730000D03*
X94496000Y-50730000D03*
X121726000Y-30920000D03*
X121726000Y-33460000D03*
X121726000Y-36000000D03*
X121726000Y-38540000D03*
X121726000Y-41080000D03*
X92266000Y-30920000D03*
X92266000Y-33460000D03*
X92266000Y-36000000D03*
X92266000Y-38540000D03*
X92266000Y-41080000D03*
D34*
X162966000Y-24130000D03*
X170561000Y-28178000D03*
X175006000Y-24130000D03*
X148851000Y-47462300D03*
X124240000Y-45456000D03*
X144647000Y-42454600D03*
X133940000Y-40438900D03*
X143107000Y-41369200D03*
X129413000Y-37465000D03*
D35*
X175006000Y-24130000D02*
X173593000Y-24130000D01*
X173645000Y-26203000D02*
X173645000Y-24182000D01*
X173645000Y-24182000D02*
X173593000Y-24130000D01*
X102824000Y-42646600D02*
X101924000Y-42646600D01*
X103033000Y-42855600D02*
X102824000Y-42646600D01*
X103033000Y-45851000D02*
X103033000Y-42855600D01*
X101533000Y-43037600D02*
X101924000Y-42646600D01*
X101533000Y-46101000D02*
X101533000Y-43037600D01*
X98919000Y-36572400D02*
X98919000Y-36322400D01*
X96951400Y-38540000D02*
X98919000Y-36572400D01*
X92266000Y-38540000D02*
X96951400Y-38540000D01*
X164354000Y-24130000D02*
X162966000Y-24130000D01*
X164254000Y-24230000D02*
X164354000Y-24130000D01*
X164254000Y-26178000D02*
X164254000Y-24230000D01*
X169164000Y-28178000D02*
X170561000Y-28178000D01*
X170561000Y-27137000D02*
X170561000Y-28178000D01*
X170845000Y-26853000D02*
X170561000Y-27137000D01*
X171595000Y-26853000D02*
X170845000Y-26853000D01*
X170561000Y-28178000D02*
X171570000Y-28178000D01*
X176632000Y-27904400D02*
X176632000Y-26778000D01*
X176158000Y-28378000D02*
X176632000Y-27904400D01*
X175838000Y-28378000D02*
X176158000Y-28378000D01*
X149170000Y-47781200D02*
X148851000Y-47462300D01*
X150419000Y-47781200D02*
X149170000Y-47781200D01*
X145982000Y-47462300D02*
X148851000Y-47462300D01*
X145978000Y-47458400D02*
X145982000Y-47462300D01*
X124018000Y-45233600D02*
X124240000Y-45456000D01*
X120625000Y-45233600D02*
X124018000Y-45233600D01*
X118999000Y-33147000D02*
X114231000Y-33147000D01*
X119380000Y-33528000D02*
X118999000Y-33147000D01*
X119380000Y-38100000D02*
X119380000Y-33528000D01*
X119820000Y-38540000D02*
X119380000Y-38100000D01*
X121726000Y-38540000D02*
X119820000Y-38540000D01*
X164528000Y-47587600D02*
X164516000Y-47599600D01*
X164528000Y-44751500D02*
X164528000Y-47587600D01*
X124240000Y-45456600D02*
X124240000Y-45456000D01*
X127813000Y-45456600D02*
X124240000Y-45456600D01*
X156270000Y-38540000D02*
X153730000Y-38540000D01*
X175838000Y-26778000D02*
X176632000Y-26778000D01*
X177918000Y-25978000D02*
X178238000Y-25978000D01*
X177118000Y-26778000D02*
X177918000Y-25978000D01*
X176632000Y-26778000D02*
X177118000Y-26778000D01*
X174430000Y-26203000D02*
X173645000Y-26203000D01*
X175015000Y-26203000D02*
X174430000Y-26203000D01*
X175590000Y-26778000D02*
X175015000Y-26203000D01*
X175838000Y-26778000D02*
X175590000Y-26778000D01*
X174430000Y-26203000D02*
X173845000Y-26203000D01*
D36*
X170307000Y-45770600D02*
X172136000Y-47599600D01*
X170307000Y-40850200D02*
X170307000Y-45770600D01*
X166727000Y-37270000D02*
X170307000Y-40850200D01*
X153145000Y-37270000D02*
X166727000Y-37270000D01*
X151587000Y-35712400D02*
X153145000Y-37270000D01*
X148692000Y-35712400D02*
X151587000Y-35712400D01*
X148438000Y-35458400D02*
X148692000Y-35712400D01*
X145978000Y-35458400D02*
X148438000Y-35458400D01*
X148571000Y-33458400D02*
X145978000Y-33458400D01*
X148793000Y-33680400D02*
X148571000Y-33458400D01*
X148793000Y-35001200D02*
X148793000Y-33680400D01*
X149047000Y-35255200D02*
X148793000Y-35001200D01*
X151536000Y-35255200D02*
X149047000Y-35255200D01*
X152057000Y-34734500D02*
X151536000Y-35255200D01*
X165861000Y-34734500D02*
X152057000Y-34734500D01*
X171640000Y-40513500D02*
X165861000Y-34734500D01*
X171640000Y-43751500D02*
X171640000Y-40513500D01*
X171640000Y-44563600D02*
X171640000Y-43751500D01*
X174676000Y-47599600D02*
X171640000Y-44563600D01*
X177196000Y-46429300D02*
X177196000Y-43751500D01*
X177216000Y-46449300D02*
X177196000Y-46429300D01*
X177216000Y-47599600D02*
X177216000Y-46449300D01*
D35*
X171595000Y-26203000D02*
X171595000Y-24132000D01*
X171595000Y-24132000D02*
X171593000Y-24130000D01*
X174440000Y-26853000D02*
X173645000Y-26853000D01*
X175165000Y-27578000D02*
X174440000Y-26853000D01*
X175838000Y-27578000D02*
X175165000Y-27578000D01*
X108918000Y-39830500D02*
X108839000Y-39751000D01*
X117602000Y-39830500D02*
X108918000Y-39830500D01*
X112725000Y-22910800D02*
X150393000Y-22910800D01*
X108839000Y-26797000D02*
X112725000Y-22910800D01*
X108839000Y-31939000D02*
X108839000Y-26797000D01*
X108831000Y-31947000D02*
X108839000Y-31939000D01*
X108831000Y-33147000D02*
X108831000Y-31947000D01*
X96748600Y-39776400D02*
X96748600Y-41126400D01*
X101219000Y-36572400D02*
X101219000Y-36322400D01*
X98015000Y-39776400D02*
X101219000Y-36572400D01*
X96748600Y-39776400D02*
X98015000Y-39776400D01*
X175838000Y-22917000D02*
X175844000Y-22910800D01*
X175838000Y-25978000D02*
X175838000Y-22917000D01*
X166354000Y-22926800D02*
X166370000Y-22910800D01*
X166354000Y-24130000D02*
X166354000Y-22926800D01*
X150393000Y-28342600D02*
X150393000Y-22910800D01*
X134950000Y-40462200D02*
X132931000Y-42481500D01*
X149063000Y-40462200D02*
X134950000Y-40462200D01*
X149063000Y-40005800D02*
X149063000Y-40462200D01*
X149394000Y-39674800D02*
X149063000Y-40005800D01*
X150444000Y-39674800D02*
X149394000Y-39674800D01*
X166454000Y-24230000D02*
X166354000Y-24130000D01*
X166454000Y-26178000D02*
X166454000Y-24230000D01*
X171570000Y-26178000D02*
X171595000Y-26203000D01*
X169164000Y-26178000D02*
X171570000Y-26178000D01*
X171595000Y-26203000D02*
X171720000Y-26203000D01*
X150444000Y-39674800D02*
X150444000Y-36833800D01*
X101219000Y-33807400D02*
X101219000Y-36322400D01*
X101879000Y-33147000D02*
X101219000Y-33807400D01*
X108831000Y-33147000D02*
X101879000Y-33147000D01*
X119053000Y-39830500D02*
X117602000Y-39830500D01*
X119405000Y-40182800D02*
X119053000Y-39830500D01*
X119405000Y-42037000D02*
X119405000Y-40182800D01*
X119850000Y-42481500D02*
X119405000Y-42037000D01*
X126035000Y-42481500D02*
X119850000Y-42481500D01*
X127762000Y-42481500D02*
X126035000Y-42481500D01*
X132931000Y-42481500D02*
X127762000Y-42481500D01*
X131978000Y-47458400D02*
X131976000Y-47456600D01*
X127762000Y-41177200D02*
X127762000Y-42481500D01*
X126666000Y-36148000D02*
X127762000Y-36148000D01*
X126060000Y-36754000D02*
X126666000Y-36148000D01*
X126060000Y-42456300D02*
X126060000Y-36754000D01*
X126035000Y-42481500D02*
X126060000Y-42456300D01*
X117582000Y-39810200D02*
X117602000Y-39830500D01*
X153060000Y-45081200D02*
X153035000Y-45081200D01*
X153035000Y-45132000D02*
X153035000Y-45081200D01*
X151409000Y-39674800D02*
X150444000Y-39674800D01*
X151892000Y-40157400D02*
X151409000Y-39674800D01*
X151892000Y-42367200D02*
X151892000Y-40157400D01*
X153035000Y-43510200D02*
X151892000Y-42367200D01*
X153035000Y-45081200D02*
X153035000Y-43510200D01*
X169164000Y-26178000D02*
X166454000Y-26178000D01*
X172370000Y-27503000D02*
X173020000Y-26853000D01*
X171595000Y-27503000D02*
X172370000Y-27503000D01*
X166370000Y-22910800D02*
X150393000Y-22910800D01*
X177038000Y-22910800D02*
X175844000Y-22910800D01*
X179019000Y-24892000D02*
X177038000Y-22910800D01*
X179019000Y-26596800D02*
X179019000Y-24892000D01*
X178838000Y-26778000D02*
X179019000Y-26596800D01*
X178238000Y-26778000D02*
X178838000Y-26778000D01*
X175844000Y-22910800D02*
X166370000Y-22910800D01*
X172370000Y-26203000D02*
X171720000Y-26203000D01*
X173020000Y-26853000D02*
X172370000Y-26203000D01*
X171720000Y-26203000D02*
X171595000Y-26203000D01*
X108839000Y-34355000D02*
X108839000Y-39751000D01*
X108831000Y-34347000D02*
X108839000Y-34355000D01*
X108831000Y-33147000D02*
X108831000Y-34347000D01*
X108839000Y-39751000D02*
X108839000Y-43406500D01*
X127813000Y-47456600D02*
X129542000Y-47456600D01*
X129540000Y-47458400D02*
X131978000Y-47458400D01*
X129542000Y-47456600D02*
X129540000Y-47458400D01*
X133325000Y-42875100D02*
X132931000Y-42481500D01*
X133325000Y-44323000D02*
X133325000Y-42875100D01*
X133223000Y-44424600D02*
X133325000Y-44323000D01*
X129572000Y-44424600D02*
X133223000Y-44424600D01*
X129572000Y-47426700D02*
X129572000Y-44424600D01*
X129542000Y-47456600D02*
X129572000Y-47426700D01*
X106637000Y-43406500D02*
X108839000Y-43406500D01*
X108839000Y-43406500D02*
X114597000Y-43406500D01*
X173020000Y-26853000D02*
X173645000Y-26853000D01*
D36*
X148220000Y-42454600D02*
X144647000Y-42454600D01*
X148848000Y-43082000D02*
X148220000Y-42454600D01*
X148848000Y-45081200D02*
X148848000Y-43082000D01*
X89730000Y-33460000D02*
X60270000Y-33460000D01*
X124270000Y-33460000D02*
X121726000Y-33460000D01*
X153730000Y-33460000D02*
X156270000Y-33460000D01*
X150419000Y-45081200D02*
X148848000Y-45081200D01*
X148471000Y-45458400D02*
X145978000Y-45458400D01*
X148848000Y-45081200D02*
X148471000Y-45458400D01*
X180620000Y-33460000D02*
X156270000Y-33460000D01*
X181774000Y-33455900D02*
X185726000Y-33455900D01*
X181770000Y-33460000D02*
X181774000Y-33455900D01*
X180620000Y-33460000D02*
X181770000Y-33460000D01*
X185722000Y-33451800D02*
X185726000Y-33455900D01*
X185726000Y-33455900D02*
X185730000Y-33460000D01*
X60270000Y-33460000D02*
X57730000Y-33460000D01*
X92270000Y-33460000D02*
X92266000Y-33460000D01*
X92266000Y-33460000D02*
X89730000Y-33460000D01*
X57730000Y-33460000D02*
X33350000Y-33460000D01*
X33350000Y-33460000D02*
X28270000Y-33460000D01*
X156270000Y-30920000D02*
X157472000Y-30920000D01*
X133936000Y-40443100D02*
X133940000Y-40438900D01*
X133936000Y-40446900D02*
X133936000Y-40443100D01*
X132924000Y-41458400D02*
X133936000Y-40446900D01*
X131978000Y-41458400D02*
X132924000Y-41458400D01*
X89730000Y-30920000D02*
X60270000Y-30920000D01*
X124270000Y-30920000D02*
X121726000Y-30920000D01*
X153730000Y-30920000D02*
X156270000Y-30920000D01*
X60270000Y-30920000D02*
X57730000Y-30920000D01*
X181774000Y-30915900D02*
X185726000Y-30915900D01*
X181770000Y-30920000D02*
X181774000Y-30915900D01*
X180620000Y-30920000D02*
X181770000Y-30920000D01*
X180620000Y-30920000D02*
X157472000Y-30920000D01*
X157472000Y-30920000D02*
X156270000Y-30920000D01*
X57730000Y-30920000D02*
X33350000Y-30920000D01*
X33350000Y-30920000D02*
X28270000Y-30920000D01*
X185722000Y-30911800D02*
X185726000Y-30915900D01*
X185726000Y-30915900D02*
X185730000Y-30920000D01*
X92270000Y-30920000D02*
X92266000Y-30920000D01*
X92266000Y-30920000D02*
X89730000Y-30920000D01*
X183261000Y-44006200D02*
X183261000Y-36000000D01*
X177769000Y-49498200D02*
X183261000Y-44006200D01*
X146310000Y-49498200D02*
X177769000Y-49498200D01*
X145009000Y-50800000D02*
X146310000Y-49498200D01*
X143205000Y-50800000D02*
X145009000Y-50800000D01*
X143002000Y-50596800D02*
X143205000Y-50800000D01*
X143002000Y-47552400D02*
X143002000Y-50596800D01*
X140908000Y-45458400D02*
X143002000Y-47552400D01*
X131978000Y-45458400D02*
X140908000Y-45458400D01*
X185722000Y-35991800D02*
X185730000Y-36000000D01*
X180620000Y-36000000D02*
X183261000Y-36000000D01*
X183261000Y-36000000D02*
X185730000Y-36000000D01*
X60270000Y-36000000D02*
X57730000Y-36000000D01*
X92270000Y-36000000D02*
X92266000Y-36000000D01*
X92266000Y-36000000D02*
X89730000Y-36000000D01*
X124270000Y-36000000D02*
X121726000Y-36000000D01*
X156270000Y-36000000D02*
X153730000Y-36000000D01*
D35*
X103519000Y-40626000D02*
X103519000Y-36322400D01*
X102997000Y-41148000D02*
X103519000Y-40626000D01*
X100398000Y-41148000D02*
X102997000Y-41148000D01*
X99924000Y-41621600D02*
X100398000Y-41148000D01*
X99924000Y-42646600D02*
X99924000Y-41621600D01*
X98933000Y-42737600D02*
X99024000Y-42646600D01*
X98933000Y-46101000D02*
X98933000Y-42737600D01*
X97002600Y-42646600D02*
X99024000Y-42646600D01*
X96832400Y-42476400D02*
X97002600Y-42646600D01*
X96748600Y-42476400D02*
X96832400Y-42476400D01*
X99024000Y-42646600D02*
X99187000Y-42646600D01*
X99024000Y-42646600D02*
X99187000Y-42646600D01*
X99187000Y-42646600D02*
X99924000Y-42646600D01*
D36*
X117626000Y-43458400D02*
X117602000Y-43434000D01*
X131978000Y-43458400D02*
X117626000Y-43458400D01*
X117602000Y-43434000D02*
X117602000Y-41830500D01*
X117602000Y-45259000D02*
X117602000Y-45204400D01*
X117602000Y-45204400D02*
X117602000Y-43434000D01*
X114597000Y-47906500D02*
X106637000Y-47906500D01*
X117600000Y-47906500D02*
X117602000Y-47904400D01*
X117631000Y-47933600D02*
X117602000Y-47904400D01*
X120625000Y-47933600D02*
X117631000Y-47933600D01*
X114597000Y-47906500D02*
X117600000Y-47906500D01*
X117600000Y-47906500D02*
X117602000Y-47904400D01*
X178238000Y-27578000D02*
X177738000Y-27578000D01*
X175196500Y-28956000D02*
X174688500Y-28448000D01*
X174688500Y-28448000D02*
X174688500Y-28096500D01*
X177738000Y-27578000D02*
X176360000Y-28956000D01*
X176360000Y-28956000D02*
X175196500Y-28956000D01*
X174688500Y-28096500D02*
X174095000Y-27503000D01*
X174095000Y-27503000D02*
X173645000Y-27503000D01*
X173645000Y-27503000D02*
X173743500Y-27503000D01*
X178943000Y-27578000D02*
X178238000Y-27578000D01*
X178943000Y-28829000D02*
X178943000Y-27578000D01*
X177871000Y-29900900D02*
X178943000Y-28829000D01*
X157942000Y-29900900D02*
X177871000Y-29900900D01*
X157556000Y-29514800D02*
X157942000Y-29900900D01*
X153010000Y-29514800D02*
X157556000Y-29514800D01*
X152121000Y-30403800D02*
X153010000Y-29514800D01*
X152121000Y-31507200D02*
X152121000Y-30403800D01*
X151333000Y-32294600D02*
X152121000Y-31507200D01*
X145488000Y-32308800D02*
X151319000Y-32308800D01*
X144958000Y-32838600D02*
X145488000Y-32308800D01*
X144958000Y-37135000D02*
X144958000Y-32838600D01*
X145281000Y-37458400D02*
X144958000Y-37135000D01*
X145978000Y-37458400D02*
X145281000Y-37458400D01*
X151319000Y-32308800D02*
X151333000Y-32294600D01*
X150444000Y-33183800D02*
X151319000Y-32308800D01*
X150444000Y-34133800D02*
X150444000Y-33183800D01*
X151319000Y-32308800D02*
X151333000Y-32294600D01*
X173195000Y-27503000D02*
X173645000Y-27503000D01*
X171674000Y-29023500D02*
X173195000Y-27503000D01*
X168150000Y-29023500D02*
X171674000Y-29023500D01*
X167304000Y-28178000D02*
X168150000Y-29023500D01*
X166454000Y-28178000D02*
X167304000Y-28178000D01*
X173645000Y-28153000D02*
X173845000Y-28153000D01*
X173845000Y-28153000D02*
X173845000Y-28528000D01*
X173845000Y-28528000D02*
X174781000Y-29464000D01*
X174781000Y-29464000D02*
X176752000Y-29464000D01*
X176752000Y-29464000D02*
X177838000Y-28378000D01*
X177838000Y-28378000D02*
X178238000Y-28378000D01*
X144526000Y-38006400D02*
X145978000Y-39458400D01*
X144526000Y-32704700D02*
X144526000Y-38006400D01*
X145354000Y-31877000D02*
X144526000Y-32704700D01*
X148709000Y-31877000D02*
X145354000Y-31877000D01*
X149543000Y-31042600D02*
X148709000Y-31877000D01*
X150393000Y-31042600D02*
X149543000Y-31042600D01*
X153183000Y-28178000D02*
X164254000Y-28178000D01*
X150393000Y-30967600D02*
X153183000Y-28178000D01*
X150393000Y-30942600D02*
X150393000Y-30967600D01*
X150393000Y-30967600D02*
X150393000Y-31042600D01*
X173195000Y-28153000D02*
X173645000Y-28153000D01*
X171916000Y-29431300D02*
X173195000Y-28153000D01*
X166358000Y-29431300D02*
X171916000Y-29431300D01*
X165104000Y-28178000D02*
X166358000Y-29431300D01*
X164254000Y-28178000D02*
X165104000Y-28178000D01*
X144781000Y-43458400D02*
X145978000Y-43458400D01*
X144602000Y-43637200D02*
X144781000Y-43458400D01*
X144602000Y-46151800D02*
X144602000Y-43637200D01*
X144932000Y-46482000D02*
X144602000Y-46151800D01*
X151060000Y-46482000D02*
X144932000Y-46482000D01*
X152359000Y-47781200D02*
X151060000Y-46482000D01*
X153060000Y-47781200D02*
X152359000Y-47781200D01*
X129008000Y-28042600D02*
X127762000Y-28042600D01*
X129413000Y-28448000D02*
X129008000Y-28042600D01*
X129413000Y-32004000D02*
X129413000Y-28448000D01*
X129730000Y-32321500D02*
X129413000Y-32004000D01*
X132969000Y-32321500D02*
X129730000Y-32321500D01*
X133223000Y-32575500D02*
X132969000Y-32321500D01*
X133223000Y-39179500D02*
X133223000Y-32575500D01*
X132944000Y-39458400D02*
X133223000Y-39179500D01*
X131978000Y-39458400D02*
X132944000Y-39458400D01*
X143107000Y-45544900D02*
X143107000Y-41369200D01*
X144958000Y-47396400D02*
X143107000Y-45544900D01*
X144958000Y-48844400D02*
X144958000Y-47396400D01*
X145136000Y-49022000D02*
X144958000Y-48844400D01*
X175412000Y-49022000D02*
X145136000Y-49022000D01*
X175896000Y-48538400D02*
X175412000Y-49022000D01*
X175896000Y-44576500D02*
X175896000Y-48538400D01*
X175196000Y-43876500D02*
X175896000Y-44576500D01*
X175196000Y-43751500D02*
X175196000Y-43876500D01*
X131978000Y-37465000D02*
X131978000Y-37458400D01*
X129413000Y-37465000D02*
X131978000Y-37465000D01*
X127991000Y-37465000D02*
X129413000Y-37465000D01*
X127762000Y-37693600D02*
X127991000Y-37465000D01*
X127762000Y-38477200D02*
X127762000Y-37693600D01*
X131978000Y-33458400D02*
X131985000Y-33451400D01*
X128622000Y-33458400D02*
X131978000Y-33458400D01*
X128612000Y-33448000D02*
X128622000Y-33458400D01*
X127762000Y-33448000D02*
X128612000Y-33448000D01*
X127762000Y-33448000D02*
X127762000Y-31342600D01*
X168940000Y-42801200D02*
X168940000Y-43751500D01*
X168890000Y-42751500D02*
X168940000Y-42801200D01*
X165478000Y-42751500D02*
X168890000Y-42751500D01*
X148927000Y-42374800D02*
X150444000Y-42374800D01*
X148011000Y-41458400D02*
X148927000Y-42374800D01*
X145978000Y-41458400D02*
X148011000Y-41458400D01*
X162878000Y-42751500D02*
X163578000Y-42751500D01*
X159147000Y-46482000D02*
X162878000Y-42751500D01*
X152082000Y-46482000D02*
X159147000Y-46482000D01*
X151574000Y-45974000D02*
X152082000Y-46482000D01*
X151574000Y-43604600D02*
X151574000Y-45974000D01*
X150444000Y-42474800D02*
X151574000Y-43604600D01*
X150444000Y-42374800D02*
X150444000Y-42474800D01*
X32191100Y-36008600D02*
X28278600Y-36008600D01*
X32199700Y-36000000D02*
X32191100Y-36008600D01*
X33350000Y-36000000D02*
X32199700Y-36000000D01*
X28287200Y-36017200D02*
X28278600Y-36008600D01*
X28278600Y-36008600D02*
X28270000Y-36000000D01*
D35*
X96702200Y-41080000D02*
X96748600Y-41126400D01*
X92266000Y-41080000D02*
X96702200Y-41080000D01*
X89730000Y-41080000D02*
X60270000Y-41080000D01*
X153730000Y-41080000D02*
X156270000Y-41080000D01*
X124270000Y-41080000D02*
X121726000Y-41080000D01*
X92266000Y-41080000D02*
X89730000Y-41080000D01*
X60270000Y-41080000D02*
X57730000Y-41080000D01*
X57730000Y-41080000D02*
X33350000Y-41080000D01*
X33350000Y-41080000D02*
X28270000Y-41080000D01*
M02*
