G04 #@! TF.FileFunction,Legend,Bot*
%FSLAX46Y46*%
G04 Gerber Fmt 4.6, Leading zero omitted, Abs format (unit mm)*
G04 Created by KiCad (PCBNEW 4.0.6) date Mon Dec 18 08:36:09 2017*
%MOMM*%
%LPD*%
G01*
G04 APERTURE LIST*
%ADD10C,0.100000*%
%ADD11R,2.100000X2.100000*%
%ADD12O,2.100000X2.100000*%
%ADD13O,2.200000X1.500000*%
%ADD14O,2.600000X1.500000*%
%ADD15C,2.100000*%
G04 APERTURE END LIST*
D10*
%LPC*%
D11*
X162738000Y-44932600D03*
D12*
X165278000Y-44932600D03*
X167818000Y-44932600D03*
X170358000Y-44932600D03*
X172898000Y-44932600D03*
X175438000Y-44932600D03*
D11*
X33350000Y-41080000D03*
D12*
X33350000Y-38540000D03*
X33350000Y-36000000D03*
X33350000Y-33460000D03*
X33350000Y-30920000D03*
D13*
X97433000Y-45851000D03*
X103033000Y-45851000D03*
D14*
X100233000Y-48001000D03*
D11*
X180620000Y-41080000D03*
D12*
X180620000Y-38540000D03*
X180620000Y-36000000D03*
X180620000Y-33460000D03*
X180620000Y-30920000D03*
D15*
X55140000Y-21270000D03*
X52600000Y-21270000D03*
X33400000Y-21270000D03*
X30860000Y-21270000D03*
X55140000Y-50730000D03*
X52600000Y-50730000D03*
X33400000Y-50730000D03*
X30860000Y-50730000D03*
X57730000Y-30920000D03*
X57730000Y-33460000D03*
X57730000Y-36000000D03*
X57730000Y-38540000D03*
X57730000Y-41080000D03*
X28270000Y-30920000D03*
X28270000Y-33460000D03*
X28270000Y-36000000D03*
X28270000Y-38540000D03*
X28270000Y-41080000D03*
X151140000Y-21270000D03*
X148600000Y-21270000D03*
X129400000Y-21270000D03*
X126860000Y-21270000D03*
X151140000Y-50730000D03*
X148600000Y-50730000D03*
X129400000Y-50730000D03*
X126860000Y-50730000D03*
X153730000Y-30920000D03*
X153730000Y-33460000D03*
X153730000Y-36000000D03*
X153730000Y-38540000D03*
X153730000Y-41080000D03*
X124270000Y-30920000D03*
X124270000Y-33460000D03*
X124270000Y-36000000D03*
X124270000Y-38540000D03*
X124270000Y-41080000D03*
X87140000Y-21270000D03*
X84600000Y-21270000D03*
X65400000Y-21270000D03*
X62860000Y-21270000D03*
X87140000Y-50730000D03*
X84600000Y-50730000D03*
X65400000Y-50730000D03*
X62860000Y-50730000D03*
X89730000Y-30920000D03*
X89730000Y-33460000D03*
X89730000Y-36000000D03*
X89730000Y-38540000D03*
X89730000Y-41080000D03*
X60270000Y-30920000D03*
X60270000Y-33460000D03*
X60270000Y-36000000D03*
X60270000Y-38540000D03*
X60270000Y-41080000D03*
X119136000Y-21270000D03*
X116596000Y-21270000D03*
X97396000Y-21270000D03*
X94856000Y-21270000D03*
X119136000Y-50730000D03*
X116596000Y-50730000D03*
X97396000Y-50730000D03*
X94856000Y-50730000D03*
X121726000Y-30920000D03*
X121726000Y-33460000D03*
X121726000Y-36000000D03*
X121726000Y-38540000D03*
X121726000Y-41080000D03*
X92266000Y-30920000D03*
X92266000Y-33460000D03*
X92266000Y-36000000D03*
X92266000Y-38540000D03*
X92266000Y-41080000D03*
X183140000Y-21270000D03*
X180600000Y-21270000D03*
X161400000Y-21270000D03*
X158860000Y-21270000D03*
X183140000Y-50730000D03*
X180600000Y-50730000D03*
X161400000Y-50730000D03*
X158860000Y-50730000D03*
X185730000Y-30920000D03*
X185730000Y-33460000D03*
X185730000Y-36000000D03*
X185730000Y-38540000D03*
X185730000Y-41080000D03*
X156270000Y-30920000D03*
X156270000Y-33460000D03*
X156270000Y-36000000D03*
X156270000Y-38540000D03*
X156270000Y-41080000D03*
M02*
