G04 #@! TF.FileFunction,Soldermask,Top*
%FSLAX46Y46*%
G04 Gerber Fmt 4.6, Leading zero omitted, Abs format (unit mm)*
G04 Created by KiCad (PCBNEW 4.0.6) date Mon Oct 23 01:37:39 2017*
%MOMM*%
%LPD*%
G01*
G04 APERTURE LIST*
%ADD10C,0.100000*%
%ADD11R,1.400000X1.400000*%
%ADD12R,0.800000X0.800000*%
%ADD13R,2.100000X2.100000*%
%ADD14O,2.100000X2.100000*%
%ADD15R,1.950000X1.700000*%
%ADD16R,1.900000X1.700000*%
%ADD17R,1.200000X1.300000*%
%ADD18R,1.400000X1.650000*%
%ADD19R,0.850000X1.900000*%
%ADD20O,2.200000X1.500000*%
%ADD21O,2.600000X1.500000*%
%ADD22R,3.900000X2.000000*%
%ADD23R,0.900000X0.750000*%
%ADD24R,1.500000X1.000000*%
%ADD25R,1.500000X1.100000*%
%ADD26R,4.200000X2.400000*%
%ADD27R,1.900000X2.400000*%
%ADD28R,2.900000X1.500000*%
%ADD29R,1.500000X2.900000*%
%ADD30R,1.700000X1.900000*%
%ADD31C,2.100000*%
%ADD32R,1.600000X1.300000*%
%ADD33R,1.650000X1.400000*%
G04 APERTURE END LIST*
D10*
D11*
X96748600Y-42476400D03*
X96748600Y-39776400D03*
X96748600Y-41126400D03*
D12*
X178238000Y-25978000D03*
X178238000Y-26778000D03*
X178238000Y-27578000D03*
X178238000Y-28378000D03*
X175838000Y-28378000D03*
X175838000Y-27578000D03*
X175838000Y-26778000D03*
X175838000Y-25978000D03*
D13*
X33350000Y-41080000D03*
D14*
X33350000Y-38540000D03*
X33350000Y-36000000D03*
X33350000Y-33460000D03*
X33350000Y-30920000D03*
D15*
X106637000Y-47906500D03*
X106637000Y-43406500D03*
X114597000Y-43406500D03*
X114597000Y-47906500D03*
D16*
X171640000Y-43751500D03*
X168940000Y-43751500D03*
D17*
X165478000Y-42751500D03*
X163578000Y-42751500D03*
X164528000Y-44751500D03*
D18*
X177196000Y-43751500D03*
X175196000Y-43751500D03*
D19*
X100233000Y-46101000D03*
X100883000Y-46101000D03*
X99583000Y-46101000D03*
X101533000Y-46101000D03*
X98933000Y-46101000D03*
D20*
X97433000Y-45851000D03*
X103033000Y-45851000D03*
D21*
X100233000Y-48001000D03*
D22*
X108831000Y-33147000D03*
X114231000Y-33147000D03*
D23*
X173645000Y-26203000D03*
X173645000Y-26853000D03*
X173645000Y-27503000D03*
X173645000Y-28153000D03*
X171595000Y-28153000D03*
X171595000Y-27503000D03*
X171595000Y-26853000D03*
X171595000Y-26203000D03*
D24*
X166454000Y-28178000D03*
D25*
X166454000Y-27178000D03*
D24*
X166454000Y-26178000D03*
X164254000Y-26178000D03*
D25*
X164254000Y-27178000D03*
D24*
X164254000Y-28178000D03*
D26*
X101219000Y-30022400D03*
D27*
X101219000Y-36322400D03*
X103519000Y-36322400D03*
X98919000Y-36322400D03*
D28*
X131278000Y-33458400D03*
X131278000Y-35458400D03*
X131278000Y-37458400D03*
X131278000Y-39458400D03*
X131278000Y-41458400D03*
X131278000Y-43458400D03*
X131278000Y-45458400D03*
X131278000Y-47458400D03*
X146678000Y-47458400D03*
X146678000Y-45458400D03*
X146678000Y-43458400D03*
X146678000Y-41458400D03*
X146678000Y-39458400D03*
X146678000Y-37458400D03*
X146678000Y-35458400D03*
X146678000Y-33458400D03*
D29*
X133968000Y-49158400D03*
X135968000Y-49158400D03*
X137968000Y-49158400D03*
X139968000Y-49158400D03*
X141968000Y-49158400D03*
X143968000Y-49158400D03*
D30*
X150444000Y-39674800D03*
X150444000Y-42374800D03*
X150393000Y-28342600D03*
X150393000Y-31042600D03*
D31*
X151500000Y-21270000D03*
X148960000Y-21270000D03*
X129040000Y-21270000D03*
X126500000Y-21270000D03*
X151500000Y-50730000D03*
X148960000Y-50730000D03*
X129040000Y-50730000D03*
X126500000Y-50730000D03*
X153730000Y-30920000D03*
X153730000Y-33460000D03*
X153730000Y-36000000D03*
X153730000Y-38540000D03*
X153730000Y-41080000D03*
X124270000Y-30920000D03*
X124270000Y-33460000D03*
X124270000Y-36000000D03*
X124270000Y-38540000D03*
X124270000Y-41080000D03*
X87500000Y-21270000D03*
X84960000Y-21270000D03*
X65040000Y-21270000D03*
X62500000Y-21270000D03*
X87500000Y-50730000D03*
X84960000Y-50730000D03*
X65040000Y-50730000D03*
X62500000Y-50730000D03*
X89730000Y-30920000D03*
X89730000Y-33460000D03*
X89730000Y-36000000D03*
X89730000Y-38540000D03*
X89730000Y-41080000D03*
X60270000Y-30920000D03*
X60270000Y-33460000D03*
X60270000Y-36000000D03*
X60270000Y-38540000D03*
X60270000Y-41080000D03*
X55500000Y-21270000D03*
X52960000Y-21270000D03*
X33040000Y-21270000D03*
X30500000Y-21270000D03*
X55500000Y-50730000D03*
X52960000Y-50730000D03*
X33040000Y-50730000D03*
X30500000Y-50730000D03*
X57730000Y-30920000D03*
X57730000Y-33460000D03*
X57730000Y-36000000D03*
X57730000Y-38540000D03*
X57730000Y-41080000D03*
X28270000Y-30920000D03*
X28270000Y-33460000D03*
X28270000Y-36000000D03*
X28270000Y-38540000D03*
X28270000Y-41080000D03*
D13*
X164516000Y-47599600D03*
D14*
X167056000Y-47599600D03*
X169596000Y-47599600D03*
X172136000Y-47599600D03*
X174676000Y-47599600D03*
X177216000Y-47599600D03*
D32*
X127762000Y-28042600D03*
X127762000Y-31342600D03*
D18*
X99924000Y-42646600D03*
X101924000Y-42646600D03*
X173593000Y-24130000D03*
X171593000Y-24130000D03*
D33*
X169164000Y-28178000D03*
X169164000Y-26178000D03*
X127813000Y-47456600D03*
X127813000Y-45456600D03*
D18*
X164354000Y-24130000D03*
X166354000Y-24130000D03*
D33*
X117602000Y-39830500D03*
X117602000Y-41830500D03*
D30*
X120625000Y-45233600D03*
X120625000Y-47933600D03*
X150444000Y-36833800D03*
X150444000Y-34133800D03*
X150419000Y-45081200D03*
X150419000Y-47781200D03*
X127762000Y-36148000D03*
X127762000Y-33448000D03*
X117602000Y-45204400D03*
X117602000Y-47904400D03*
X127762000Y-41177200D03*
X127762000Y-38477200D03*
X153060000Y-45081200D03*
X153060000Y-47781200D03*
D13*
X180620000Y-41080000D03*
D14*
X180620000Y-38540000D03*
X180620000Y-36000000D03*
X180620000Y-33460000D03*
X180620000Y-30920000D03*
D31*
X183500000Y-21270000D03*
X180960000Y-21270000D03*
X161040000Y-21270000D03*
X158500000Y-21270000D03*
X183500000Y-50730000D03*
X180960000Y-50730000D03*
X161040000Y-50730000D03*
X158500000Y-50730000D03*
X185730000Y-30920000D03*
X185730000Y-33460000D03*
X185730000Y-36000000D03*
X185730000Y-38540000D03*
X185730000Y-41080000D03*
X156270000Y-30920000D03*
X156270000Y-33460000D03*
X156270000Y-36000000D03*
X156270000Y-38540000D03*
X156270000Y-41080000D03*
X119496000Y-21270000D03*
X116956000Y-21270000D03*
X97036000Y-21270000D03*
X94496000Y-21270000D03*
X119496000Y-50730000D03*
X116956000Y-50730000D03*
X97036000Y-50730000D03*
X94496000Y-50730000D03*
X121726000Y-30920000D03*
X121726000Y-33460000D03*
X121726000Y-36000000D03*
X121726000Y-38540000D03*
X121726000Y-41080000D03*
X92266000Y-30920000D03*
X92266000Y-33460000D03*
X92266000Y-36000000D03*
X92266000Y-38540000D03*
X92266000Y-41080000D03*
M02*
